<svg version="1.0"
     xmlns="http://www.w3.org/2000/svg" width="100%" height="100%" viewBox="0 0 340.000000 250.000000" preserveAspectRatio="xMidYMid meet" color-interpolation-filters="sRGB" style="margin: auto;">
    <rect x="0" y="0" width="100%" height="100%" fill="#fef5ef" fill-opacity="1" class="background"/>
    <g fill="#4e374f" class="icon-text-wrapper icon-svg-group iconsvg" transform="translate(73.30799865722656,83)">
        <g fill="#f75835" class="iconsvg-imagesvg icon_container" transform="translate(0,0)">
            <rect fill="#4e374f" fill-opacity="0" stroke-width="2" x="0" y="0" width="84.00000000000003" height="84.00000000000003" class="image-rect"/>
            <svg viewBox="0 0 60 60" x="0" y="0" width="84.00000000000003" height="84.00000000000003" class="image-svg-svg bn" style="overflow: visible;">
                <g mask="url(#9de9c57d-1a99-4bcc-afb0-ef3557f55452)">
                    <g>
                        <svg
                                xmlns="http://www.w3.org/2000/svg" version="1.1" x="0" y="0" viewBox="5 5 90 90" enable-background="new 0 0 100 100" xml:space="preserve" style="overflow: visible;" width="60" height="60" filter="url(#L2IfjhYEKvhiaIUdEwWtu)">
                            <g transform="scale(1, 1) skewX(0)">
                                <path d="M75.921,5H24.305C13.752,5,5,13.752,5,24.305v51.616C5,86.472,13.752,95,24.305,95h51.616C86.472,95,95,86.472,95,75.921  V24.305C95,13.752,86.472,5,75.921,5z"/>
                            </g>
                            <defs>
                                <filter id="L2IfjhYEKvhiaIUdEwWtu">
                                    <feColorMatrix type="matrix" values="0 0 0 0 0.96484375  0 0 0 0 0.34375  0 0 0 0 0.20703125  0 0 0 1 0"/>
                                </filter>
                            </defs>
                        </svg>
                    </g>
                    <g filter="url(#colors5900589621)">
                        <svg
                                xmlns="http://www.w3.org/2000/svg" version="1.1" x="10" y="10" viewBox="5.666015625 5.666015625 36.66796875 36.66796875" xml:space="preserve" width="40" height="40" class="image-svg-icon">
                            <path d="M39.1669922,36c-0.5078125,0-0.9814453,0.1318359-1.4082031,0.3447266l-5.8808594-5.8808594  c0.2128906-0.4267578,0.3447266-0.9003906,0.3447266-1.4082031c0-1.7460938-1.4208984-3.1669922-3.1669922-3.1669922  c-0.5078125,0-0.9814453,0.1318359-1.4082031,0.3447266l-5.8813477-5.8813477  c0.2138672-0.4257812,0.3452148-0.8999023,0.3452148-1.4077148s-0.1313477-0.980957-0.3447266-1.4067383l5.8818359-5.8828125  C28.0742188,11.8686523,28.5478516,12,29.0556641,12s0.9814453-0.1313477,1.4082031-0.3452148l5.8808594,5.8818359  C36.1318359,17.9624023,36,18.4365234,36,18.9443359c0,1.7460938,1.4208984,3.1669922,3.1669922,3.1669922  s3.1669922-1.4208984,3.1669922-3.1669922s-1.4208984-3.1669922-3.1669922-3.1669922  c-0.5078125,0-0.9814453,0.1313477-1.4082031,0.3452148l-5.8808594-5.8818359  c0.2128906-0.4257812,0.3447266-0.8999023,0.3447266-1.4077148c0-1.7460938-1.4208984-3.1669922-3.1669922-3.1669922  s-3.1669922,1.4208984-3.1669922,3.1669922c0,0.5083008,0.1318359,0.9819336,0.3457031,1.4077148l-5.8813477,5.8823242  c-0.4262695-0.2138672-0.9003906-0.3457031-1.4086914-0.3457031c-1.7460938,0-3.1669922,1.4208984-3.1669922,3.1669922  c0,0.5078125,0.1313477,0.9819336,0.3452148,1.4077148l-5.8818359,5.8813477  c-0.4257812-0.2128906-0.8999023-0.3447266-1.4077148-0.3447266c-1.7460938,0-3.1669922,1.4208984-3.1669922,3.1669922  s1.4208984,3.1669922,3.1669922,3.1669922S12,30.8017578,12,29.0556641c0-0.5078125-0.1313477-0.9814453-0.3452148-1.4082031  l5.8818359-5.8813477c0.4257812,0.2138672,0.8999023,0.3452148,1.4077148,0.3452148s0.9819336-0.1313477,1.4077148-0.3452148  l5.8813477,5.8813477c-0.2128906,0.4267578-0.3447266,0.9003906-0.3447266,1.4082031  c0,0.5087891,0.1318359,0.9824219,0.3457031,1.4082031l-5.8823242,5.8808594C19.9262695,36.1318359,19.4521484,36,18.9443359,36  c-1.7460938,0-3.1669922,1.4208984-3.1669922,3.1669922s1.4208984,3.1669922,3.1669922,3.1669922  s3.1669922-1.4208984,3.1669922-3.1669922c0-0.5078125-0.1313477-0.9814453-0.3452148-1.4082031l5.8823242-5.8808594  c0.4257812,0.2128906,0.8994141,0.3447266,1.4072266,0.3447266s0.9814453-0.1318359,1.4082031-0.3447266l5.8808594,5.8808594  C36.1318359,38.1855469,36,38.6591797,36,39.1669922c0,1.7460938,1.4208984,3.1669922,3.1669922,3.1669922  s3.1669922-1.4208984,3.1669922-3.1669922S40.9130859,36,39.1669922,36z M40.3339844,18.9443359  c0,0.6435547-0.5234375,1.1669922-1.1669922,1.1669922S38,19.5878906,38,18.9443359s0.5234375-1.1669922,1.1669922-1.1669922  S40.3339844,18.3007812,40.3339844,18.9443359z M29.0556641,7.6660156c0.6435547,0,1.1669922,0.5234375,1.1669922,1.1669922  S29.6992188,10,29.0556641,10s-1.1669922-0.5234375-1.1669922-1.1669922S28.4121094,7.6660156,29.0556641,7.6660156z   M8.8330078,30.2226562c-0.6435547,0-1.1669922-0.5234375-1.1669922-1.1669922s0.5234375-1.1669922,1.1669922-1.1669922  S10,28.4121094,10,29.0556641S9.4765625,30.2226562,8.8330078,30.2226562z M17.7773438,18.9443359  c0-0.6435547,0.5234375-1.1669922,1.1669922-1.1669922s1.1669922,0.5234375,1.1669922,1.1669922  s-0.5234375,1.1669922-1.1669922,1.1669922S17.7773438,19.5878906,17.7773438,18.9443359z M18.9443359,40.3339844  c-0.6435547,0-1.1669922-0.5234375-1.1669922-1.1669922S18.3007812,38,18.9443359,38s1.1669922,0.5234375,1.1669922,1.1669922  S19.5878906,40.3339844,18.9443359,40.3339844z M27.8886719,29.0556641c0-0.6435547,0.5234375-1.1669922,1.1669922-1.1669922  s1.1669922,0.5234375,1.1669922,1.1669922s-0.5234375,1.1669922-1.1669922,1.1669922S27.8886719,29.6992188,27.8886719,29.0556641z   M39.1669922,40.3339844C38.5234375,40.3339844,38,39.8105469,38,39.1669922S38.5234375,38,39.1669922,38  s1.1669922,0.5234375,1.1669922,1.1669922S39.8105469,40.3339844,39.1669922,40.3339844z"/>
                        </svg>
                    </g>
                </g>
                <mask id="9de9c57d-1a99-4bcc-afb0-ef3557f55452">
                    <g fill="white">
                        <svg
                                xmlns="http://www.w3.org/2000/svg" version="1.1" x="0" y="0" viewBox="5 5 90 90" enable-background="new 0 0 100 100" xml:space="preserve" style="overflow: visible;" width="60" height="60">
                            <g transform="scale(1, 1) skewX(0)">
                                <path d="M75.921,5H24.305C13.752,5,5,13.752,5,24.305v51.616C5,86.472,13.752,95,24.305,95h51.616C86.472,95,95,86.472,95,75.921  V24.305C95,13.752,86.472,5,75.921,5z"/>
                            </g>
                            <defs/>
                        </svg>
                    </g>
                    <g fill="black">
                        <svg
                                xmlns="http://www.w3.org/2000/svg" version="1.1" x="10" y="10" viewBox="5.666015625 5.666015625 36.66796875 36.66796875" xml:space="preserve" width="40" height="40" class="image-svg-icon">
                            <path d="M39.1669922,36c-0.5078125,0-0.9814453,0.1318359-1.4082031,0.3447266l-5.8808594-5.8808594  c0.2128906-0.4267578,0.3447266-0.9003906,0.3447266-1.4082031c0-1.7460938-1.4208984-3.1669922-3.1669922-3.1669922  c-0.5078125,0-0.9814453,0.1318359-1.4082031,0.3447266l-5.8813477-5.8813477  c0.2138672-0.4257812,0.3452148-0.8999023,0.3452148-1.4077148s-0.1313477-0.980957-0.3447266-1.4067383l5.8818359-5.8828125  C28.0742188,11.8686523,28.5478516,12,29.0556641,12s0.9814453-0.1313477,1.4082031-0.3452148l5.8808594,5.8818359  C36.1318359,17.9624023,36,18.4365234,36,18.9443359c0,1.7460938,1.4208984,3.1669922,3.1669922,3.1669922  s3.1669922-1.4208984,3.1669922-3.1669922s-1.4208984-3.1669922-3.1669922-3.1669922  c-0.5078125,0-0.9814453,0.1313477-1.4082031,0.3452148l-5.8808594-5.8818359  c0.2128906-0.4257812,0.3447266-0.8999023,0.3447266-1.4077148c0-1.7460938-1.4208984-3.1669922-3.1669922-3.1669922  s-3.1669922,1.4208984-3.1669922,3.1669922c0,0.5083008,0.1318359,0.9819336,0.3457031,1.4077148l-5.8813477,5.8823242  c-0.4262695-0.2138672-0.9003906-0.3457031-1.4086914-0.3457031c-1.7460938,0-3.1669922,1.4208984-3.1669922,3.1669922  c0,0.5078125,0.1313477,0.9819336,0.3452148,1.4077148l-5.8818359,5.8813477  c-0.4257812-0.2128906-0.8999023-0.3447266-1.4077148-0.3447266c-1.7460938,0-3.1669922,1.4208984-3.1669922,3.1669922  s1.4208984,3.1669922,3.1669922,3.1669922S12,30.8017578,12,29.0556641c0-0.5078125-0.1313477-0.9814453-0.3452148-1.4082031  l5.8818359-5.8813477c0.4257812,0.2138672,0.8999023,0.3452148,1.4077148,0.3452148s0.9819336-0.1313477,1.4077148-0.3452148  l5.8813477,5.8813477c-0.2128906,0.4267578-0.3447266,0.9003906-0.3447266,1.4082031  c0,0.5087891,0.1318359,0.9824219,0.3457031,1.4082031l-5.8823242,5.8808594C19.9262695,36.1318359,19.4521484,36,18.9443359,36  c-1.7460938,0-3.1669922,1.4208984-3.1669922,3.1669922s1.4208984,3.1669922,3.1669922,3.1669922  s3.1669922-1.4208984,3.1669922-3.1669922c0-0.5078125-0.1313477-0.9814453-0.3452148-1.4082031l5.8823242-5.8808594  c0.4257812,0.2128906,0.8994141,0.3447266,1.4072266,0.3447266s0.9814453-0.1318359,1.4082031-0.3447266l5.8808594,5.8808594  C36.1318359,38.1855469,36,38.6591797,36,39.1669922c0,1.7460938,1.4208984,3.1669922,3.1669922,3.1669922  s3.1669922-1.4208984,3.1669922-3.1669922S40.9130859,36,39.1669922,36z M40.3339844,18.9443359  c0,0.6435547-0.5234375,1.1669922-1.1669922,1.1669922S38,19.5878906,38,18.9443359s0.5234375-1.1669922,1.1669922-1.1669922  S40.3339844,18.3007812,40.3339844,18.9443359z M29.0556641,7.6660156c0.6435547,0,1.1669922,0.5234375,1.1669922,1.1669922  S29.6992188,10,29.0556641,10s-1.1669922-0.5234375-1.1669922-1.1669922S28.4121094,7.6660156,29.0556641,7.6660156z   M8.8330078,30.2226562c-0.6435547,0-1.1669922-0.5234375-1.1669922-1.1669922s0.5234375-1.1669922,1.1669922-1.1669922  S10,28.4121094,10,29.0556641S9.4765625,30.2226562,8.8330078,30.2226562z M17.7773438,18.9443359  c0-0.6435547,0.5234375-1.1669922,1.1669922-1.1669922s1.1669922,0.5234375,1.1669922,1.1669922  s-0.5234375,1.1669922-1.1669922,1.1669922S17.7773438,19.5878906,17.7773438,18.9443359z M18.9443359,40.3339844  c-0.6435547,0-1.1669922-0.5234375-1.1669922-1.1669922S18.3007812,38,18.9443359,38s1.1669922,0.5234375,1.1669922,1.1669922  S19.5878906,40.3339844,18.9443359,40.3339844z M27.8886719,29.0556641c0-0.6435547,0.5234375-1.1669922,1.1669922-1.1669922  s1.1669922,0.5234375,1.1669922,1.1669922s-0.5234375,1.1669922-1.1669922,1.1669922S27.8886719,29.6992188,27.8886719,29.0556641z   M39.1669922,40.3339844C38.5234375,40.3339844,38,39.8105469,38,39.1669922S38.5234375,38,39.1669922,38  s1.1669922,0.5234375,1.1669922,1.1669922S39.8105469,40.3339844,39.1669922,40.3339844z"/>
                        </svg>
                    </g>
                </mask>
            </svg>
            <defs>
                <filter id="colors5900589621">
                    <feColorMatrix type="matrix" values="0 0 0 0 0.3046875  0 0 0 0 0.21484375  0 0 0 0 0.30859375  0 0 0 1 0" />
                </filter>
                <filter id="colorsf3918000152">
                    <feColorMatrix type="matrix" values="0 0 0 0 0.99609375  0 0 0 0 0.99609375  0 0 0 0 0.99609375  0 0 0 1 0" />
                </filter>
                <filter id="colorsb4471982127">
                    <feColorMatrix type="matrix" values="0 0 0 0 0  0 0 0 0 0  0 0 0 0 0  0 0 0 1 0" />
                </filter>
            </defs>
        </g>
        <g transform="translate(91,25.6200008392334)">
            <g class="tp-name iconsvg-namesvg">
                <g transform="scale(0.7199999999999998)">
                    <g>
                        <path d="M41.35-35.3L41.35-28.65 7.75-28.65 7.75-35.3 41.35-35.3ZM46.1-5.2L46.1 1.5 3 1.5 3-5.2 46.1-5.2ZM96.5-0.75L92.95 5.75Q86.7 3.05 81.97 0.53 77.25-2 73.65-4.85L73.65-4.85Q69.75-1.95 65 0.55 60.25 3.05 54.5 5.6L54.5 5.6 50.65-1.05Q56.25-3.4 60.58-5.53 64.9-7.65 68.3-9.9L68.3-9.9Q66.6-11.85 65.18-14 63.75-16.15 62.5-18.6 61.25-21.05 60.13-23.85 59-26.65 57.9-29.9L57.9-29.9 62.6-31.7 55.05-31.7 55.05-38.1 90.9-38.1 90.9-31.7Q89.1-24.45 86.18-19.05 83.25-13.65 79-9.4L79-9.4Q82.3-7.15 86.58-5.1 90.85-3.05 96.5-0.75L96.5-0.75ZM71.6-31.7L63.95-31.7Q65.95-25.7 68.23-21.43 70.5-17.15 73.6-13.9L73.6-13.9Q75.55-15.65 77.1-17.57 78.65-19.5 79.95-21.68 81.25-23.85 82.3-26.33 83.35-28.8 84.25-31.7L84.25-31.7 73.35-31.7Q74.8-29.85 76.33-27.6 77.85-25.35 79-23.1L79-23.1 73.9-18.9Q73.25-20.15 72.48-21.53 71.7-22.9 70.88-24.25 70.05-25.6 69.25-26.83 68.45-28.05 67.75-28.95L67.75-28.95 71.6-31.7ZM118.2-15.75L114.6-12.2Q114.05-13.05 113.4-14 112.75-14.95 112.05-15.9L112.05-15.9 112.05 5 106.4 5 106.4-13.55Q105.55-11.5 104.7-9.78 103.85-8.05 103.15-6.8L103.15-6.8 99.4-11.85Q99.8-12.4 100.63-13.8 101.45-15.2 102.45-17.1 103.45-19 104.48-21.2 105.5-23.4 106.25-25.5L106.25-25.5 102.1-25.5 102.1-31.3 106.4-31.3 106.4-39.75 112.05-39.5 112.05-31.3 114.85-31.3 114.85-25.5 112.05-25.5 112.05-20.6 113.5-21.85Q113.95-21.35 114.58-20.58 115.2-19.8 115.88-18.95 116.55-18.1 117.15-17.25 117.75-16.4 118.2-15.75L118.2-15.75ZM145.2-30.95L145.2-25.2 141.75-25.2 141.75-2.35Q141.75-0.25 141.5 1.13 141.25 2.5 140.55 3.33 139.85 4.15 138.6 4.55 137.35 4.95 135.35 5.1L135.35 5.1 130.85 5.45 129.35-0.35 133.2-0.65Q134.9-0.75 135.45-1.45 136-2.15 136-3.65L136-3.65 136-25.2 130.5-25.2 130.5-30.95 136-30.95 136-39.75 141.75-39.5 141.75-30.95 145.2-30.95ZM130.55-4.7L126.05-1.6Q125.7-2.35 124.93-4.05 124.15-5.75 123-8L123-8Q121.85-5.45 120.45-3.03 119.05-0.6 117.15 1.9L117.15 1.9 112.1-1.25Q114.75-4.6 116.63-7.83 118.5-11.05 119.8-14.4L119.8-14.4Q118.45-17.05 117.1-19.55 115.75-22.05 114.6-24.1L114.6-24.1 119-26.45Q119.35-25.85 119.8-25.05L119.8-25.05Q120.2-24.35 120.73-23.45 121.25-22.55 121.9-21.4L121.9-21.4Q122.35-23.5 122.68-25.63 123-27.75 123.2-30.05L123.2-30.05 116.6-30.05 116.6-35.85 128.65-35.85 128.65-30.05Q128.05-25.9 127.33-22.13 126.6-18.35 125.5-14.75L125.5-14.75Q126.8-12.3 128.1-9.75 129.4-7.2 130.55-4.7L130.55-4.7ZM135.8-10L130.8-8.45Q130.5-10.2 130.1-12.08 129.7-13.95 129.28-15.73 128.85-17.5 128.4-19.07 127.95-20.65 127.55-21.8L127.55-21.8 132-23.45Q132.85-21.2 133.85-17.9 134.85-14.6 135.8-10L135.8-10Z" transform="translate(-3, 39.75)"/>
                    </g>
                </g>
            </g>
        </g>
    </g>
    <defs/>
</svg>