<svg version="1.0"
  xmlns="http://www.w3.org/2000/svg"
  xmlns:xlink="http://www.w3.org/1999/xlink" width="100%" height="100%" viewBox="0 0 340.000000 250.000000" preserveAspectRatio="xMidYMid meet" color-interpolation-filters="sRGB" style="margin: auto;">
  <rect x="0" y="0" width="100%" height="100%" fill="#fef0da" fill-opacity="1" class="background"></rect>
  <g class="iconmbgsvg" transform="translate(72.5,27.5)">
    <g fill="#2f2a76" hollow-target="textNormalTran">
      <g opacity="0.55">
        <g>
          <rect fill="#2f2a76" fill-opacity="0" stroke-width="2" x="0" y="0" width="195.00000000000003" height="195.00000000000003" class="image-rect"></rect>
          <svg x="0" y="0" width="195.00000000000003" height="195.00000000000003" filtersec="colorsb6519291667" class="image-svg-svg primary" style="overflow: visible;">
            <svg xmlns="http://www.w3.org/2000/svg" viewBox="0 0 200 200">
              <path fill="#f4400d" d="M 95.64 0.00 L 104.66 0.00 C 109.49 2.13 110.91 5.44 114.15 8.35 C 117.51 11.38 120.71 13.90 123.88 17.89 Q 125.05 19.37 128.68 22.31 Q 131.39 24.50 134.98 29.04 Q 135.93 30.24 139.55 33.18 C 143.25 36.19 146.40 41.02 151.04 44.70 Q 153.60 46.72 156.68 50.58 Q 158.55 52.92 162.55 56.20 C 165.83 58.89 168.46 62.84 171.77 65.64 Q 177.29 70.31 178.54 72.23 Q 180.16 74.70 182.47 76.54 C 185.41 78.88 187.80 81.21 190.22 84.35 C 193.76 88.93 198.01 89.86 200.00 96.08 L 200.00 103.92 C 198.30 108.89 195.73 109.90 192.36 113.19 Q 189.90 115.59 187.73 118.25 C 184.83 121.80 180.51 124.55 177.18 128.70 Q 175.21 131.15 171.73 133.98 C 168.96 136.23 166.74 139.50 164.21 141.80 C 158.66 146.83 153.91 152.36 148.23 157.30 C 144.29 160.72 141.61 165.05 137.34 168.39 Q 135.55 169.79 132.32 173.81 C 130.23 176.42 126.60 178.80 124.35 181.10 Q 122.60 182.88 121.02 184.81 Q 118.72 187.63 115.87 189.89 C 112.65 192.44 110.76 195.97 107.42 198.13 C 105.86 199.14 104.08 198.93 102.37 200.00 L 98.51 200.00 Q 97.73 199.54 94.98 198.85 C 91.83 198.05 89.46 193.99 87.06 191.69 C 83.91 188.69 80.75 186.26 77.95 182.74 C 74.90 178.90 70.95 176.91 68.37 173.63 Q 65.17 169.55 62.51 167.53 Q 59.59 165.30 57.96 163.28 Q 55.30 159.99 53.09 157.71 C 51.17 155.73 47.55 153.33 45.30 150.33 C 43.93 148.51 42.67 147.28 41.18 145.80 C 39.24 143.86 36.17 141.93 34.29 139.48 Q 31.36 135.65 28.53 133.51 Q 25.33 131.09 23.19 128.31 Q 20.39 124.69 17.37 122.37 C 13.58 119.45 11.17 115.93 8.22 112.84 C 6.67 111.23 3.62 109.49 2.30 107.45 Q 1.61 106.40 0.00 102.16 L 0.00 97.01 C 0.82 95.60 0.89 94.00 1.60 92.73 C 3.55 89.25 7.66 87.42 9.45 84.95 Q 12.46 80.79 14.85 78.84 Q 19.07 75.39 20.18 73.96 Q 23.53 69.64 26.10 67.59 Q 30.07 64.42 31.17 62.95 Q 34.77 58.17 37.79 56.07 C 41.61 53.41 43.83 49.77 47.16 46.47 C 49.19 44.46 52.58 42.34 54.54 39.77 Q 58.77 34.21 63.61 30.88 Q 64.05 30.58 64.42 30.95 Q 75.30 41.79 86.17 52.58 Q 86.99 53.39 86.33 54.21 Q 86.04 54.58 86.02 55.05 C 85.85 58.78 85.42 62.77 87.25 66.04 Q 89.80 70.62 94.56 73.24 Q 95.01 73.48 95.01 74.00 L 95.01 128.02 Q 95.01 128.55 94.51 128.75 C 87.87 131.46 85.22 137.29 85.84 144.05 C 86.55 151.77 90.61 155.82 97.99 157.37 Q 100.44 157.89 102.51 157.56 Q 112.82 155.91 115.11 146.54 C 116.81 139.65 114.55 132.86 108.23 129.35 A 1.39 1.36 14.4 0 1 107.52 128.17 Q 107.12 103.55 107.33 79.00 Q 107.35 76.92 107.51 75.03 A 0.40 0.40 0.0 0 1 108.19 74.78 L 128.09 94.65 Q 128.44 95.00 128.32 95.48 C 127.91 97.05 126.94 98.37 126.95 99.92 Q 126.97 102.81 128.23 105.96 C 131.28 113.58 137.95 116.88 145.86 115.35 C 160.45 112.54 161.68 90.90 147.64 86.58 C 144.71 85.67 140.98 85.80 137.86 86.14 Q 136.56 86.28 135.78 85.22 Q 132.52 80.81 128.58 77.70 Q 126.07 75.72 124.10 73.17 Q 120.27 68.21 115.50 64.89 A 1.50 1.50 0.0 0 1 114.90 63.32 C 117.81 50.78 108.99 41.76 96.51 44.28 A 1.30 1.27 53.7 0 1 95.60 44.13 C 91.73 41.88 89.62 38.39 86.77 35.37 C 84.72 33.19 81.08 30.90 78.73 27.83 C 76.90 25.44 75.21 23.84 73.30 21.85 Q 72.94 21.47 73.30 21.07 C 74.61 19.64 76.00 18.46 77.16 16.90 C 79.79 13.34 82.90 11.12 85.87 8.45 C 89.24 5.42 90.43 1.96 95.64 0.00 Z"></path>
            </svg>
          </svg>
        </g>
      </g>
      <g transform="translate(49.80939865112305,56.95830154418945)">
        <g data-gra="path-name" fill-rule="" class="tp-name">
          <g transform="scale(1.3400000000000003)">
            <g>
              <path d="M6.5-16.96C6.5-6.57 9.81 0.13 19.89 0.13 23.53 0.13 26.26-1.17 27.69-4.36L27.69-1.63C27.69 4.55 25.48 6.96 19.18 6.96 15.99 6.96 13.78 6.5 11.05 4.94L7.8 10.86C11.38 13.13 15.02 13.71 19.37 13.71 30.88 13.71 35.69 8.26 35.69-1.95L35.69-33.15 28.54-33.15 28.02-28.8C26.46-32.56 23.46-33.93 19.89-33.93 9.81-33.93 6.5-27.11 6.5-16.96ZM14.63-16.96C14.63-22.1 15.41-26.98 21.19-26.98 26.52-26.98 27.56-22.82 27.69-16.96 27.69-11.83 26.59-6.89 21.19-6.89 15.73-6.89 14.63-11.77 14.63-16.96ZM55.06-46.8L46.8-46.8 46.8-39.07 55.06-39.07ZM54.93 0.65L54.93-33.15 46.93-33.15 46.93 0.65ZM77.68-6.17L74.43-6.17C71.89-6.17 70.98-7.21 70.98-9.55L70.98-26.52 77.68-26.52 77.68-33.15 70.98-33.15 70.98-43.29 62.99-43.29 62.99-33.15 57.92-33.15 58.57-26.52 62.99-26.52 62.99-9.23C62.99-2.41 66.5 0.65 73 0.65L77.68 0.65Z" transform="translate(-6.5, 46.79999923706055)"></path>
            </g>
          </g>
        </g>
      </g>
    </g>
  </g>
  <defs v-gra="od"></defs>
</svg>