<svg  version="1.0" xmlns="http://www.w3.org/2000/svg" width="100%" height="100%" viewBox="0 0 340.000000 250.000000" preserveAspectRatio="xMidYMid meet" color-interpolation-filters="sRGB" style="margin: auto;">
    <rect  x="0" y="0" width="100%" height="100%" fill="#020e27" fill-opacity="1" class="background"/>
    <g  fill="#ffffff" class="icon-text-wrapper icon-svg-group iconsvg" transform="translate(81.75775909423828,52.56999969482422)">
        <g class="iconsvg-imagesvg" transform="translate(31.842239379882812,0)" mask="url(#2885dea8-c828-43b1-b950-df469641e74a)"><g>
            <rect fill="#ffffff" fill-opacity="0" stroke-width="2" x="0" y="0" width="112.80000000000004" height="112.80000000000004" class="image-rect"/>
            <svg x="0" y="0" width="112.80000000000004" height="112.80000000000004" class="image-svg-svg primary" style="overflow: visible;">
                <svg xmlns="http://www.w3.org/2000/svg" viewBox="-2 -2 204 204">
                    <path stroke="#4da0ff" stroke-width="2" fill="none" stroke-linecap="butt" d="M 33.22 142.10 Q 34.34 112.26 33.26 82.64"/>
                    <path fill="#2088ff" d="M 35.71 0.00 L 46.93 0.00 Q 55.30 1.50 60.83 4.41 Q 75.99 12.40 81.37 28.53 C 84.51 37.95 84.04 50.99 79.48 59.71 Q 67.90 81.84 43.73 83.31 A 1.51 1.51 0.0 0 0 42.44 85.43 Q 47.39 96.51 57.63 99.23 C 60.31 99.94 63.49 99.77 66.43 99.85 Q 66.94 99.87 66.99 99.36 C 68.12 87.65 78.19 78.68 88.77 75.62 C 93.21 74.34 100.41 74.63 104.68 76.12 Q 121.05 81.83 124.93 99.52 Q 125.03 100.00 125.52 100.00 L 141.49 100.00 Q 141.98 100.00 142.00 99.51 C 142.03 98.74 141.95 98.09 142.16 97.37 C 145.78 84.92 155.79 75.41 169.06 74.94 Q 174.35 74.75 176.00 75.15 Q 196.52 80.09 200.00 100.94 L 200.00 108.46 C 199.10 111.64 198.37 114.92 196.89 117.73 C 187.19 136.18 162.08 138.80 148.65 123.33 Q 143.44 117.34 141.78 109.01 Q 141.68 108.53 141.19 108.53 L 125.62 108.56 Q 125.03 108.56 124.90 109.14 Q 121.78 123.16 110.45 129.54 C 92.40 139.71 70.74 129.21 66.87 109.14 Q 66.78 108.66 66.29 108.61 Q 64.16 108.44 61.98 108.39 Q 50.81 108.13 42.44 100.82 Q 41.98 100.43 41.98 101.03 Q 41.91 120.59 41.95 140.15 Q 41.97 146.10 43.25 149.69 C 46.65 159.17 55.42 166.31 66.19 166.19 Q 66.67 166.19 66.78 165.72 C 70.01 151.56 81.15 141.66 95.57 141.33 Q 103.61 141.15 110.50 145.31 C 124.35 153.67 129.04 170.49 121.70 184.66 Q 115.16 197.29 99.05 200.00 L 92.58 200.00 Q 89.76 199.36 87.09 198.64 Q 84.04 197.81 81.85 196.59 Q 70.39 190.19 67.23 176.95 Q 67.07 176.25 66.92 175.44 Q 66.84 174.99 66.39 175.00 C 50.48 175.14 38.51 164.51 34.06 149.77 Q 33.05 146.44 33.22 142.10 Q 34.34 112.26 33.26 82.64 C 14.74 78.47 1.78 63.89 0.00 45.13 L 0.00 37.76 C 0.58 34.55 0.96 31.11 2.06 28.17 Q 10.73 5.03 35.71 0.00 Z M 74.84 41.66 A 33.19 33.19 0.0 0 0 41.65 8.47 A 33.19 33.19 0.0 0 0 8.46 41.66 A 33.19 33.19 0.0 0 0 41.65 74.85 A 33.19 33.19 0.0 0 0 74.84 41.66 Z M 116.44 104.16 A 20.65 20.65 0.0 0 0 95.79 83.51 A 20.65 20.65 0.0 0 0 75.14 104.16 A 20.65 20.65 0.0 0 0 95.79 124.81 A 20.65 20.65 0.0 0 0 116.44 104.16 Z M 191.46 104.16 A 20.65 20.65 0.0 0 0 170.81 83.51 A 20.65 20.65 0.0 0 0 150.16 104.16 A 20.65 20.65 0.0 0 0 170.81 124.81 A 20.65 20.65 0.0 0 0 191.46 104.16 Z M 116.43 170.79 A 20.63 20.63 0.0 0 0 95.80 150.16 A 20.63 20.63 0.0 0 0 75.17 170.79 A 20.63 20.63 0.0 0 0 95.80 191.42 A 20.63 20.63 0.0 0 0 116.43 170.79 Z"/>
                    <path fill="#2088ff" d="M 61.91 37.45 C 64.49 41.43 62.82 46.93 58.63 49.44 Q 49.31 55.02 40.08 60.79 Q 36.11 63.27 33.45 63.37 C 28.46 63.55 25.04 59.92 25.02 54.91 Q 24.97 41.92 25.02 28.94 Q 25.03 25.62 26.17 23.81 C 28.24 20.52 32.76 18.92 36.34 20.39 Q 36.71 20.54 41.09 23.28 Q 48.74 28.06 56.35 32.89 Q 60.77 35.69 61.91 37.45 Z M 34.08 28.98 A 0.44 0.44 0.0 0 0 33.41 29.35 L 33.45 54.01 A 0.44 0.44 0.0 0 0 34.13 54.38 L 53.78 42.02 A 0.44 0.44 0.0 0 0 53.77 41.27 L 34.08 28.98 Z"/>
                    <path fill="#79b8ff" d="M 33.26 82.64 Q 34.34 112.26 33.22 142.10 L 33.26 82.64 Z"/>
                    <path fill="#2088ff" d="M91.88 104.67 101.97 94.55A3.24 3.23 46.1 0 1 106.64 94.65L107.41 95.49Q110.26 98.58 107.28 101.55L94.91 113.88Q91.6 117.17 88.24 113.94 85.24 111.05 81.91 107.58C79.19 104.73 82.14 100.21 85.78 100.66 87.98 100.93 89.62 103.04 91.15 104.66Q91.51 105.04 91.88 104.67ZM166.88 104.65 177.01 94.54A3.2 3.2 0 0 1 181.68 94.7L182.45 95.58Q185.14 98.65 182.25 101.53L169.5 114.26A4.2 4.19 44.5 0 1 163.62 114.31C161.74 112.5 156.85 108.44 156.11 106.05 154.71 101.56 160.53 98.8 163.68 102.09Q165.29 103.77 166.14 104.64 166.51 105.02 166.88 104.65Z"/>
                    <path fill="#79b8ff" d="M 200.00 167.39 L 200.00 174.97 C 199.21 177.21 198.92 179.62 198.11 181.59 Q 193.32 193.17 181.81 198.02 C 179.54 198.97 176.86 199.05 174.34 200.00 L 167.29 200.00 C 164.85 199.10 162.16 199.07 159.98 198.13 Q 145.17 191.76 141.73 175.62 Q 141.63 175.13 141.12 175.16 C 137.45 175.42 134.58 175.68 133.13 172.10 C 131.22 167.40 138.26 166.05 141.22 166.29 A 0.63 0.62 7.2 0 0 141.88 165.78 C 143.78 155.03 151.52 146.38 161.19 143.07 C 176.25 137.92 191.38 145.15 197.97 159.64 C 199.01 161.94 199.16 164.80 200.00 167.39 Z M 191.42 170.80 A 20.64 20.64 0.0 0 0 170.78 150.16 A 20.64 20.64 0.0 0 0 150.14 170.80 A 20.64 20.64 0.0 0 0 170.78 191.44 A 20.64 20.64 0.0 0 0 191.42 170.80 Z"/>
                    <circle fill="#79b8ff" cx="87.49" cy="170.77" r="4.41"/>
                    <circle fill="#79b8ff" cx="104.15" cy="170.8" r="4.39"/>
                </svg>
            </svg> 
        </g>
            <rect width="124.80000305175781" height="124.80000305175781" transform="translate(-6, -6)" style="pointer-events:none;" fill="url(#Idt0p3QDN0q_y6yuqzlyO)"/>
        </g>
        <g transform="translate(0,124.80000305175781)"><g class="tp-name iconsvg-namesvg"><g transform="scale(1)"><g><path d="M17.28-5.95L17.28-10.32 10.11-10.32 10.11-7.31 13.79-7.31 13.79-6.11C13.79-3.63 12.22-2.61 10.35-2.61 8.53-2.61 7.12-3.41 6.85-5.92 6.64-7.89 6.69-10.67 6.77-12.19 6.93-14.94 8.21-16.08 10.61-16.08 12.08-16.08 13.6-15.63 14.46-14.35L16.48-17.02C14.96-18.56 13.02-19.26 10.61-19.26 6.24-19.26 3.41-16.88 3.23-12.64 3.12-10.45 3.09-7.71 3.31-5.41 3.71-1.33 6.51 0.59 10.35 0.59 14.72 0.59 17.28-1.73 17.28-5.95ZM24.59-19.2L21.2-19.2 21.2-16.03 24.59-16.03ZM24.54 0.27L24.54-13.6 21.26-13.6 21.26 0.27ZM33.87-2.53L32.54-2.53C31.5-2.53 31.12-2.96 31.12-3.92L31.12-10.88 33.87-10.88 33.87-13.6 31.12-13.6 31.12-17.76 27.84-17.76 27.84-13.6 25.76-13.6 26.03-10.88 27.84-10.88 27.84-3.79C27.84-0.99 29.28 0.27 31.95 0.27L33.87 0.27ZM53.66 0.27L53.66-18.94 50.25-18.94 50.25-11.09 42.01-11.09 42.01-18.94 38.62-18.94 38.62 0.27 42.01 0.27 42.01-7.79 50.25-7.79 50.25 0.27ZM57.29-13.6L57.29-4.32C57.29-1.2 59.13 0.59 61.82 0.59 63.5 0.59 64.7 0 65.61-1.52L65.85 0.27 68.92 0.27 68.92-13.6 65.64-13.6 65.64-4.99C65.64-3.15 64.6-2.21 63.05-2.21 61.45-2.21 60.57-3.09 60.57-4.93L60.57-13.6ZM85.08-6.64C85.08-10.91 83.72-13.92 79.59-13.92 78.09-13.92 76.97-13.26 76.38-11.95L76.38-19.47 73.1-19.47 73.1 0.27 76.04 0.27 76.25-1.52C76.89 0.03 78.12 0.59 79.59 0.59 83.72 0.59 85.08-2.48 85.08-6.64ZM81.75-6.64C81.75-4.53 81.43-2.27 79.05-2.27 76.86-2.27 76.44-4.24 76.38-6.64 76.38-8.75 76.84-11.04 79.05-11.04 81.29-11.04 81.75-8.77 81.75-6.64ZM108.44 0.27L101.96-18.94 98.01-18.94 91.4 0.27 95.03 0.27 96.41-4.27 103.4-4.27 104.82 0.27ZM102.55-7.23L97.29-7.23 99.93-15.68ZM119.8-3.47C119.16-2.75 118.47-2.29 117.22-2.29 115-2.29 114.44-4.59 114.44-6.69 114.44-8.77 114.87-11.07 117.22-11.07 118.12-11.07 119.03-10.64 119.72-9.87L121.22-12.4C120.28-13.28 119.03-13.92 117.22-13.92 112.52-13.92 111.11-10.8 111.11-6.69 111.11-2.43 112.6 0.59 117.22 0.59 119.19 0.59 120.36 0 121.3-1.01ZM130.05-2.53L128.71-2.53C127.67-2.53 127.3-2.96 127.3-3.92L127.3-10.88 130.05-10.88 130.05-13.6 127.3-13.6 127.3-17.76 124.02-17.76 124.02-13.6 121.94-13.6 122.2-10.88 124.02-10.88 124.02-3.79C124.02-0.99 125.46 0.27 128.13 0.27L130.05 0.27ZM137.54-19.2L134.15-19.2 134.15-16.03 137.54-16.03ZM137.49 0.27L137.49-13.6 134.21-13.6 134.21 0.27ZM152.24-6.69C152.24-10.85 150.9-13.92 146.21-13.92 141.51-13.92 140.21-10.8 140.21-6.69 140.21-2.43 141.59 0.59 146.21 0.59 150.88 0.59 152.24-2.43 152.24-6.69ZM148.9-6.69C148.9-4.56 148.45-2.29 146.21-2.29 143.99-2.29 143.54-4.59 143.54-6.69 143.54-8.77 143.86-11.07 146.21-11.07 148.58-11.07 148.9-8.8 148.9-6.69ZM167.86 0.27L167.86-8.96C167.86-12.22 165.94-13.92 163.06-13.92 161.44-13.92 160.21-13.26 159.54-11.82L159.3-13.6 156.24-13.6 156.24 0.27 159.52 0.27 159.52-8.4C159.52-10.19 160.5-11.07 162.05-11.07 163.68-11.07 164.58-10.16 164.58-8.37L164.58 0.27ZM174.56-13.92C171.47-13.92 169.07-12.4 169.07-9.49 169.07-7.17 170.48-5.89 172.99-5.55L174.91-5.23C176.03-5.07 176.37-4.45 176.37-3.76 176.37-2.72 175.52-2.27 174.19-2.27 173.12-2.27 171.81-2.48 170.45-3.41L169.01-0.91C170.67 0.27 172.35 0.56 174.13 0.56 177.41 0.56 179.63-0.83 179.63-3.89 179.63-6.16 178.37-7.57 175.63-7.95L173.71-8.21C172.67-8.35 172.27-8.96 172.27-9.68 172.27-10.37 172.85-11.2 174.51-11.2 175.73-11.2 176.8-10.77 177.76-10.11L179.07-12.56C177.55-13.66 176.03-13.92 174.56-13.92Z" transform="translate(-3.1455302238464355, 19.469999313354492)"/></g>       </g></g> </g></g><defs/><defs><filter id="ce853844-8fb9-457b-b37b-58c3f69d8cea" filterUnits="userSpaceOnUse"><feColorMatrix type="matrix" values="0 0 0 0 0.99609375  0 0 0 0 0.99609375  0 0 0 0 0.99609375  0 0 0 1 0"/></filter><linearGradient x1="0" y1="1" x2="0" y2="0" id="Idt0p3QDN0q_y6yuqzlyO"><stop offset="0%" stop-color="#00c9ff"/>
    <stop offset="100%" stop-color="#92fe9d"/></linearGradient><filter id="42443b3f1de60f6b6fd3b6a9844b4764" filterUnits="objectBoundingBox"><feColorMatrix type="matrix" values="0 0 0 0 0.99609375  0 0 0 0 0.99609375  0 0 0 0 0.99609375  0 0 0 1 0"/></filter></defs><mask id="2885dea8-c828-43b1-b950-df469641e74a"><g class="iconsvg-imagesvg" filter="url(#ce853844-8fb9-457b-b37b-58c3f69d8cea)"><g><rect fill="#ffffff" fill-opacity="0" stroke-width="2" x="0" y="0" width="112.80000000000004" height="112.80000000000004" class="image-rect"/> <svg x="0" y="0" width="112.80000000000004" height="112.80000000000004" class="image-svg-svg primary" style="overflow: visible;"><svg xmlns="http://www.w3.org/2000/svg" viewBox="-2 -2 204 204">
    <path stroke="#4da0ff" stroke-width="2" fill="none" stroke-linecap="butt" d="M 33.22 142.10 Q 34.34 112.26 33.26 82.64"/>
    <path fill="#2088ff" d="M 35.71 0.00 L 46.93 0.00 Q 55.30 1.50 60.83 4.41 Q 75.99 12.40 81.37 28.53 C 84.51 37.95 84.04 50.99 79.48 59.71 Q 67.90 81.84 43.73 83.31 A 1.51 1.51 0.0 0 0 42.44 85.43 Q 47.39 96.51 57.63 99.23 C 60.31 99.94 63.49 99.77 66.43 99.85 Q 66.94 99.87 66.99 99.36 C 68.12 87.65 78.19 78.68 88.77 75.62 C 93.21 74.34 100.41 74.63 104.68 76.12 Q 121.05 81.83 124.93 99.52 Q 125.03 100.00 125.52 100.00 L 141.49 100.00 Q 141.98 100.00 142.00 99.51 C 142.03 98.74 141.95 98.09 142.16 97.37 C 145.78 84.92 155.79 75.41 169.06 74.94 Q 174.35 74.75 176.00 75.15 Q 196.52 80.09 200.00 100.94 L 200.00 108.46 C 199.10 111.64 198.37 114.92 196.89 117.73 C 187.19 136.18 162.08 138.80 148.65 123.33 Q 143.44 117.34 141.78 109.01 Q 141.68 108.53 141.19 108.53 L 125.62 108.56 Q 125.03 108.56 124.90 109.14 Q 121.78 123.16 110.45 129.54 C 92.40 139.71 70.74 129.21 66.87 109.14 Q 66.78 108.66 66.29 108.61 Q 64.16 108.44 61.98 108.39 Q 50.81 108.13 42.44 100.82 Q 41.98 100.43 41.98 101.03 Q 41.91 120.59 41.95 140.15 Q 41.97 146.10 43.25 149.69 C 46.65 159.17 55.42 166.31 66.19 166.19 Q 66.67 166.19 66.78 165.72 C 70.01 151.56 81.15 141.66 95.57 141.33 Q 103.61 141.15 110.50 145.31 C 124.35 153.67 129.04 170.49 121.70 184.66 Q 115.16 197.29 99.05 200.00 L 92.58 200.00 Q 89.76 199.36 87.09 198.64 Q 84.04 197.81 81.85 196.59 Q 70.39 190.19 67.23 176.95 Q 67.07 176.25 66.92 175.44 Q 66.84 174.99 66.39 175.00 C 50.48 175.14 38.51 164.51 34.06 149.77 Q 33.05 146.44 33.22 142.10 Q 34.34 112.26 33.26 82.64 C 14.74 78.47 1.78 63.89 0.00 45.13 L 0.00 37.76 C 0.58 34.55 0.96 31.11 2.06 28.17 Q 10.73 5.03 35.71 0.00 Z M 74.84 41.66 A 33.19 33.19 0.0 0 0 41.65 8.47 A 33.19 33.19 0.0 0 0 8.46 41.66 A 33.19 33.19 0.0 0 0 41.65 74.85 A 33.19 33.19 0.0 0 0 74.84 41.66 Z M 116.44 104.16 A 20.65 20.65 0.0 0 0 95.79 83.51 A 20.65 20.65 0.0 0 0 75.14 104.16 A 20.65 20.65 0.0 0 0 95.79 124.81 A 20.65 20.65 0.0 0 0 116.44 104.16 Z M 191.46 104.16 A 20.65 20.65 0.0 0 0 170.81 83.51 A 20.65 20.65 0.0 0 0 150.16 104.16 A 20.65 20.65 0.0 0 0 170.81 124.81 A 20.65 20.65 0.0 0 0 191.46 104.16 Z M 116.43 170.79 A 20.63 20.63 0.0 0 0 95.80 150.16 A 20.63 20.63 0.0 0 0 75.17 170.79 A 20.63 20.63 0.0 0 0 95.80 191.42 A 20.63 20.63 0.0 0 0 116.43 170.79 Z"/>
    <path fill="#2088ff" d="M 61.91 37.45 C 64.49 41.43 62.82 46.93 58.63 49.44 Q 49.31 55.02 40.08 60.79 Q 36.11 63.27 33.45 63.37 C 28.46 63.55 25.04 59.92 25.02 54.91 Q 24.97 41.92 25.02 28.94 Q 25.03 25.62 26.17 23.81 C 28.24 20.52 32.76 18.92 36.34 20.39 Q 36.71 20.54 41.09 23.28 Q 48.74 28.06 56.35 32.89 Q 60.77 35.69 61.91 37.45 Z M 34.08 28.98 A 0.44 0.44 0.0 0 0 33.41 29.35 L 33.45 54.01 A 0.44 0.44 0.0 0 0 34.13 54.38 L 53.78 42.02 A 0.44 0.44 0.0 0 0 53.77 41.27 L 34.08 28.98 Z"/>
    <path fill="#79b8ff" d="M 33.26 82.64 Q 34.34 112.26 33.22 142.10 L 33.26 82.64 Z"/>
    <path fill="#2088ff" d="M91.88 104.67 101.97 94.55A3.24 3.23 46.1 0 1 106.64 94.65L107.41 95.49Q110.26 98.58 107.28 101.55L94.91 113.88Q91.6 117.17 88.24 113.94 85.24 111.05 81.91 107.58C79.19 104.73 82.14 100.21 85.78 100.66 87.98 100.93 89.62 103.04 91.15 104.66Q91.51 105.04 91.88 104.67ZM166.88 104.65 177.01 94.54A3.2 3.2 0 0 1 181.68 94.7L182.45 95.58Q185.14 98.65 182.25 101.53L169.5 114.26A4.2 4.19 44.5 0 1 163.62 114.31C161.74 112.5 156.85 108.44 156.11 106.05 154.71 101.56 160.53 98.8 163.68 102.09Q165.29 103.77 166.14 104.64 166.51 105.02 166.88 104.65Z"/>
    <path fill="#79b8ff" d="M 200.00 167.39 L 200.00 174.97 C 199.21 177.21 198.92 179.62 198.11 181.59 Q 193.32 193.17 181.81 198.02 C 179.54 198.97 176.86 199.05 174.34 200.00 L 167.29 200.00 C 164.85 199.10 162.16 199.07 159.98 198.13 Q 145.17 191.76 141.73 175.62 Q 141.63 175.13 141.12 175.16 C 137.45 175.42 134.58 175.68 133.13 172.10 C 131.22 167.40 138.26 166.05 141.22 166.29 A 0.63 0.62 7.2 0 0 141.88 165.78 C 143.78 155.03 151.52 146.38 161.19 143.07 C 176.25 137.92 191.38 145.15 197.97 159.64 C 199.01 161.94 199.16 164.80 200.00 167.39 Z M 191.42 170.80 A 20.64 20.64 0.0 0 0 170.78 150.16 A 20.64 20.64 0.0 0 0 150.14 170.80 A 20.64 20.64 0.0 0 0 170.78 191.44 A 20.64 20.64 0.0 0 0 191.42 170.80 Z"/>
    <circle fill="#79b8ff" cx="87.49" cy="170.77" r="4.41"/>
    <circle fill="#79b8ff" cx="104.15" cy="170.8" r="4.39"/>
</svg></svg> </g></g></mask></svg>