<svg data-v-0dd9719b="" version="1.0" xmlns="http://www.w3.org/2000/svg" xmlns:xlink="http://www.w3.org/1999/xlink" width="100%" height="100%" viewBox="0 0 340.000000 250.000000" preserveAspectRatio="xMidYMid meet" color-interpolation-filters="sRGB" style="margin: auto;"> <rect data-v-0dd9719b="" x="0" y="0" width="100%" height="100%" fill="#000000" fill-opacity="1" class="background"></rect> <g data-v-0dd9719b="" fill="#DA03FF" class="pmspacesvg" transform="translate(45.32500457763672,86.00500106811523)"><!----> <polyline data-gra="graph-name" stroke="url(#03bd17fd-d1f4-4743-b030-4faf8ce1ea5c)" stroke-width="20" fill-opacity="0" stroke-opacity="0.5" points="0,77.98999786376953 0,0 249.34999084472656,0"></polyline> <polyline data-gra="graph-name" stroke="url(#03bd17fd-d1f4-4743-b030-4faf8ce1ea5c)" stroke-width="20" fill-opacity="0" stroke-opacity="0.5" points="0,77.98999786376953 249.34999084472656,77.98999786376953 249.34999084472656,0"></polyline> <g mask="url(#956ec620-9a3b-4858-88c4-0fd1fc83df88)"><g><rect data-gra="graph-name-bg" stroke-width="2" class="i-icon-bg" x="0" y="0" width="249.34999084472656" height="77.98999786376953" fill="url(#03bd17fd-d1f4-4743-b030-4faf8ce1ea5c)"></rect> <!----> <!----> </g> <g transform="translate(10,10)"><g data-gra="path-name" fill-rule="" class="tp-name" fill="#000000"><g transform="scale(1)"><g><path d="M24.05-42.38L24.05-42.38Q23.81-39.16 23.67-36.74 23.52-34.32 23.45-32.45 23.37-30.57 23.36-29.13 23.34-27.68 23.37-26.38 23.4-25.08 23.46-23.8 23.52-22.52 23.56-21.01 23.61-19.51 23.65-17.63 23.7-15.76 23.7-13.25L23.7-13.25Q23.7-10.3 23.11-7.55 22.52-4.81 21.1-2.7 19.68-0.59 17.29 0.68 14.9 1.95 11.3 1.95L11.3 1.95Q9.18 1.95 7.54 1.45 5.9 0.94 4.68 0.09 3.45-0.77 2.61-1.92 1.77-3.07 1.25-4.35 0.74-5.64 0.52-6.98 0.3-8.32 0.3-9.56L0.3-9.56Q0.3-11.21 0.84-12.31 1.39-13.4 2.17-14.05 2.95-14.7 3.79-14.96 4.63-15.23 5.25-15.23L5.25-15.23Q5.9-15.23 6.77-14.98 7.64-14.73 8.44-14.12 9.24-13.52 9.78-12.54 10.33-11.57 10.33-10.15L10.33-10.15Q10.27-9.06 9.86-8.12L9.86-8.12Q9.5-7.32 8.75-6.54 8-5.75 6.58-5.43L6.58-5.43Q7.11-4.57 7.78-4.06 8.44-3.54 9.13-3.28 9.83-3.01 10.45-2.92 11.07-2.83 11.48-2.83L11.48-2.83Q13.04-2.83 13.99-3.47 14.93-4.1 15.43-5.24 15.94-6.37 16.1-7.89 16.26-9.41 16.26-11.18L16.26-11.18Q16.26-15.2 16.25-19.14 16.23-23.08 16.14-26.94 16.05-30.81 15.85-34.64 15.64-38.48 15.23-42.26L15.23-42.26Q15.55-42.2 16.05-42.14L16.05-42.14Q16.85-42.05 18.5-42.05L18.5-42.05Q19.54-42.05 20.92-42.11 22.31-42.17 24.05-42.38ZM48.96 0.8L42.14 1.21Q41.96 0.3 41.82-0.65 41.67-1.59 41.58-2.6L41.58-2.6Q40.22-0.59 38.33 0.49 36.44 1.56 34.2 1.56L34.2 1.56Q33.05 1.56 31.84 1.2 30.63 0.83 29.64-0.09 28.65-1 28.02-2.58 27.39-4.16 27.39-6.58L27.39-6.58Q27.39-8.59 27.98-10.08 28.57-11.57 29.51-12.69 30.45-13.81 31.63-14.64 32.81-15.46 33.98-16.11 35.15-16.76 36.21-17.32 37.27-17.88 37.95-18.44L37.95-18.44Q39.25-19.48 40.21-20.64 41.17-21.81 41.76-23.08L41.76-23.08Q41.64-25.11 41.33-26.43 41.02-27.74 40.52-28.52 40.02-29.3 39.29-29.61 38.57-29.92 37.65-29.92L37.65-29.92Q36.3-29.92 35.37-29.33 34.44-28.74 33.85-27.92L33.85-27.92Q34.59-27.44 34.98-26.91 35.38-26.38 35.59-25.88L35.59-25.88Q35.82-25.32 35.85-24.73L35.85-24.73Q35.85-22.72 34.72-21.66 33.58-20.6 31.81-20.6L31.81-20.6Q30.9-20.6 30.13-21.03 29.36-21.45 28.79-22.22 28.21-22.99 27.89-24.05 27.56-25.11 27.56-26.35L27.56-26.35Q27.56-27.59 28.12-28.98 28.68-30.37 29.92-31.56 31.16-32.76 33.11-33.54 35.06-34.32 37.83-34.32L37.83-34.32Q40.61-34.32 42.58-33.24 44.56-32.17 45.83-30.38 47.1-28.6 47.67-26.26 48.25-23.93 48.25-21.45L48.25-21.45Q48.25-19.59 48.22-17.41 48.19-15.23 48.19-12.93L48.19-12.93Q48.19-11.01 48.22-9.09 48.25-7.17 48.34-5.39 48.43-3.6 48.57-2.02 48.72-0.44 48.96 0.8L48.96 0.8ZM41.46-9.8L41.7-16.08Q40.66-14.84 39.48-13.96L39.48-13.96Q38.6-13.34 37.58-12.57 36.56-11.8 35.69-10.95 34.82-10.09 34.25-9.16 33.67-8.23 33.67-7.26L33.67-7.26Q33.67-5.93 34.32-4.99 34.97-4.04 36.15-4.04L36.15-4.04Q37.24-4.04 38.1-4.63 38.95-5.22 39.62-6.09 40.28-6.96 40.74-7.97 41.2-8.97 41.46-9.8L41.46-9.8ZM66.22-32.87L75.34-32.76Q73.92-28.36 72.68-24.23 71.44-20.1 70.35-15.98 69.26-11.86 68.29-7.67 67.31-3.48 66.46 1.03L66.46 1.03 57.93 1.21Q57.13-3.19 56.32-7.3 55.51-11.42 54.61-15.49 53.71-19.57 52.7-23.7 51.7-27.83 50.55-32.22L50.55-32.22 59.02-32.58Q59.7-26.26 60.52-19.68 61.35-13.1 62.47-6.76L62.47-6.76Q63.92-13.16 64.82-19.82 65.72-26.47 66.22-32.87L66.22-32.87ZM97.56 0.8L90.74 1.21Q90.57 0.3 90.42-0.65 90.27-1.59 90.18-2.6L90.18-2.6Q88.82-0.59 86.94 0.49 85.05 1.56 82.8 1.56L82.8 1.56Q81.65 1.56 80.44 1.2 79.23 0.83 78.25-0.09 77.26-1 76.62-2.58 75.99-4.16 75.99-6.58L75.99-6.58Q75.99-8.59 76.58-10.08 77.17-11.57 78.11-12.69 79.06-13.81 80.24-14.64 81.42-15.46 82.58-16.11 83.75-16.76 84.81-17.32 85.87-17.88 86.55-18.44L86.55-18.44Q87.85-19.48 88.81-20.64 89.77-21.81 90.36-23.08L90.36-23.08Q90.24-25.11 89.93-26.43 89.62-27.74 89.12-28.52 88.62-29.3 87.9-29.61 87.17-29.92 86.26-29.92L86.26-29.92Q84.9-29.92 83.97-29.33 83.04-28.74 82.45-27.92L82.45-27.92Q83.19-27.44 83.59-26.91 83.99-26.38 84.19-25.88L84.19-25.88Q84.43-25.32 84.46-24.73L84.46-24.73Q84.46-22.72 83.32-21.66 82.19-20.6 80.41-20.6L80.41-20.6Q79.5-20.6 78.73-21.03 77.97-21.45 77.39-22.22 76.81-22.99 76.49-24.05 76.16-25.11 76.16-26.35L76.16-26.35Q76.16-27.59 76.73-28.98 77.29-30.37 78.53-31.56 79.77-32.76 81.71-33.54 83.66-34.32 86.43-34.32L86.43-34.32Q89.21-34.32 91.19-33.24 93.16-32.17 94.43-30.38 95.7-28.6 96.28-26.26 96.85-23.93 96.85-21.45L96.85-21.45Q96.85-19.59 96.82-17.41 96.79-15.23 96.79-12.93L96.79-12.93Q96.79-11.01 96.82-9.09 96.85-7.17 96.94-5.39 97.03-3.6 97.18-2.02 97.32-0.44 97.56 0.8L97.56 0.8ZM90.06-9.8L90.3-16.08Q89.27-14.84 88.09-13.96L88.09-13.96Q87.2-13.34 86.18-12.57 85.17-11.8 84.29-10.95 83.42-10.09 82.85-9.16 82.27-8.23 82.27-7.26L82.27-7.26Q82.27-5.93 82.92-4.99 83.57-4.04 84.75-4.04L84.75-4.04Q85.84-4.04 86.7-4.63 87.56-5.22 88.22-6.09 88.88-6.96 89.34-7.97 89.8-8.97 90.06-9.8L90.06-9.8ZM124.44-10.15L124.44-10.15Q124.15-6.82 122.92-4.62 121.7-2.42 119.93-1.11 118.16 0.21 116.02 0.74 113.88 1.27 111.75 1.27L111.75 1.27Q109.54 1.27 107.49 0.66 105.44 0.06 103.87-1.15 102.31-2.36 101.38-4.19 100.45-6.02 100.45-8.47L100.45-8.47Q100.45-10.36 101.03-11.63 101.6-12.9 102.46-13.66 103.31-14.43 104.29-14.74 105.26-15.05 106.09-15.05L106.09-15.05Q106.94-15.05 107.86-14.78 108.77-14.52 109.54-13.9 110.31-13.28 110.79-12.23 111.28-11.18 111.28-9.62L111.28-9.62Q111.28-9.59 111.24-9.07 111.19-8.56 110.9-7.89 110.6-7.23 110-6.6 109.39-5.96 108.24-5.7L108.24-5.7Q109.07-4.66 110.18-4.15 111.28-3.63 112.05-3.63L112.05-3.63Q112.82-3.63 113.8-3.9 114.79-4.16 115.66-4.8 116.53-5.43 117.14-6.48 117.74-7.53 117.74-9.12L117.74-9.12Q117.74-10.98 117.11-12.42 116.48-13.87 115.49-14.98 114.5-16.08 113.27-16.92 112.05-17.76 110.9-18.44L110.9-18.44Q110.13-18.89 109.07-19.49 108.01-20.1 106.86-20.94 105.7-21.78 104.58-22.86 103.46-23.93 102.56-25.3 101.66-26.68 101.12-28.36 100.57-30.04 100.57-32.08L100.57-32.08Q100.57-35.12 101.63-37.4 102.69-39.69 104.39-41.23 106.09-42.76 108.24-43.53 110.4-44.29 112.61-44.29L112.61-44.29Q114.82-44.29 116.83-43.69 118.84-43.08 120.36-41.95 121.88-40.81 122.78-39.23 123.68-37.65 123.68-35.71L123.68-35.71Q123.68-33.73 123.03-32.58 122.38-31.43 121.48-30.84 120.58-30.25 119.65-30.09 118.72-29.92 118.16-29.92L118.16-29.92Q117.45-29.92 116.68-30.19 115.91-30.45 115.28-30.99 114.65-31.52 114.23-32.28 113.82-33.05 113.82-34.08L113.82-34.08Q113.85-34.73 113.97-35.38L113.97-35.38Q114.09-35.94 114.32-36.59 114.56-37.24 115.03-37.83L115.03-37.83Q114.56-38.24 114.11-38.48 113.67-38.72 113.29-38.84L113.29-38.84Q112.85-38.95 112.43-38.98L112.43-38.98Q111.61-38.98 110.77-38.69 109.92-38.39 109.23-37.8 108.54-37.21 108.09-36.31 107.65-35.41 107.65-34.2L107.65-34.2Q107.65-32.79 108.09-31.65 108.54-30.51 109.48-29.45 110.43-28.39 111.89-27.3 113.35-26.2 115.38-24.91L115.38-24.91Q117.77-23.4 119.5-21.9 121.23-20.39 122.33-18.8 123.44-17.2 123.97-15.45 124.5-13.69 124.5-11.66L124.5-11.66Q124.5-11.3 124.5-10.93 124.5-10.56 124.44-10.15ZM149.29-25.08L149.29-25.08Q149.29-23.05 148.74-21.85 148.2-20.66 147.45-20.05 146.69-19.45 145.91-19.27 145.13-19.09 144.63-19.09L144.63-19.09Q144.13-19.09 143.42-19.26 142.71-19.42 142.05-19.9 141.38-20.39 140.92-21.29 140.47-22.19 140.47-23.64L140.47-23.64Q140.5-24.43 140.76-25.2L140.76-25.2Q141-25.85 141.47-26.53 141.94-27.21 142.83-27.68L142.83-27.68Q142.33-28.8 141.72-29.39 141.12-29.98 140.56-30.28L140.56-30.28Q139.91-30.6 139.26-30.69L139.26-30.69Q138.17-30.69 137.28-29.69 136.39-28.68 135.77-26.87 135.16-25.05 134.82-22.52 134.48-19.98 134.48-16.91L134.48-16.91Q134.48-13.87 134.7-11.23 134.92-8.59 135.42-6.62 135.92-4.66 136.78-3.54 137.63-2.42 138.9-2.42L138.9-2.42Q139.58-2.45 140.26-2.74L140.26-2.74Q140.85-2.98 141.51-3.53 142.18-4.07 142.71-5.08L142.71-5.08Q141.68-5.58 141.13-6.3 140.59-7.02 140.35-7.7L140.35-7.7Q140.05-8.5 140.02-9.35L140.02-9.35Q140.02-10.77 140.59-11.66 141.15-12.54 141.91-13.06 142.68-13.57 143.48-13.77 144.27-13.96 144.75-13.96L144.75-13.96Q145.25-13.96 145.99-13.75 146.72-13.55 147.4-12.95 148.08-12.36 148.57-11.29 149.05-10.21 149.05-8.47L149.05-8.47Q149.05-6.73 148.21-4.87 147.37-3.01 145.94-1.48 144.51 0.06 142.64 1.03 140.76 2.01 138.7 2.01L138.7 2.01Q137.31 2.01 135.89 1.62 134.48 1.24 133.18 0.35 131.88-0.53 130.73-1.98 129.58-3.42 128.74-5.52 127.9-7.61 127.41-10.43 126.92-13.25 126.92-16.91L126.92-16.91Q126.92-20.57 127.45-23.33 127.98-26.09 128.91-28.06 129.84-30.04 131.05-31.34 132.26-32.64 133.64-33.41 135.01-34.17 136.45-34.47 137.9-34.76 139.26-34.76L139.26-34.76Q141.26-34.76 143.09-34.01 144.92-33.26 146.3-31.94 147.67-30.63 148.48-28.86 149.29-27.09 149.29-25.08ZM159.94 1.21L159.94 1.21 152.06 1.8Q152.54-3.48 152.76-8.4 152.98-13.31 152.98-18.24L152.98-18.24Q152.98-21.72 152.88-25.22 152.77-28.71 152.51-32.4L152.51-32.4 159.15-32.76Q159.09-32.11 159.06-31.49 159.03-30.87 159.03-30.28L159.03-30.28Q160.06-31.87 161.29-32.77 162.51-33.67 163.57-34.08L163.57-34.08Q164.78-34.59 166.02-34.7L166.02-34.7Q168.18-34.7 169.71-34.04 171.25-33.38 172.22-32.33 173.19-31.28 173.64-30 174.08-28.71 174.08-27.5L174.08-27.5Q174.08-26.26 173.81-24.99 173.55-23.73 172.91-22.71 172.28-21.69 171.23-21.06 170.18-20.42 168.65-20.42L168.65-20.42Q167.11-20.42 166.23-20.98 165.34-21.54 164.89-22.32 164.43-23.11 164.3-23.95 164.16-24.79 164.16-25.38L164.16-25.38Q164.16-25.79 164.31-26.31 164.46-26.82 164.75-27.36 165.05-27.89 165.49-28.4 165.93-28.92 166.52-29.36L166.52-29.36Q166.35-29.42 166.16-29.45 165.96-29.48 165.79-29.48L165.79-29.48Q164.31-29.48 163.16-28.55 162.01-27.62 161.17-25.97 160.33-24.32 159.78-22.07 159.24-19.83 158.97-17.17L158.97-17.17Q159.12-12.6 159.38-8.12 159.65-3.63 159.94 1.21ZM184.64-41.4L184.64-41.4Q184.64-40.46 184.29-39.62 183.94-38.78 183.32-38.16 182.7-37.54 181.85-37.17 181.01-36.8 180.07-36.8L180.07-36.8Q179.12-36.8 178.28-37.17 177.44-37.54 176.82-38.16 176.2-38.78 175.83-39.62 175.47-40.46 175.47-41.4L175.47-41.4Q175.47-42.35 175.83-43.19 176.2-44.03 176.82-44.65 177.44-45.27 178.28-45.64 179.12-46.01 180.07-46.01L180.07-46.01Q181.01-46.01 181.85-45.64 182.7-45.27 183.32-44.65 183.94-44.03 184.29-43.19 184.64-42.35 184.64-41.4ZM175.94-32.34L184.64-32.46Q184.41-30.13 184.24-27.43 184.08-24.73 183.98-21.9 183.88-19.06 183.82-16.2 183.76-13.34 183.73-10.74 183.7-8.14 183.68-5.89 183.67-3.63 183.67-2.01L183.67-2.01 183.67 1.33 176.97 1.56Q177.03-0.47 177.03-2.39 177.03-4.31 177.03-6.23L177.03-6.23Q177.03-9.56 176.97-12.73 176.91-15.91 176.78-19.09 176.65-22.28 176.44-25.56 176.23-28.83 175.94-32.34L175.94-32.34ZM195.47 11.98L187.56 11.83Q187.92 7.58 188.17 3.48 188.42-0.62 188.6-4.65 188.77-8.68 188.86-12.69 188.95-16.7 188.95-20.8L188.95-20.8Q188.95-26.26 188.77-32.08L188.77-32.08 195.47-32.17 195.3-28.89Q196.57-31.37 198.25-32.76 199.93-34.14 201.76-34.14L201.76-34.14Q203.97-34.14 205.7-33.18 207.42-32.22 208.61-30.16 209.79-28.09 210.41-24.89 211.03-21.69 211.03-17.17L211.03-17.17Q211.03-12.01 210.17-8.48 209.31-4.96 207.9-2.79 206.48-0.62 204.7 0.32 202.91 1.27 201.05 1.27L201.05 1.27Q200.08 1.18 199.04 0.8L199.04 0.8Q198.16 0.47 197.08-0.25 196-0.97 194.94-2.3L194.94-2.3Q195 1.21 195.12 4.75 195.24 8.29 195.47 11.98L195.47 11.98ZM194.88-8.76L194.88-8.23Q195.18-7.67 195.59-7.04 196-6.4 196.49-5.86 196.98-5.31 197.54-4.96 198.1-4.6 198.75-4.6L198.75-4.6Q199.63-4.6 200.5-5.33 201.38-6.05 202.05-7.6 202.73-9.15 203.16-11.61 203.59-14.08 203.59-17.53L203.59-17.53Q203.59-20.36 203.31-22.41 203.03-24.46 202.56-25.81 202.08-27.15 201.43-27.78 200.79-28.42 200.08-28.42L200.08-28.42Q199.49-28.42 198.93-27.99 198.37-27.56 197.85-26.9 197.33-26.23 196.89-25.39 196.45-24.55 196.08-23.74 195.71-22.93 195.44-22.22 195.18-21.51 195.06-21.1L195.06-21.1Q194.97-17.94 194.93-14.9 194.88-11.86 194.88-8.76L194.88-8.76ZM217.55-44.74L225.04-44.86Q224.81-41.82 224.66-38.88 224.51-35.94 224.36-32.99L224.36-32.99Q225.66-33.05 226.93-33.1 228.2-33.14 229.53-33.23L229.53-33.23 229.65-25.67Q228.23-25.91 226.84-26.06 225.46-26.2 224.13-26.29L224.13-26.29Q224.04-23.78 224.02-21.34 224.01-18.89 224.01-16.38L224.01-16.38Q224.01-11.89 224.11-7.47 224.22-3.04 224.45 1.45L224.45 1.45 216.75 1.33Q217.13-5.61 217.38-12.53 217.64-19.45 217.72-26.47L217.72-26.47Q216.48-26.41 215.25-26.34 214.01-26.26 212.71-26.18L212.71-26.18 212.94-33.17Q214.15-33.08 215.35-33.04 216.54-32.99 217.72-32.93L217.72-32.93Q217.72-35.88 217.66-38.82 217.61-41.76 217.55-44.74L217.55-44.74Z" transform="translate(-0.30000001192092896, 46.0099983215332)"></path></g> <!----> <!----> <!----> <!----> <!----> <!----> <!----></g></g> <!----></g></g></g><mask id="956ec620-9a3b-4858-88c4-0fd1fc83df88"><g fill="white"><rect data-gra="graph-name-bg" stroke-width="2" class="i-icon-bg" x="0" y="0" width="249.34999084472656" height="77.98999786376953"></rect>   </g> <g transform="translate(10,10)" fill="black"><g data-gra="path-name" fill-rule="" class="tp-name"><g transform="scale(1)"><g><path d="M24.05-42.38L24.05-42.38Q23.81-39.16 23.67-36.74 23.52-34.32 23.45-32.45 23.37-30.57 23.36-29.13 23.34-27.68 23.37-26.38 23.4-25.08 23.46-23.8 23.52-22.52 23.56-21.01 23.61-19.51 23.65-17.63 23.7-15.76 23.7-13.25L23.7-13.25Q23.7-10.3 23.11-7.55 22.52-4.81 21.1-2.7 19.68-0.59 17.29 0.68 14.9 1.95 11.3 1.95L11.3 1.95Q9.18 1.95 7.54 1.45 5.9 0.94 4.68 0.09 3.45-0.77 2.61-1.92 1.77-3.07 1.25-4.35 0.74-5.64 0.52-6.98 0.3-8.32 0.3-9.56L0.3-9.56Q0.3-11.21 0.84-12.31 1.39-13.4 2.17-14.05 2.95-14.7 3.79-14.96 4.63-15.23 5.25-15.23L5.25-15.23Q5.9-15.23 6.77-14.98 7.64-14.73 8.44-14.12 9.24-13.52 9.78-12.54 10.33-11.57 10.33-10.15L10.33-10.15Q10.27-9.06 9.86-8.12L9.86-8.12Q9.5-7.32 8.75-6.54 8-5.75 6.58-5.43L6.58-5.43Q7.11-4.57 7.78-4.06 8.44-3.54 9.13-3.28 9.83-3.01 10.45-2.92 11.07-2.83 11.48-2.83L11.48-2.83Q13.04-2.83 13.99-3.47 14.93-4.1 15.43-5.24 15.94-6.37 16.1-7.89 16.26-9.41 16.26-11.18L16.26-11.18Q16.26-15.2 16.25-19.14 16.23-23.08 16.14-26.94 16.05-30.81 15.85-34.64 15.64-38.48 15.23-42.26L15.23-42.26Q15.55-42.2 16.05-42.14L16.05-42.14Q16.85-42.05 18.5-42.05L18.5-42.05Q19.54-42.05 20.92-42.11 22.31-42.17 24.05-42.38ZM48.96 0.8L42.14 1.21Q41.96 0.3 41.82-0.65 41.67-1.59 41.58-2.6L41.58-2.6Q40.22-0.59 38.33 0.49 36.44 1.56 34.2 1.56L34.2 1.56Q33.05 1.56 31.84 1.2 30.63 0.83 29.64-0.09 28.65-1 28.02-2.58 27.39-4.16 27.39-6.58L27.39-6.58Q27.39-8.59 27.98-10.08 28.57-11.57 29.51-12.69 30.45-13.81 31.63-14.64 32.81-15.46 33.98-16.11 35.15-16.76 36.21-17.32 37.27-17.88 37.95-18.44L37.95-18.44Q39.25-19.48 40.21-20.64 41.17-21.81 41.76-23.08L41.76-23.08Q41.64-25.11 41.33-26.43 41.02-27.74 40.52-28.52 40.02-29.3 39.29-29.61 38.57-29.92 37.65-29.92L37.65-29.92Q36.3-29.92 35.37-29.33 34.44-28.74 33.85-27.92L33.85-27.92Q34.59-27.44 34.98-26.91 35.38-26.38 35.59-25.88L35.59-25.88Q35.82-25.32 35.85-24.73L35.85-24.73Q35.85-22.72 34.72-21.66 33.58-20.6 31.81-20.6L31.81-20.6Q30.9-20.6 30.13-21.03 29.36-21.45 28.79-22.22 28.21-22.99 27.89-24.05 27.56-25.11 27.56-26.35L27.56-26.35Q27.56-27.59 28.12-28.98 28.68-30.37 29.92-31.56 31.16-32.76 33.11-33.54 35.06-34.32 37.83-34.32L37.83-34.32Q40.61-34.32 42.58-33.24 44.56-32.17 45.83-30.38 47.1-28.6 47.67-26.26 48.25-23.93 48.25-21.45L48.25-21.45Q48.25-19.59 48.22-17.41 48.19-15.23 48.19-12.93L48.19-12.93Q48.19-11.01 48.22-9.09 48.25-7.17 48.34-5.39 48.43-3.6 48.57-2.02 48.72-0.44 48.96 0.8L48.96 0.8ZM41.46-9.8L41.7-16.08Q40.66-14.84 39.48-13.96L39.48-13.96Q38.6-13.34 37.58-12.57 36.56-11.8 35.69-10.95 34.82-10.09 34.25-9.16 33.67-8.23 33.67-7.26L33.67-7.26Q33.67-5.93 34.32-4.99 34.97-4.04 36.15-4.04L36.15-4.04Q37.24-4.04 38.1-4.63 38.95-5.22 39.62-6.09 40.28-6.96 40.74-7.97 41.2-8.97 41.46-9.8L41.46-9.8ZM66.22-32.87L75.34-32.76Q73.92-28.36 72.68-24.23 71.44-20.1 70.35-15.98 69.26-11.86 68.29-7.67 67.31-3.48 66.46 1.03L66.46 1.03 57.93 1.21Q57.13-3.19 56.32-7.3 55.51-11.42 54.61-15.49 53.71-19.57 52.7-23.7 51.7-27.83 50.55-32.22L50.55-32.22 59.02-32.58Q59.7-26.26 60.52-19.68 61.35-13.1 62.47-6.76L62.47-6.76Q63.92-13.16 64.82-19.82 65.72-26.47 66.22-32.87L66.22-32.87ZM97.56 0.8L90.74 1.21Q90.57 0.3 90.42-0.65 90.27-1.59 90.18-2.6L90.18-2.6Q88.82-0.59 86.94 0.49 85.05 1.56 82.8 1.56L82.8 1.56Q81.65 1.56 80.44 1.2 79.23 0.83 78.25-0.09 77.26-1 76.62-2.58 75.99-4.16 75.99-6.58L75.99-6.58Q75.99-8.59 76.58-10.08 77.17-11.57 78.11-12.69 79.06-13.81 80.24-14.64 81.42-15.46 82.58-16.11 83.75-16.76 84.81-17.32 85.87-17.88 86.55-18.44L86.55-18.44Q87.85-19.48 88.81-20.64 89.77-21.81 90.36-23.08L90.36-23.08Q90.24-25.11 89.93-26.43 89.62-27.74 89.12-28.52 88.62-29.3 87.9-29.61 87.17-29.92 86.26-29.92L86.26-29.92Q84.9-29.92 83.97-29.33 83.04-28.74 82.45-27.92L82.45-27.92Q83.19-27.44 83.59-26.91 83.99-26.38 84.19-25.88L84.19-25.88Q84.43-25.32 84.46-24.73L84.46-24.73Q84.46-22.72 83.32-21.66 82.19-20.6 80.41-20.6L80.41-20.6Q79.5-20.6 78.73-21.03 77.97-21.45 77.39-22.22 76.81-22.99 76.49-24.05 76.16-25.11 76.16-26.35L76.16-26.35Q76.16-27.59 76.73-28.98 77.29-30.37 78.53-31.56 79.77-32.76 81.71-33.54 83.66-34.32 86.43-34.32L86.43-34.32Q89.21-34.32 91.19-33.24 93.16-32.17 94.43-30.38 95.7-28.6 96.28-26.26 96.85-23.93 96.85-21.45L96.85-21.45Q96.85-19.59 96.82-17.41 96.79-15.23 96.79-12.93L96.79-12.93Q96.79-11.01 96.82-9.09 96.85-7.17 96.94-5.39 97.03-3.6 97.18-2.02 97.32-0.44 97.56 0.8L97.56 0.8ZM90.06-9.8L90.3-16.08Q89.27-14.84 88.09-13.96L88.09-13.96Q87.2-13.34 86.18-12.57 85.17-11.8 84.29-10.95 83.42-10.09 82.85-9.16 82.27-8.23 82.27-7.26L82.27-7.26Q82.27-5.93 82.92-4.99 83.57-4.04 84.75-4.04L84.75-4.04Q85.84-4.04 86.7-4.63 87.56-5.22 88.22-6.09 88.88-6.96 89.34-7.97 89.8-8.97 90.06-9.8L90.06-9.8ZM124.44-10.15L124.44-10.15Q124.15-6.82 122.92-4.62 121.7-2.42 119.93-1.11 118.16 0.21 116.02 0.74 113.88 1.27 111.75 1.27L111.75 1.27Q109.54 1.27 107.49 0.66 105.44 0.06 103.87-1.15 102.31-2.36 101.38-4.19 100.45-6.02 100.45-8.47L100.45-8.47Q100.45-10.36 101.03-11.63 101.6-12.9 102.46-13.66 103.31-14.43 104.29-14.74 105.26-15.05 106.09-15.05L106.09-15.05Q106.94-15.05 107.86-14.78 108.77-14.52 109.54-13.9 110.31-13.28 110.79-12.23 111.28-11.18 111.28-9.62L111.28-9.62Q111.28-9.59 111.24-9.07 111.19-8.56 110.9-7.89 110.6-7.23 110-6.6 109.39-5.96 108.24-5.7L108.24-5.7Q109.07-4.66 110.18-4.15 111.28-3.63 112.05-3.63L112.05-3.63Q112.82-3.63 113.8-3.9 114.79-4.16 115.66-4.8 116.53-5.43 117.14-6.48 117.74-7.53 117.74-9.12L117.74-9.12Q117.74-10.98 117.11-12.42 116.48-13.87 115.49-14.98 114.5-16.08 113.27-16.92 112.05-17.76 110.9-18.44L110.9-18.44Q110.13-18.89 109.07-19.49 108.01-20.1 106.86-20.94 105.7-21.78 104.58-22.86 103.46-23.93 102.56-25.3 101.66-26.68 101.12-28.36 100.57-30.04 100.57-32.08L100.57-32.08Q100.57-35.12 101.63-37.4 102.69-39.69 104.39-41.23 106.09-42.76 108.24-43.53 110.4-44.29 112.61-44.29L112.61-44.29Q114.82-44.29 116.83-43.69 118.84-43.08 120.36-41.95 121.88-40.81 122.78-39.23 123.68-37.65 123.68-35.71L123.68-35.71Q123.68-33.73 123.03-32.58 122.38-31.43 121.48-30.84 120.58-30.25 119.65-30.09 118.72-29.92 118.16-29.92L118.16-29.92Q117.45-29.92 116.68-30.19 115.91-30.45 115.28-30.99 114.65-31.52 114.23-32.28 113.82-33.05 113.82-34.08L113.82-34.08Q113.85-34.73 113.97-35.38L113.97-35.38Q114.09-35.94 114.32-36.59 114.56-37.24 115.03-37.83L115.03-37.83Q114.56-38.24 114.11-38.48 113.67-38.72 113.29-38.84L113.29-38.84Q112.85-38.95 112.43-38.98L112.43-38.98Q111.61-38.98 110.77-38.69 109.92-38.39 109.23-37.8 108.54-37.21 108.09-36.31 107.65-35.41 107.65-34.2L107.65-34.2Q107.65-32.79 108.09-31.65 108.54-30.51 109.48-29.45 110.43-28.39 111.89-27.3 113.35-26.2 115.38-24.91L115.38-24.91Q117.77-23.4 119.5-21.9 121.23-20.39 122.33-18.8 123.44-17.2 123.97-15.45 124.5-13.69 124.5-11.66L124.5-11.66Q124.5-11.3 124.5-10.93 124.5-10.56 124.44-10.15ZM149.29-25.08L149.29-25.08Q149.29-23.05 148.74-21.85 148.2-20.66 147.45-20.05 146.69-19.45 145.91-19.27 145.13-19.09 144.63-19.09L144.63-19.09Q144.13-19.09 143.42-19.26 142.71-19.42 142.05-19.9 141.38-20.39 140.92-21.29 140.47-22.19 140.47-23.64L140.47-23.64Q140.5-24.43 140.76-25.2L140.76-25.2Q141-25.85 141.47-26.53 141.94-27.21 142.83-27.68L142.83-27.68Q142.33-28.8 141.72-29.39 141.12-29.98 140.56-30.28L140.56-30.28Q139.91-30.6 139.26-30.69L139.26-30.69Q138.17-30.69 137.28-29.69 136.39-28.68 135.77-26.87 135.16-25.05 134.82-22.52 134.48-19.98 134.48-16.91L134.48-16.91Q134.48-13.87 134.7-11.23 134.92-8.59 135.42-6.62 135.92-4.66 136.78-3.54 137.63-2.42 138.9-2.42L138.9-2.42Q139.58-2.45 140.26-2.74L140.26-2.74Q140.85-2.98 141.51-3.53 142.18-4.07 142.71-5.08L142.71-5.08Q141.68-5.58 141.13-6.3 140.59-7.02 140.35-7.7L140.35-7.7Q140.05-8.5 140.02-9.35L140.02-9.35Q140.02-10.77 140.59-11.66 141.15-12.54 141.91-13.06 142.68-13.57 143.48-13.77 144.27-13.96 144.75-13.96L144.75-13.96Q145.25-13.96 145.99-13.75 146.72-13.55 147.4-12.95 148.08-12.36 148.57-11.29 149.05-10.21 149.05-8.47L149.05-8.47Q149.05-6.73 148.21-4.87 147.37-3.01 145.94-1.48 144.51 0.06 142.64 1.03 140.76 2.01 138.7 2.01L138.7 2.01Q137.31 2.01 135.89 1.62 134.48 1.24 133.18 0.35 131.88-0.53 130.73-1.98 129.58-3.42 128.74-5.52 127.9-7.61 127.41-10.43 126.92-13.25 126.92-16.91L126.92-16.91Q126.92-20.57 127.45-23.33 127.98-26.09 128.91-28.06 129.84-30.04 131.05-31.34 132.26-32.64 133.64-33.41 135.01-34.17 136.45-34.47 137.9-34.76 139.26-34.76L139.26-34.76Q141.26-34.76 143.09-34.01 144.92-33.26 146.3-31.94 147.67-30.63 148.48-28.86 149.29-27.09 149.29-25.08ZM159.94 1.21L159.94 1.21 152.06 1.8Q152.54-3.48 152.76-8.4 152.98-13.31 152.98-18.24L152.98-18.24Q152.98-21.72 152.88-25.22 152.77-28.71 152.51-32.4L152.51-32.4 159.15-32.76Q159.09-32.11 159.06-31.49 159.03-30.87 159.03-30.28L159.03-30.28Q160.06-31.87 161.29-32.77 162.51-33.67 163.57-34.08L163.57-34.08Q164.78-34.59 166.02-34.7L166.02-34.7Q168.18-34.7 169.71-34.04 171.25-33.38 172.22-32.33 173.19-31.28 173.64-30 174.08-28.71 174.08-27.5L174.08-27.5Q174.08-26.26 173.81-24.99 173.55-23.73 172.91-22.71 172.28-21.69 171.23-21.06 170.18-20.42 168.65-20.42L168.65-20.42Q167.11-20.42 166.23-20.98 165.34-21.54 164.89-22.32 164.43-23.11 164.3-23.95 164.16-24.79 164.16-25.38L164.16-25.38Q164.16-25.79 164.31-26.31 164.46-26.82 164.75-27.36 165.05-27.89 165.49-28.4 165.93-28.92 166.52-29.36L166.52-29.36Q166.35-29.42 166.16-29.45 165.96-29.48 165.79-29.48L165.79-29.48Q164.31-29.48 163.16-28.55 162.01-27.62 161.17-25.97 160.33-24.32 159.78-22.07 159.24-19.83 158.97-17.17L158.97-17.17Q159.12-12.6 159.38-8.12 159.65-3.63 159.94 1.21ZM184.64-41.4L184.64-41.4Q184.64-40.46 184.29-39.62 183.94-38.78 183.32-38.16 182.7-37.54 181.85-37.17 181.01-36.8 180.07-36.8L180.07-36.8Q179.12-36.8 178.28-37.17 177.44-37.54 176.82-38.16 176.2-38.78 175.83-39.62 175.47-40.46 175.47-41.4L175.47-41.4Q175.47-42.35 175.83-43.19 176.2-44.03 176.82-44.65 177.44-45.27 178.28-45.64 179.12-46.01 180.07-46.01L180.07-46.01Q181.01-46.01 181.85-45.64 182.7-45.27 183.32-44.65 183.94-44.03 184.29-43.19 184.64-42.35 184.64-41.4ZM175.94-32.34L184.64-32.46Q184.41-30.13 184.24-27.43 184.08-24.73 183.98-21.9 183.88-19.06 183.82-16.2 183.76-13.34 183.73-10.74 183.7-8.14 183.68-5.89 183.67-3.63 183.67-2.01L183.67-2.01 183.67 1.33 176.97 1.56Q177.03-0.47 177.03-2.39 177.03-4.31 177.03-6.23L177.03-6.23Q177.03-9.56 176.97-12.73 176.91-15.91 176.78-19.09 176.65-22.28 176.44-25.56 176.23-28.83 175.94-32.34L175.94-32.34ZM195.47 11.98L187.56 11.83Q187.92 7.58 188.17 3.48 188.42-0.62 188.6-4.65 188.77-8.68 188.86-12.69 188.95-16.7 188.95-20.8L188.95-20.8Q188.95-26.26 188.77-32.08L188.77-32.08 195.47-32.17 195.3-28.89Q196.57-31.37 198.25-32.76 199.93-34.14 201.76-34.14L201.76-34.14Q203.97-34.14 205.7-33.18 207.42-32.22 208.61-30.16 209.79-28.09 210.41-24.89 211.03-21.69 211.03-17.17L211.03-17.17Q211.03-12.01 210.17-8.48 209.31-4.96 207.9-2.79 206.48-0.62 204.7 0.32 202.91 1.27 201.05 1.27L201.05 1.27Q200.08 1.18 199.04 0.8L199.04 0.8Q198.16 0.47 197.08-0.25 196-0.97 194.94-2.3L194.94-2.3Q195 1.21 195.12 4.75 195.24 8.29 195.47 11.98L195.47 11.98ZM194.88-8.76L194.88-8.23Q195.18-7.67 195.59-7.04 196-6.4 196.49-5.86 196.98-5.31 197.54-4.96 198.1-4.6 198.75-4.6L198.75-4.6Q199.63-4.6 200.5-5.33 201.38-6.05 202.05-7.6 202.73-9.15 203.16-11.61 203.59-14.08 203.59-17.53L203.59-17.53Q203.59-20.36 203.31-22.41 203.03-24.46 202.56-25.81 202.08-27.15 201.43-27.78 200.79-28.42 200.08-28.42L200.08-28.42Q199.49-28.42 198.93-27.99 198.37-27.56 197.85-26.9 197.33-26.23 196.89-25.39 196.45-24.55 196.08-23.74 195.71-22.93 195.44-22.22 195.18-21.51 195.06-21.1L195.06-21.1Q194.97-17.94 194.93-14.9 194.88-11.86 194.88-8.76L194.88-8.76ZM217.55-44.74L225.04-44.86Q224.81-41.82 224.66-38.88 224.51-35.94 224.36-32.99L224.36-32.99Q225.66-33.05 226.93-33.1 228.2-33.14 229.53-33.23L229.53-33.23 229.65-25.67Q228.23-25.91 226.84-26.06 225.46-26.2 224.13-26.29L224.13-26.29Q224.04-23.78 224.02-21.34 224.01-18.89 224.01-16.38L224.01-16.38Q224.01-11.89 224.11-7.47 224.22-3.04 224.45 1.45L224.45 1.45 216.75 1.33Q217.13-5.61 217.38-12.53 217.64-19.45 217.72-26.47L217.72-26.47Q216.48-26.41 215.25-26.34 214.01-26.26 212.71-26.18L212.71-26.18 212.94-33.17Q214.15-33.08 215.35-33.04 216.54-32.99 217.72-32.93L217.72-32.93Q217.72-35.88 217.66-38.82 217.61-41.76 217.55-44.74L217.55-44.74Z" transform="translate(-0.30000001192092896, 46.0099983215332)"></path></g>       </g></g> </g></mask><defs v-gra="od"><linearGradient x1="0" y1="1" x2="1" y2="0" id="03bd17fd-d1f4-4743-b030-4faf8ce1ea5c"><stop offset="0%" stop-color="#ff51f9"></stop><stop offset="50%" stop-color="#488eff"></stop><stop offset="100%" stop-color="#ffff39"></stop></linearGradient><filter id="42443b3f1de60f6b6fd3b6a9844b4764" filterUnits="objectBoundingBox"><feColorMatrix type="matrix" values="0 0 0 0 0.99609375  0 0 0 0 0.99609375  0 0 0 0 0.99609375  0 0 0 1 0"></feColorMatrix></filter></defs></svg>