<svg version="1.0"
  xmlns="http://www.w3.org/2000/svg"
  xmlns:xlink="http://www.w3.org/1999/xlink" width="100%" height="100%" viewBox="0 0 340.000000 250.000000" preserveAspectRatio="xMidYMid meet" color-interpolation-filters="sRGB" style="margin: auto;">
  <rect x="0" y="0" width="100%" height="100%" fill="#8bbf74" fill-opacity="1" class="background"></rect>
  <g fill="#ffffff" class="j-b-g-c iconbgsvg" mask="url(#0ed59e1d-ae9e-4d1d-809b-a62bc73c9ad7)" transform="translate(51.000001124041546,19.118698120117188)">
    <g data-d="container" transform="translate(0,0)">
      <g>
        <rect fill="#ffffff" fill-opacity="0" stroke-width="2" x="0" y="0" width="238.00000000000009" height="211.76260800000009" class="image-rect"></rect>
        <svg filter="url(#colors9419665671)" x="0" y="0" width="238.00000000000009" height="211.76260800000009" filtersec="colorsf1381795808" class="image-svg-container primary" style="overflow: visible;">
          <svg xmlns="http://www.w3.org/2000/svg" viewBox="-0.0092 0.00102 222.23816 197.73753" style="overflow: visible;">
            <g transform="scale(1, 1) skewX(0)">
              <g fill="#66ab65">
                <path d="M209.6 121.14c-7.31 43.91-73.44 97.09-141.47 68.55-50.78-21.3-73.7-69.15-67-113.15S71.35-7 125.67 1.05s93.84 60.63 83.93 120.09z" opacity=".7"></path>
                <path d="M215.44 153.41c-15.5 37.66-100.19 41.13-153 19.5S.26 92.68 15.19 54.78s86-53.5 138.76-31.86 82.49 79.49 61.49 130.49z"></path>
              </g>
            </g>
          </svg>
        </svg>
        <defs>
          <filter id="colors9419665671">
            <feColorMatrix type="matrix" values="0 0 0 0 0.99609375  0 0 0 0 0.99609375  0 0 0 0 0.99609375  0 0 0 1 0" class="icon-fecolormatrix"></feColorMatrix>
          </filter>
          <filter id="colorsf1381795808">
            <feColorMatrix type="matrix" values="0 0 0 0 0.99609375  0 0 0 0 0.99609375  0 0 0 0 0.99609375  0 0 0 1 0" class="icon-fecolormatrix"></feColorMatrix>
          </filter>
          <filter id="colorsb6423327280">
            <feColorMatrix type="matrix" values="0 0 0 0 0  0 0 0 0 0  0 0 0 0 0  0 0 0 1 0" class="icon-fecolormatrix"></feColorMatrix>
          </filter>
        </defs>
      </g>
    </g>
    <g data-d="icon-text" hollow-target="textRect" transform="translate(37.74500274658203,27.5328369140625)">
      <g data-d="icon" class="iconsvg-imagesvg" transform="translate(51.25499725341797,0)">
        <g>
          <svg x="0" y="0" width="60" height="91.06776959854291" filtersec="colorsb9647761579" class="image-svg-svg primary" style="overflow: visible;">
            <svg xmlns="http://www.w3.org/2000/svg" viewBox="0 0 37.30431365966797 56.619998931884766">
              <g>
                <g>
                  <path d="M16.4 0h-2.06v32.37c0 2.78-1.31 5.55-5.79 5.55a23.31 23.31 0 0 1-8.55-2V54c2.62 1.46 7.63 2.62 13.1 2.62q1.68 0 3.3-.12z" fill="#569e45"></path>
                  <path d="M20.43 56c.69-.13 1.37-.29 2-.47V0h-2zM17.4 56.44c.69-.07 1.37-.16 2-.27V0h-2zM23.46 55.22a19.7 19.7 0 0 0 2-.75V0h-2zM32.54 49.27a18.73 18.73 0 0 0 2-3.16V0h-2zM29.51 52.17A19 19 0 0 0 31 51c.2-.18.37-.4.56-.59V0h-2zM35.56 0v43.85a30.67 30.67 0 0 0 1.74-10.71V0zM26.48 54a17.64 17.64 0 0 0 2-1.15V0h-2z" fill="#8bbf74"></path>
                </g>
              </g>
            </svg>
          </svg>
        </g>
      </g>
      <g data-d="text" transform="translate(0,98.06720733642578)">
        <g data-gra="path-name" fill-rule="" class="tp-name iconsvg-namesvg">
          <g transform="scale(1)">
            <g>
              <path d="M15.05 0.59L15.05 0.59Q11.48 0.59 8.29 0.12 5.09-0.35 3.22-0.88L3.22-0.88 3.22-8.67Q4.16-8.32 5.5-8.02 6.85-7.73 8.37-7.52 9.9-7.32 11.51-7.17 13.12-7.03 14.7-7.03L14.7-7.03Q16.69-7.03 18.07-7.26 19.44-7.5 20.29-8.08 21.14-8.67 21.49-9.6 21.84-10.54 21.84-11.89L21.84-11.89Q21.84-13.06 21.55-13.88 21.26-14.7 20.47-15.34 19.68-15.99 18.24-16.51 16.81-17.04 14.46-17.63L14.46-17.63Q11.18-18.39 9.05-19.3 6.91-20.2 5.62-21.52 4.33-22.84 3.81-24.71 3.28-26.59 3.28-29.34L3.28-29.34Q3.28-35.78 7.17-38.5 11.07-41.23 18.15-41.23L18.15-41.23Q21.61-41.23 24.27-40.79 26.94-40.35 28.58-39.76L28.58-39.76 28.58-32.44Q27.82-32.68 26.64-32.94 25.47-33.2 24.07-33.44 22.66-33.67 21.23-33.79 19.79-33.91 18.5-33.91L18.5-33.91Q15.05-33.91 13.5-33.03 11.95-32.15 11.95-29.57L11.95-29.57Q11.95-28.58 12.18-27.87 12.41-27.17 13.15-26.62 13.88-26.06 15.25-25.59 16.63-25.12 18.86-24.6L18.86-24.6Q22.49-23.72 24.8-22.63 27.11-21.55 28.43-20.06 29.75-18.56 30.22-16.54 30.69-14.52 30.69-11.65L30.69-11.65Q30.69-5.68 27.05-2.55 23.42 0.59 15.05 0.59ZM53.82-24.95L47.26-24.95 47.26-10.83Q47.26-9.43 47.4-8.55 47.55-7.67 47.96-7.17 48.37-6.68 49.07-6.47 49.78-6.27 50.89-6.27L50.89-6.27Q52.41-6.27 53.41-6.5L53.41-6.5 53.41 0.06Q52.47 0.18 51.42 0.26 50.36 0.35 49.31 0.35L49.31 0.35Q46.38 0.35 44.36-0.12 42.34-0.59 41.11-1.76 39.88-2.93 39.32-4.98 38.77-7.03 38.77-10.13L38.77-10.13 38.77-24.95 34.61-24.95 34.61-31.62 38.77-31.62 38.77-39.12 47.26-39.12 47.26-31.62 53.82-31.62 53.82-24.95ZM76.77-32.21L77.42-32.21 77.18-24.65 76.36-24.65Q74.9-24.65 73.46-24.33 72.03-24.01 70.86-23.25 69.69-22.49 68.81-21.2 67.93-19.91 67.58-17.98L67.58-17.98 67.58 0 59.09 0 59.09-31.62 67.58-31.62 67.58-25.94Q68.28-27.87 69.31-29.1 70.33-30.33 71.5-31.04 72.67-31.74 74.02-31.97 75.37-32.21 76.77-32.21L76.77-32.21ZM86.67-36.01L86.67-36.01Q85.26-36.01 84.33-36.16 83.39-36.31 82.86-36.78 82.34-37.24 82.13-38.12 81.93-39 81.93-40.52L81.93-40.52Q81.93-41.99 82.13-42.87 82.34-43.74 82.86-44.21 83.39-44.68 84.33-44.8 85.26-44.92 86.67-44.92L86.67-44.92Q88.13-44.92 89.04-44.8 89.95-44.68 90.48-44.21 91-43.74 91.21-42.87 91.41-41.99 91.41-40.52L91.41-40.52Q91.41-39 91.21-38.12 91-37.24 90.48-36.78 89.95-36.31 89.04-36.16 88.13-36.01 86.67-36.01ZM82.39 0L82.39-31.62 90.89-31.62 90.89 0 82.39 0ZM117.71-32.21L117.71-32.21Q120.63-32.21 122.65-31.53 124.67-30.86 125.9-29.51 127.13-28.17 127.66-26.21 128.19-24.24 128.19-21.61L128.19-21.61 128.19 0 119.7 0 119.7-19.38Q119.7-20.96 119.46-22.11 119.23-23.25 118.67-23.95 118.12-24.65 117.12-24.98 116.12-25.3 114.54-25.3L114.54-25.3Q111.91-25.3 110.21-24.36 108.51-23.42 107.81-20.96L107.81-20.96 107.81 0 99.32 0 99.32-31.62 107.81-31.62 107.81-27.82Q109.1-30.04 111.67-31.12 114.25-32.21 117.71-32.21ZM157.29-31.62L165.73-31.62 165.73-2.46Q165.73 0.82 164.85 3.43 163.97 6.03 161.89 7.88 159.81 9.72 156.47 10.72 153.13 11.71 148.22 11.71L148.22 11.71Q146.05 11.71 143.59 11.51 141.13 11.3 139.2 10.95L139.2 10.95 139.2 4.22Q141.07 4.68 143.3 4.92 145.52 5.15 147.57 5.15L147.57 5.15Q150.15 5.15 151.99 4.74 153.84 4.33 155.01 3.43 156.18 2.52 156.74 1 157.29-0.53 157.29-2.81L157.29-2.81 157.29-4.51Q156.3-2.4 154.16-1.2 152.02 0 147.75 0L147.75 0Q143.88 0 141.42-1.17 138.96-2.34 137.5-4.45 136.04-6.56 135.48-9.52 134.92-12.47 134.92-16.1L134.92-16.1Q134.92-19.32 135.48-22.25 136.04-25.18 137.5-27.41 138.96-29.63 141.42-30.92 143.88-32.21 147.75-32.21L147.75-32.21Q152.08-32.21 154.22-31.01 156.36-29.81 157.29-27.58L157.29-27.58 157.29-31.62ZM150.27-6.21L150.27-6.21Q152.61-6.21 154.07-6.88 155.54-7.55 156.36-8.81 157.18-10.07 157.44-11.92 157.7-13.76 157.7-16.1L157.7-16.1Q157.7-18.39 157.44-20.17 157.18-21.96 156.36-23.25 155.54-24.54 154.07-25.21 152.61-25.88 150.27-25.88L150.27-25.88Q148.04-25.88 146.72-25.06 145.4-24.24 144.73-22.9 144.06-21.55 143.85-19.79 143.65-18.04 143.65-16.1L143.65-16.1Q143.65-14.05 143.85-12.27 144.06-10.48 144.76-9.14 145.46-7.79 146.78-7 148.1-6.21 150.27-6.21Z" transform="translate(-3.2200000286102295, 44.91999816894531)"></path>
            </g>
          </g>
        </g>
      </g>
    </g>
  </g>
  <defs>
    <filter id="3fbf8bf4-77b9-4480-bbf1-72e11d6e14c4">
      <feColorMatrix type="matrix" values="0 0 0 0 0  0 0 0 0 0  0 0 0 0 0  0 0 0 1 0"></feColorMatrix>
    </filter>
    <filter id="d87fb15d-9e19-459f-b4bc-c957407e84dc">
      <feColorMatrix type="matrix" values="0 0 0 0 0.99609375  0 0 0 0 0.99609375  0 0 0 0 0.99609375  0 0 0 1 0"></feColorMatrix>
    </filter>
  </defs>
  <mask id="0ed59e1d-ae9e-4d1d-809b-a62bc73c9ad7">
    <g fill="#ffffff" class="j-b-g-c iconbgsvg">
      <g data-d="container" transform="translate(0,0)">
        <g>
          <rect fill="#ffffff" fill-opacity="0" stroke-width="2" x="0" y="0" width="238.00000000000009" height="211.76260800000009" class="image-rect" stroke="#000"></rect>
          <svg filter="url(#d87fb15d-9e19-459f-b4bc-c957407e84dc)" x="0" y="0" width="238.00000000000009" height="211.76260800000009" filtersec="colorsf1381795808" class="image-svg-container primary" style="overflow: visible;">
            <svg xmlns="http://www.w3.org/2000/svg" viewBox="-0.0092 0.00102 222.23816 197.73753" style="overflow: visible;">
              <g transform="scale(1, 1) skewX(0)">
                <g fill="#66ab65">
                  <path d="M209.6 121.14c-7.31 43.91-73.44 97.09-141.47 68.55-50.78-21.3-73.7-69.15-67-113.15S71.35-7 125.67 1.05s93.84 60.63 83.93 120.09z" opacity=".7"></path>
                  <path d="M215.44 153.41c-15.5 37.66-100.19 41.13-153 19.5S.26 92.68 15.19 54.78s86-53.5 138.76-31.86 82.49 79.49 61.49 130.49z"></path>
                </g>
              </g>
            </svg>
          </svg>
          <defs>
            <filter id="colors9419665671">
              <feColorMatrix type="matrix" values="0 0 0 0 0.99609375  0 0 0 0 0.99609375  0 0 0 0 0.99609375  0 0 0 1 0" class="icon-fecolormatrix"></feColorMatrix>
            </filter>
            <filter id="colorsf1381795808">
              <feColorMatrix type="matrix" values="0 0 0 0 0.99609375  0 0 0 0 0.99609375  0 0 0 0 0.99609375  0 0 0 1 0" class="icon-fecolormatrix"></feColorMatrix>
            </filter>
            <filter id="colorsb6423327280">
              <feColorMatrix type="matrix" values="0 0 0 0 0  0 0 0 0 0  0 0 0 0 0  0 0 0 1 0" class="icon-fecolormatrix"></feColorMatrix>
            </filter>
          </defs>
        </g>
      </g>
      <g data-d="icon-text" hollow-target="textRect" transform="translate(37.74500274658203,27.5328369140625)" filter="url(#3fbf8bf4-77b9-4480-bbf1-72e11d6e14c4)">
        <g data-d="icon" class="iconsvg-imagesvg" transform="translate(51.25499725341797,0)">
          <g>
            <svg x="0" y="0" width="60" height="91.06776959854291" filtersec="colorsb9647761579" class="image-svg-svg primary" style="overflow: visible;">
              <svg xmlns="http://www.w3.org/2000/svg" viewBox="0 0 37.30431365966797 56.619998931884766" style="overflow: visible;">
                <g>
                  <g>
                    <path d="M16.4 0h-2.06v32.37c0 2.78-1.31 5.55-5.79 5.55a23.31 23.31 0 0 1-8.55-2V54c2.62 1.46 7.63 2.62 13.1 2.62q1.68 0 3.3-.12z" fill="#569e45"></path>
                    <path d="M20.43 56c.69-.13 1.37-.29 2-.47V0h-2zM17.4 56.44c.69-.07 1.37-.16 2-.27V0h-2zM23.46 55.22a19.7 19.7 0 0 0 2-.75V0h-2zM32.54 49.27a18.73 18.73 0 0 0 2-3.16V0h-2zM29.51 52.17A19 19 0 0 0 31 51c.2-.18.37-.4.56-.59V0h-2zM35.56 0v43.85a30.67 30.67 0 0 0 1.74-10.71V0zM26.48 54a17.64 17.64 0 0 0 2-1.15V0h-2z" fill="#8bbf74"></path>
                  </g>
                </g>
              </svg>
            </svg>
          </g>
        </g>
        <g data-d="text" transform="translate(0,98.06720733642578)">
          <g data-gra="path-name" fill-rule="" class="tp-name iconsvg-namesvg">
            <g transform="scale(1)">
              <g>
                <path d="M15.05 0.59L15.05 0.59Q11.48 0.59 8.29 0.12 5.09-0.35 3.22-0.88L3.22-0.88 3.22-8.67Q4.16-8.32 5.5-8.02 6.85-7.73 8.37-7.52 9.9-7.32 11.51-7.17 13.12-7.03 14.7-7.03L14.7-7.03Q16.69-7.03 18.07-7.26 19.44-7.5 20.29-8.08 21.14-8.67 21.49-9.6 21.84-10.54 21.84-11.89L21.84-11.89Q21.84-13.06 21.55-13.88 21.26-14.7 20.47-15.34 19.68-15.99 18.24-16.51 16.81-17.04 14.46-17.63L14.46-17.63Q11.18-18.39 9.05-19.3 6.91-20.2 5.62-21.52 4.33-22.84 3.81-24.71 3.28-26.59 3.28-29.34L3.28-29.34Q3.28-35.78 7.17-38.5 11.07-41.23 18.15-41.23L18.15-41.23Q21.61-41.23 24.27-40.79 26.94-40.35 28.58-39.76L28.58-39.76 28.58-32.44Q27.82-32.68 26.64-32.94 25.47-33.2 24.07-33.44 22.66-33.67 21.23-33.79 19.79-33.91 18.5-33.91L18.5-33.91Q15.05-33.91 13.5-33.03 11.95-32.15 11.95-29.57L11.95-29.57Q11.95-28.58 12.18-27.87 12.41-27.17 13.15-26.62 13.88-26.06 15.25-25.59 16.63-25.12 18.86-24.6L18.86-24.6Q22.49-23.72 24.8-22.63 27.11-21.55 28.43-20.06 29.75-18.56 30.22-16.54 30.69-14.52 30.69-11.65L30.69-11.65Q30.69-5.68 27.05-2.55 23.42 0.59 15.05 0.59ZM53.82-24.95L47.26-24.95 47.26-10.83Q47.26-9.43 47.4-8.55 47.55-7.67 47.96-7.17 48.37-6.68 49.07-6.47 49.78-6.27 50.89-6.27L50.89-6.27Q52.41-6.27 53.41-6.5L53.41-6.5 53.41 0.06Q52.47 0.18 51.42 0.26 50.36 0.35 49.31 0.35L49.31 0.35Q46.38 0.35 44.36-0.12 42.34-0.59 41.11-1.76 39.88-2.93 39.32-4.98 38.77-7.03 38.77-10.13L38.77-10.13 38.77-24.95 34.61-24.95 34.61-31.62 38.77-31.62 38.77-39.12 47.26-39.12 47.26-31.62 53.82-31.62 53.82-24.95ZM76.77-32.21L77.42-32.21 77.18-24.65 76.36-24.65Q74.9-24.65 73.46-24.33 72.03-24.01 70.86-23.25 69.69-22.49 68.81-21.2 67.93-19.91 67.58-17.98L67.58-17.98 67.58 0 59.09 0 59.09-31.62 67.58-31.62 67.58-25.94Q68.28-27.87 69.31-29.1 70.33-30.33 71.5-31.04 72.67-31.74 74.02-31.97 75.37-32.21 76.77-32.21L76.77-32.21ZM86.67-36.01L86.67-36.01Q85.26-36.01 84.33-36.16 83.39-36.31 82.86-36.78 82.34-37.24 82.13-38.12 81.93-39 81.93-40.52L81.93-40.52Q81.93-41.99 82.13-42.87 82.34-43.74 82.86-44.21 83.39-44.68 84.33-44.8 85.26-44.92 86.67-44.92L86.67-44.92Q88.13-44.92 89.04-44.8 89.95-44.68 90.48-44.21 91-43.74 91.21-42.87 91.41-41.99 91.41-40.52L91.41-40.52Q91.41-39 91.21-38.12 91-37.24 90.48-36.78 89.95-36.31 89.04-36.16 88.13-36.01 86.67-36.01ZM82.39 0L82.39-31.62 90.89-31.62 90.89 0 82.39 0ZM117.71-32.21L117.71-32.21Q120.63-32.21 122.65-31.53 124.67-30.86 125.9-29.51 127.13-28.17 127.66-26.21 128.19-24.24 128.19-21.61L128.19-21.61 128.19 0 119.7 0 119.7-19.38Q119.7-20.96 119.46-22.11 119.23-23.25 118.67-23.95 118.12-24.65 117.12-24.98 116.12-25.3 114.54-25.3L114.54-25.3Q111.91-25.3 110.21-24.36 108.51-23.42 107.81-20.96L107.81-20.96 107.81 0 99.32 0 99.32-31.62 107.81-31.62 107.81-27.82Q109.1-30.04 111.67-31.12 114.25-32.21 117.71-32.21ZM157.29-31.62L165.73-31.62 165.73-2.46Q165.73 0.82 164.85 3.43 163.97 6.03 161.89 7.88 159.81 9.72 156.47 10.72 153.13 11.71 148.22 11.71L148.22 11.71Q146.05 11.71 143.59 11.51 141.13 11.3 139.2 10.95L139.2 10.95 139.2 4.22Q141.07 4.68 143.3 4.92 145.52 5.15 147.57 5.15L147.57 5.15Q150.15 5.15 151.99 4.74 153.84 4.33 155.01 3.43 156.18 2.52 156.74 1 157.29-0.53 157.29-2.81L157.29-2.81 157.29-4.51Q156.3-2.4 154.16-1.2 152.02 0 147.75 0L147.75 0Q143.88 0 141.42-1.17 138.96-2.34 137.5-4.45 136.04-6.56 135.48-9.52 134.92-12.47 134.92-16.1L134.92-16.1Q134.92-19.32 135.48-22.25 136.04-25.18 137.5-27.41 138.96-29.63 141.42-30.92 143.88-32.21 147.75-32.21L147.75-32.21Q152.08-32.21 154.22-31.01 156.36-29.81 157.29-27.58L157.29-27.58 157.29-31.62ZM150.27-6.21L150.27-6.21Q152.61-6.21 154.07-6.88 155.54-7.55 156.36-8.81 157.18-10.07 157.44-11.92 157.7-13.76 157.7-16.1L157.7-16.1Q157.7-18.39 157.44-20.17 157.18-21.96 156.36-23.25 155.54-24.54 154.07-25.21 152.61-25.88 150.27-25.88L150.27-25.88Q148.04-25.88 146.72-25.06 145.4-24.24 144.73-22.9 144.06-21.55 143.85-19.79 143.65-18.04 143.65-16.1L143.65-16.1Q143.65-14.05 143.85-12.27 144.06-10.48 144.76-9.14 145.46-7.79 146.78-7 148.1-6.21 150.27-6.21Z" transform="translate(-3.2200000286102295, 44.91999816894531)"></path>
              </g>
            </g>
          </g>
        </g>
      </g>
    </g>
  </mask>
  <defs v-gra="od"></defs>
</svg>