<svg data-v-0dd9719b="" version="1.0" xmlns="http://www.w3.org/2000/svg" xmlns:xlink="http://www.w3.org/1999/xlink" width="100%" height="100%" viewBox="0 0 340.000000 250.000000" preserveAspectRatio="xMidYMid meet" color-interpolation-filters="sRGB" style="margin: auto;"> <rect data-v-0dd9719b="" x="0" y="0" width="100%" height="100%" fill="#4c33de" fill-opacity="1" class="background"></rect> <g data-v-0dd9719b="" fill="#ffffff" class="j-b-g-c iconbgsvg" transform="translate(81.25999450683594,31.62110137939453)"><g data-d="container" transform="translate(6.4900054931640625,0)"><g mask="url(#70f96621-8da8-4d3a-8929-539fda58d30b)"><rect fill="#ffffff" fill-opacity="0" stroke-width="2" x="0" y="0" width="164.5" height="186.75779" class="image-rect"></rect> <svg filter="url(#colors7671325824)" x="0" y="0" width="164.5" height="186.75779" filtersec="colorsf7573622409" class="image-svg-container primary" style="overflow: visible;"><svg xmlns="http://www.w3.org/2000/svg" viewBox="12.01 6.86865 75.982 86.26266" style="overflow: visible;"><g transform="scale(1, 1) skewX(0)"><path style="text-indent:0;text-transform:none;block-progression:tb" d="M49.932 6.87a1.877 2.131 0 0 0-.772.224l-18.057 10.25-18.057 10.25A1.877 2.131 0 0 0 12.01 29.5v41a1.877 2.131 0 0 0 1.037 1.906l18.057 10.25 18.057 10.25a1.877 2.131 0 0 0 1.68 0l18.056-10.25 18.057-10.25a1.877 2.131 0 0 0 1.038-1.906v-41a1.877 2.131 0 0 0-1.038-1.906l-18.057-10.25L50.84 7.094a1.877 2.131 0 0 0-.907-.224zM50 11.382l17.217 9.774 17.02 9.66v38.368l-17.02 9.66L50 88.618l-17.218-9.774-17.02-9.66V30.817l17.02-9.661L50 11.382z" fill-rule="evenodd" overflow="visible" color="#000" fill="#000000"></path></g></svg></svg> <defs><filter id="colors7671325824"><feColorMatrix type="matrix" values="0 0 0 0 0.96484375  0 0 0 0 0.76171875  0 0 0 0 0.32421875  0 0 0 1 0" class="icon-fecolormatrix"></feColorMatrix></filter> <filter id="colorsf7573622409"><feColorMatrix type="matrix" values="0 0 0 0 0.99609375  0 0 0 0 0.99609375  0 0 0 0 0.99609375  0 0 0 1 0" class="icon-fecolormatrix"></feColorMatrix></filter> <filter id="colorsb3614736017"><feColorMatrix type="matrix" values="0 0 0 0 0  0 0 0 0 0  0 0 0 0 0  0 0 0 1 0" class="icon-fecolormatrix"></feColorMatrix></filter></defs></g></g> <g data-d="icon-text" hollow-target="textRect" transform="translate(0,49.428749084472656)"><g data-d="icon" class="iconsvg-imagesvg" transform="translate(58.74000358581543,0)"><g> <svg filter="url(#colors6855167383)" x="0" y="0" width="60" height="52.86064172819058" filtersec="colorsf2923346427" class="image-svg-svg primary" style="overflow: visible;"><svg xmlns="http://www.w3.org/2000/svg" xmlns:xlink="http://www.w3.org/1999/xlink" version="1.1" x="0px" y="0px" viewBox="6.300000190734863 11.5 87.39999389648438 77" xml:space="preserve"><path d="M72.3,12.3L72.3,12.3L72.3,12.3l-0.4-0.8H28.2L6.3,50l21.8,38.5h43.7L93.7,50L72.3,12.3z M33.3,25.3L9.9,47.7l18.6-32.8  L33.3,25.3z M70.7,14.8l6.4,35.7L36.9,25.8L70.7,14.8z M35.5,27.3l41,25.2l-41,23.3V27.3z M77,54.5l-7.2,30.8l-32.6-8.1L77,54.5z   M33.5,75L9.9,50.5l23.6-22.7V75z M33.2,77.6l-4.6,7.7L11.5,55.1L33.2,77.6z M35,78.6l31.4,7.9H30.2L35,78.6z M79.3,53.3l11.6-2.5  L72.1,84L79.3,53.3z M90.7,48.9l-11.4,2.5l-5.9-33.1L90.7,48.9z M35,24.3l-5-10.8h38.2L35,24.3z"></path></svg></svg> <defs><filter id="colors6855167383"><feColorMatrix type="matrix" values="0 0 0 0 0.96484375  0 0 0 0 0.76171875  0 0 0 0 0.32421875  0 0 0 1 0" class="icon-fecolormatrix"></feColorMatrix></filter> <filter id="colorsf2923346427"><feColorMatrix type="matrix" values="0 0 0 0 0.99609375  0 0 0 0 0.99609375  0 0 0 0 0.99609375  0 0 0 1 0" class="icon-fecolormatrix"></feColorMatrix></filter> <filter id="colorsb9583284933"><feColorMatrix type="matrix" values="0 0 0 0 0  0 0 0 0 0  0 0 0 0 0  0 0 0 1 0" class="icon-fecolormatrix"></feColorMatrix></filter></defs></g></g> <g data-d="text" transform="translate(0,59.86041259765625)"><g data-gra="path-name" fill-rule="" class="tp-name iconsvg-namesvg"><g transform="scale(1)"><g><path d="M25.6-4.07Q30.92-3.28 34.99-3.38L34.99-3.38Q34.42-1.55 33.53 0.05 32.65 1.66 31.46 2.56L31.46 2.56Q28.76 2.05 26.12 1.21 23.47 0.36 19.87-0.94L19.87-0.94 20.09-17.64Q17.57-17.78 16.34-17.78L16.34-17.78Q15.52-17.78 13.93-17.71L13.93-17.71 13.57-9.94Q13.46-7.24 12.62-4.57 11.77-1.91 10.19 0.13 8.6 2.16 6.44 2.92L6.44 2.92Q5.22 2.45 3.65 0.77 2.09-0.9 1.51-2.16L1.51-2.16Q3.82-2.59 5.24-4.01 6.66-5.44 7.29-7.02 7.92-8.6 8.06-9.94L8.06-9.94 8.6-21.96Q12.78-22.39 17.46-22.39L17.46-22.39Q21.64-22.39 25.81-22L25.81-22 25.6-4.07ZM71.28-22.14Q71.21-20.88 70.85-19.6 70.49-18.32 69.95-17.28L69.95-17.28Q69.23-17.42 68.87-17.46L68.87-17.46 68.87-0.83Q68.18 0.22 67.16 1.15 66.13 2.09 64.91 2.77L64.91 2.77Q63.29 2.3 61.72 1.33 60.16 0.36 59-0.94L59-0.94Q61.34-1.4 63.47-2.59L63.47-2.59 63.47-18Q61.31-18.11 59-18.11L59-18.11Q53.21-18.11 49.72-17.53L49.72-17.53Q49.21-18.47 48.82-19.69L48.82-19.69Q47.59-17.82 47.56-17.75L47.56-17.75 47.56-4.61Q47.56-0.5 47.81 1.33L47.81 1.33Q46.66 2.05 44.93 2.41 43.2 2.77 41.58 2.7L41.58 2.7Q42.41 0.07 42.41-3.53L42.41-3.53 42.41-11.74Q41.54-11.02 41.04-10.66L41.04-10.66Q38.41-11.66 36.36-14.44L36.36-14.44Q38.27-15.34 40.3-17.06 42.34-18.79 43.96-20.7 45.58-22.61 46.3-24.01L46.3-24.01Q48.92-23.83 50.58-22.82L50.58-22.82 50.33-22.28Q54.07-22.54 59.98-22.54L59.98-22.54Q67.46-22.54 71.28-22.14L71.28-22.14ZM61.88-3.56Q59.29-3.74 55.8-3.74L55.8-3.74Q52.31-3.74 49.61-3.56L49.61-3.56 49.46-3.56 49.43-3.56 49.46-3.74Q49.46-13.03 49.18-15.62L49.18-15.62 49.18-15.66 49.18-15.7 49.82-15.7Q52.02-15.84 55.66-15.84L55.66-15.84Q59.33-15.84 61.52-15.7L61.52-15.7 62.17-15.7 62.17-15.66 62.17-15.66 62.17-15.62Q61.88-12.96 61.88-3.56L61.88-3.56ZM56.95-11.88L54.36-11.88 54.4-7.63Q54.83-7.67 55.66-7.67L55.66-7.67Q56.52-7.67 56.92-7.63L56.92-7.63 56.95-11.88ZM75.2-12.31Q79.45-12.96 85.64-14.9L85.64-14.9 84.46-16.38Q80.96-15.12 79.02-14.58L79.02-14.58Q77.94-15.26 76.99-16.22 76.03-17.17 75.64-18.07L75.64-18.07Q78.08-18.58 81.85-19.76 85.61-20.95 88.9-22.32 92.2-23.69 93.42-24.66L93.42-24.66Q94.46-24.37 95.56-23.78 96.66-23.18 97.31-22.57L97.31-22.57 96.08-21.78Q101.38-19.91 103.36-18.9L103.36-18.9Q101.45-17.39 97.16-15.26 92.88-13.14 87.95-11.25 83.02-9.36 79.27-8.5L79.27-8.5Q78.12-9.11 77-10.17 75.89-11.23 75.2-12.31L75.2-12.31ZM88.42-17.96L90.32-16.52Q93.49-17.71 95.26-18.65L95.26-18.65Q94.39-19.08 92.41-19.8L92.41-19.8Q91.15-19.19 88.42-17.96L88.42-17.96ZM99-11.12Q104.47-9.07 106.56-8.14L106.56-8.14Q103.9-6.05 99.02-3.69 94.14-1.33 88.76 0.59 83.38 2.52 79.27 3.38L79.27 3.38Q78.01 2.66 76.64 1.49 75.28 0.32 74.66-0.72L74.66-0.72Q79.81-1.58 87.44-3.92L87.44-3.92 86.22-5.51Q81.94-3.82 79.02-2.99L79.02-2.99Q77.83-3.71 76.79-4.66 75.74-5.62 75.38-6.44L75.38-6.44Q80.28-7.63 87.46-10.24 94.64-12.85 97.7-14.65L97.7-14.65Q98.75-14.4 99.83-13.81 100.91-13.21 101.63-12.6L101.63-12.6Q100.62-11.95 99-11.12L99-11.12ZM90.11-7.06L92.16-5.47Q96.44-6.95 97.99-7.81L97.99-7.81Q97.24-8.32 95.08-9.22L95.08-9.22Q92.05-7.85 90.11-7.06L90.11-7.06ZM119.52-4.79Q125.42-3.78 132.34-3.06 139.25-2.34 143.53-2.41L143.53-2.41Q142.85-0.65 141.7 0.94 140.54 2.52 139.21 3.24L139.21 3.24Q132.41 2.38 117.9-0.79L117.9-0.79Q114.77 1.73 112.18 2.99L112.18 2.99Q111.13 2.12 110.43 0.76 109.73-0.61 109.44-2.12L109.44-2.12Q111.67-2.3 114.84-3.96L114.84-3.96 114.98-10.58Q113.72-10.58 111.85-10.4L111.85-10.4Q111.02-12.17 110.84-14.51L110.84-14.51Q112.9-14.76 115.38-14.76L115.38-14.76Q117.9-14.76 119.92-14.51L119.92-14.51 119.66-7.78Q124.74-10.12 125.64-15.88L125.64-15.88 121.97-15.66Q121-17.24 120.74-19.91L120.74-19.91Q122.83-20.05 125.46-20.09L125.46-20.09 124.81-24.34Q126.54-24.3 128.61-24.01 130.68-23.72 132.01-23.29L132.01-23.29 131.47-20.12Q138.02-20.12 141.08-19.91L141.08-19.91 141.08-19.87 140.44-7.85Q138.67-5.87 135.65-4.03L135.65-4.03Q133.09-5.65 130.86-8.46L130.86-8.46Q132.08-8.75 133.04-9.13 133.99-9.5 135.14-10.12L135.14-10.12 135.47-15.91Q132.73-15.98 131.11-15.98L131.11-15.98Q130.75-12.06 129.2-9.22 127.66-6.37 124.85-4.18L124.85-4.18Q121.79-5.22 119.63-7.52L119.63-7.52 119.52-4.79ZM120.31-19.98L119.48-17.14 111.92-18.18 113.72-23.11 120.31-19.98ZM168.52-13.75Q166.14-14.94 164.95-17.35L164.95-17.35Q167.47-18.5 170.26-20.45 173.05-22.39 174.46-24.01L174.46-24.01Q175.61-23.36 176.38-22.73 177.16-22.1 177.8-21.2L177.8-21.2Q176.29-19.33 173.47-17.08 170.64-14.83 168.52-13.75L168.52-13.75ZM162.25-8.78L162.25-5.29Q162.25-3.85 162.32-1.89 162.4 0.07 162.54 1.15L162.54 1.15Q161.39 1.91 159.66 2.25 157.93 2.59 156.31 2.52L156.31 2.52Q156.74 1.19 156.92-0.72 157.1-2.63 157.1-4.25L157.1-4.25 157.1-9 155.09-9Q154.76-5.11 153.61-2.39 152.46 0.32 150.08 2.56L150.08 2.56Q147.13 1.44 145.22-0.94L145.22-0.94Q147.35-2.41 148.48-4.34 149.62-6.26 150.01-8.82L150.01-8.82Q148.43-8.71 147.1-8.53L147.1-8.53Q146.12-10.3 145.94-12.89L145.94-12.89Q148.82-13.03 150.26-13.07L150.26-13.07 150.23-18.29Q148.86-18.18 148.18-18.04L148.18-18.04Q147.67-18.94 147.38-20.09 147.1-21.24 147.02-22.36L147.02-22.36Q149.54-22.54 156.13-22.54L156.13-22.54Q162.72-22.54 165.24-22.36L165.24-22.36Q164.92-19.44 164.09-18.04L164.09-18.04 162.25-18.25 162.25-13.03Q164.63-12.96 165.82-12.89L165.82-12.89Q165.49-10.01 164.63-8.53L164.63-8.53Q163.87-8.68 162.25-8.78L162.25-8.78ZM155.27-13.14L157.1-13.14 157.1-18.5 155.38-18.5 155.27-13.14ZM175.25-17.14Q176.36-16.49 177.16-15.84 177.95-15.19 178.6-14.29L178.6-14.29Q176.9-12.24 174.11-9.77 171.32-7.31 169.27-6.3L169.27-6.3Q166.97-7.49 165.74-9.9L165.74-9.9Q168.01-10.94 170.84-13.16 173.66-15.37 175.25-17.14L175.25-17.14ZM175.68-8.86Q176.8-8.24 177.55-7.58 178.31-6.91 178.99-6.01L178.99-6.01Q177.44-4.1 173.79-1.17 170.14 1.76 167.69 2.95L167.69 2.95Q166.5 2.38 165.44 1.46 164.38 0.54 163.62-0.61L163.62-0.61Q166.03-1.62 169.87-4.34 173.7-7.06 175.68-8.86L175.68-8.86Z" transform="translate(-1.5099999904632568, 24.65999984741211)"></path></g>       </g></g> </g></g></g><defs><filter id="55baceaf-ee2a-4ed3-a5e9-0d1d829b7bbb">
    <feColorMatrix type="matrix" values="0 0 0 0 0  0 0 0 0 0  0 0 0 0 0  0 0 0 1 0"></feColorMatrix>
</filter><filter id="5781862a-f6be-436d-982c-5621c70d3170">
    <feColorMatrix type="matrix" values="0 0 0 0 0.99609375  0 0 0 0 0.99609375  0 0 0 0 0.99609375  0 0 0 1 0"></feColorMatrix>
</filter></defs><mask id="70f96621-8da8-4d3a-8929-539fda58d30b"><g data-v-0dd9719b="" fill="#ffffff" class="j-b-g-c iconbgsvg"><g data-d="container"><g><rect fill="#ffffff" fill-opacity="0" stroke-width="2" x="0" y="0" width="164.5" height="186.75779" class="image-rect" stroke="#000"></rect> <svg filter="url(#5781862a-f6be-436d-982c-5621c70d3170)" x="0" y="0" width="164.5" height="186.75779" filtersec="colorsf7573622409" class="image-svg-container primary" style="overflow: visible;"><svg xmlns="http://www.w3.org/2000/svg" viewBox="12.01 6.86865 75.982 86.26266" style="overflow: visible;"><g transform="scale(1, 1) skewX(0)"><path style="text-indent:0;text-transform:none;block-progression:tb" d="M49.932 6.87a1.877 2.131 0 0 0-.772.224l-18.057 10.25-18.057 10.25A1.877 2.131 0 0 0 12.01 29.5v41a1.877 2.131 0 0 0 1.037 1.906l18.057 10.25 18.057 10.25a1.877 2.131 0 0 0 1.68 0l18.056-10.25 18.057-10.25a1.877 2.131 0 0 0 1.038-1.906v-41a1.877 2.131 0 0 0-1.038-1.906l-18.057-10.25L50.84 7.094a1.877 2.131 0 0 0-.907-.224zM50 11.382l17.217 9.774 17.02 9.66v38.368l-17.02 9.66L50 88.618l-17.218-9.774-17.02-9.66V30.817l17.02-9.661L50 11.382z" fill-rule="evenodd" overflow="visible" color="#000" fill="#000000"></path></g></svg></svg> <defs><filter id="colors7671325824"><feColorMatrix type="matrix" values="0 0 0 0 0.96484375  0 0 0 0 0.76171875  0 0 0 0 0.32421875  0 0 0 1 0" class="icon-fecolormatrix"></feColorMatrix></filter> <filter id="colorsf7573622409"><feColorMatrix type="matrix" values="0 0 0 0 0.99609375  0 0 0 0 0.99609375  0 0 0 0 0.99609375  0 0 0 1 0" class="icon-fecolormatrix"></feColorMatrix></filter> <filter id="colorsb3614736017"><feColorMatrix type="matrix" values="0 0 0 0 0  0 0 0 0 0  0 0 0 0 0  0 0 0 1 0" class="icon-fecolormatrix"></feColorMatrix></filter></defs></g></g> <g data-d="icon-text" hollow-target="textRect" transform="translate(-6.4900054931640625, 49.428749084472656)" stroke="black" stroke-width="6" stroke-linejoin="round"><g data-d="icon" class="iconsvg-imagesvg" transform="translate(58.74000358581543,0)"><g> <svg filter="url(#colors6855167383)" x="0" y="0" width="60" height="52.86064172819058" filtersec="colorsf2923346427" class="image-svg-svg primary" style="overflow: visible;"><svg xmlns="http://www.w3.org/2000/svg" xmlns:xlink="http://www.w3.org/1999/xlink" version="1.1" x="0px" y="0px" viewBox="6.300000190734863 11.5 87.39999389648438 77" xml:space="preserve" style="overflow: visible;"><path d="M72.3,12.3L72.3,12.3L72.3,12.3l-0.4-0.8H28.2L6.3,50l21.8,38.5h43.7L93.7,50L72.3,12.3z M33.3,25.3L9.9,47.7l18.6-32.8  L33.3,25.3z M70.7,14.8l6.4,35.7L36.9,25.8L70.7,14.8z M35.5,27.3l41,25.2l-41,23.3V27.3z M77,54.5l-7.2,30.8l-32.6-8.1L77,54.5z   M33.5,75L9.9,50.5l23.6-22.7V75z M33.2,77.6l-4.6,7.7L11.5,55.1L33.2,77.6z M35,78.6l31.4,7.9H30.2L35,78.6z M79.3,53.3l11.6-2.5  L72.1,84L79.3,53.3z M90.7,48.9l-11.4,2.5l-5.9-33.1L90.7,48.9z M35,24.3l-5-10.8h38.2L35,24.3z"></path></svg></svg> <defs><filter id="colors6855167383"><feColorMatrix type="matrix" values="0 0 0 0 0.96484375  0 0 0 0 0.76171875  0 0 0 0 0.32421875  0 0 0 1 0" class="icon-fecolormatrix"></feColorMatrix></filter> <filter id="colorsf2923346427"><feColorMatrix type="matrix" values="0 0 0 0 0.99609375  0 0 0 0 0.99609375  0 0 0 0 0.99609375  0 0 0 1 0" class="icon-fecolormatrix"></feColorMatrix></filter> <filter id="colorsb9583284933"><feColorMatrix type="matrix" values="0 0 0 0 0  0 0 0 0 0  0 0 0 0 0  0 0 0 1 0" class="icon-fecolormatrix"></feColorMatrix></filter></defs></g></g> <g data-d="text" transform="translate(0,59.86041259765625)"><g data-gra="path-name" fill-rule="" class="tp-name iconsvg-namesvg"><g transform="scale(1)"><g><path d="M25.6-4.07Q30.92-3.28 34.99-3.38L34.99-3.38Q34.42-1.55 33.53 0.05 32.65 1.66 31.46 2.56L31.46 2.56Q28.76 2.05 26.12 1.21 23.47 0.36 19.87-0.94L19.87-0.94 20.09-17.64Q17.57-17.78 16.34-17.78L16.34-17.78Q15.52-17.78 13.93-17.71L13.93-17.71 13.57-9.94Q13.46-7.24 12.62-4.57 11.77-1.91 10.19 0.13 8.6 2.16 6.44 2.92L6.44 2.92Q5.22 2.45 3.65 0.77 2.09-0.9 1.51-2.16L1.51-2.16Q3.82-2.59 5.24-4.01 6.66-5.44 7.29-7.02 7.92-8.6 8.06-9.94L8.06-9.94 8.6-21.96Q12.78-22.39 17.46-22.39L17.46-22.39Q21.64-22.39 25.81-22L25.81-22 25.6-4.07ZM71.28-22.14Q71.21-20.88 70.85-19.6 70.49-18.32 69.95-17.28L69.95-17.28Q69.23-17.42 68.87-17.46L68.87-17.46 68.87-0.83Q68.18 0.22 67.16 1.15 66.13 2.09 64.91 2.77L64.91 2.77Q63.29 2.3 61.72 1.33 60.16 0.36 59-0.94L59-0.94Q61.34-1.4 63.47-2.59L63.47-2.59 63.47-18Q61.31-18.11 59-18.11L59-18.11Q53.21-18.11 49.72-17.53L49.72-17.53Q49.21-18.47 48.82-19.69L48.82-19.69Q47.59-17.82 47.56-17.75L47.56-17.75 47.56-4.61Q47.56-0.5 47.81 1.33L47.81 1.33Q46.66 2.05 44.93 2.41 43.2 2.77 41.58 2.7L41.58 2.7Q42.41 0.07 42.41-3.53L42.41-3.53 42.41-11.74Q41.54-11.02 41.04-10.66L41.04-10.66Q38.41-11.66 36.36-14.44L36.36-14.44Q38.27-15.34 40.3-17.06 42.34-18.79 43.96-20.7 45.58-22.61 46.3-24.01L46.3-24.01Q48.92-23.83 50.58-22.82L50.58-22.82 50.33-22.28Q54.07-22.54 59.98-22.54L59.98-22.54Q67.46-22.54 71.28-22.14L71.28-22.14ZM61.88-3.56Q59.29-3.74 55.8-3.74L55.8-3.74Q52.31-3.74 49.61-3.56L49.61-3.56 49.46-3.56 49.43-3.56 49.46-3.74Q49.46-13.03 49.18-15.62L49.18-15.62 49.18-15.66 49.18-15.7 49.82-15.7Q52.02-15.84 55.66-15.84L55.66-15.84Q59.33-15.84 61.52-15.7L61.52-15.7 62.17-15.7 62.17-15.66 62.17-15.66 62.17-15.62Q61.88-12.96 61.88-3.56L61.88-3.56ZM56.95-11.88L54.36-11.88 54.4-7.63Q54.83-7.67 55.66-7.67L55.66-7.67Q56.52-7.67 56.92-7.63L56.92-7.63 56.95-11.88ZM75.2-12.31Q79.45-12.96 85.64-14.9L85.64-14.9 84.46-16.38Q80.96-15.12 79.02-14.58L79.02-14.58Q77.94-15.26 76.99-16.22 76.03-17.17 75.64-18.07L75.64-18.07Q78.08-18.58 81.85-19.76 85.61-20.95 88.9-22.32 92.2-23.69 93.42-24.66L93.42-24.66Q94.46-24.37 95.56-23.78 96.66-23.18 97.31-22.57L97.31-22.57 96.08-21.78Q101.38-19.91 103.36-18.9L103.36-18.9Q101.45-17.39 97.16-15.26 92.88-13.14 87.95-11.25 83.02-9.36 79.27-8.5L79.27-8.5Q78.12-9.11 77-10.17 75.89-11.23 75.2-12.31L75.2-12.31ZM88.42-17.96L90.32-16.52Q93.49-17.71 95.26-18.65L95.26-18.65Q94.39-19.08 92.41-19.8L92.41-19.8Q91.15-19.19 88.42-17.96L88.42-17.96ZM99-11.12Q104.47-9.07 106.56-8.14L106.56-8.14Q103.9-6.05 99.02-3.69 94.14-1.33 88.76 0.59 83.38 2.52 79.27 3.38L79.27 3.38Q78.01 2.66 76.64 1.49 75.28 0.32 74.66-0.72L74.66-0.72Q79.81-1.58 87.44-3.92L87.44-3.92 86.22-5.51Q81.94-3.82 79.02-2.99L79.02-2.99Q77.83-3.71 76.79-4.66 75.74-5.62 75.38-6.44L75.38-6.44Q80.28-7.63 87.46-10.24 94.64-12.85 97.7-14.65L97.7-14.65Q98.75-14.4 99.83-13.81 100.91-13.21 101.63-12.6L101.63-12.6Q100.62-11.95 99-11.12L99-11.12ZM90.11-7.06L92.16-5.47Q96.44-6.95 97.99-7.81L97.99-7.81Q97.24-8.32 95.08-9.22L95.08-9.22Q92.05-7.85 90.11-7.06L90.11-7.06ZM119.52-4.79Q125.42-3.78 132.34-3.06 139.25-2.34 143.53-2.41L143.53-2.41Q142.85-0.65 141.7 0.94 140.54 2.52 139.21 3.24L139.21 3.24Q132.41 2.38 117.9-0.79L117.9-0.79Q114.77 1.73 112.18 2.99L112.18 2.99Q111.13 2.12 110.43 0.76 109.73-0.61 109.44-2.12L109.44-2.12Q111.67-2.3 114.84-3.96L114.84-3.96 114.98-10.58Q113.72-10.58 111.85-10.4L111.85-10.4Q111.02-12.17 110.84-14.51L110.84-14.51Q112.9-14.76 115.38-14.76L115.38-14.76Q117.9-14.76 119.92-14.51L119.92-14.51 119.66-7.78Q124.74-10.12 125.64-15.88L125.64-15.88 121.97-15.66Q121-17.24 120.74-19.91L120.74-19.91Q122.83-20.05 125.46-20.09L125.46-20.09 124.81-24.34Q126.54-24.3 128.61-24.01 130.68-23.72 132.01-23.29L132.01-23.29 131.47-20.12Q138.02-20.12 141.08-19.91L141.08-19.91 141.08-19.87 140.44-7.85Q138.67-5.87 135.65-4.03L135.65-4.03Q133.09-5.65 130.86-8.46L130.86-8.46Q132.08-8.75 133.04-9.13 133.99-9.5 135.14-10.12L135.14-10.12 135.47-15.91Q132.73-15.98 131.11-15.98L131.11-15.98Q130.75-12.06 129.2-9.22 127.66-6.37 124.85-4.18L124.85-4.18Q121.79-5.22 119.63-7.52L119.63-7.52 119.52-4.79ZM120.31-19.98L119.48-17.14 111.92-18.18 113.72-23.11 120.31-19.98ZM168.52-13.75Q166.14-14.94 164.95-17.35L164.95-17.35Q167.47-18.5 170.26-20.45 173.05-22.39 174.46-24.01L174.46-24.01Q175.61-23.36 176.38-22.73 177.16-22.1 177.8-21.2L177.8-21.2Q176.29-19.33 173.47-17.08 170.64-14.83 168.52-13.75L168.52-13.75ZM162.25-8.78L162.25-5.29Q162.25-3.85 162.32-1.89 162.4 0.07 162.54 1.15L162.54 1.15Q161.39 1.91 159.66 2.25 157.93 2.59 156.31 2.52L156.31 2.52Q156.74 1.19 156.92-0.72 157.1-2.63 157.1-4.25L157.1-4.25 157.1-9 155.09-9Q154.76-5.11 153.61-2.39 152.46 0.32 150.08 2.56L150.08 2.56Q147.13 1.44 145.22-0.94L145.22-0.94Q147.35-2.41 148.48-4.34 149.62-6.26 150.01-8.82L150.01-8.82Q148.43-8.71 147.1-8.53L147.1-8.53Q146.12-10.3 145.94-12.89L145.94-12.89Q148.82-13.03 150.26-13.07L150.26-13.07 150.23-18.29Q148.86-18.18 148.18-18.04L148.18-18.04Q147.67-18.94 147.38-20.09 147.1-21.24 147.02-22.36L147.02-22.36Q149.54-22.54 156.13-22.54L156.13-22.54Q162.72-22.54 165.24-22.36L165.24-22.36Q164.92-19.44 164.09-18.04L164.09-18.04 162.25-18.25 162.25-13.03Q164.63-12.96 165.82-12.89L165.82-12.89Q165.49-10.01 164.63-8.53L164.63-8.53Q163.87-8.68 162.25-8.78L162.25-8.78ZM155.27-13.14L157.1-13.14 157.1-18.5 155.38-18.5 155.27-13.14ZM175.25-17.14Q176.36-16.49 177.16-15.84 177.95-15.19 178.6-14.29L178.6-14.29Q176.9-12.24 174.11-9.77 171.32-7.31 169.27-6.3L169.27-6.3Q166.97-7.49 165.74-9.9L165.74-9.9Q168.01-10.94 170.84-13.16 173.66-15.37 175.25-17.14L175.25-17.14ZM175.68-8.86Q176.8-8.24 177.55-7.58 178.31-6.91 178.99-6.01L178.99-6.01Q177.44-4.1 173.79-1.17 170.14 1.76 167.69 2.95L167.69 2.95Q166.5 2.38 165.44 1.46 164.38 0.54 163.62-0.61L163.62-0.61Q166.03-1.62 169.87-4.34 173.7-7.06 175.68-8.86L175.68-8.86Z" transform="translate(-1.5099999904632568, 24.65999984741211)"></path></g>       </g></g> </g></g></g></mask><defs v-gra="od"></defs></svg>