<svg data-v-0dd9719b="" version="1.0"
     xmlns="http://www.w3.org/2000/svg" width="100%" height="100%" viewBox="0 0 340.000000 250.000000" preserveAspectRatio="xMidYMid meet" color-interpolation-filters="sRGB" style="margin: auto;">
  <rect x="0" y="0" width="100%" height="100%" fill="url(#c8dab209-b87f-4da9-8d55-85c61bde4445)" fill-opacity="1" class="background" />
  <g fill="#0a0619" class="basesvg" transform="translate(82.76499938964844,80.90069580078125)">
    <g class="tp-name">
      <g transform="scale(1)">
        <g>
          <g transform="translate(0, 12)" fill-opacity="0">
            <path d="M37.62 0L27.2 0 17.7-14.73 13.34-14.73 13.34 0 4.48 0 4.48-40.41 18.23-40.41Q22.3-40.41 25.24-39.72 28.19-39.02 30.11-37.5 32.03-35.99 32.93-33.54 33.83-31.1 33.83-27.6L33.83-27.6Q33.83-22.54 32-19.68 30.16-16.83 26.26-15.66L26.26-15.66 37.62 0ZM13.34-21.31L16.89-21.31Q19.1-21.31 20.67-21.58 22.25-21.84 23.21-22.54 24.17-23.24 24.6-24.46 25.04-25.68 25.04-27.6L25.04-27.6Q25.04-29.41 24.6-30.54 24.17-31.68 23.21-32.32 22.25-32.96 20.67-33.19 19.1-33.43 16.89-33.43L16.89-33.43 13.34-33.43 13.34-21.31ZM51.19-7.69L67.84-7.69 67.84 0 42.34 0 42.34-40.41 67.03-40.41 67.03-32.73 51.19-32.73 51.19-24.4 65.86-24.4 65.86-17 51.19-17 51.19-7.69ZM103.31 0L99.87-10.02 83.45-10.02 79.95 0 70.75 0 85.84-40.41 97.72-40.41 112.68 0 103.31 0ZM86.01-17.35L97.31-17.35 92.07-32.67 91.37-32.67 86.01-17.35ZM135.74 0.58L135.74 0.58Q131.32 0.58 127.71-0.29 124.1-1.16 121.53-3.46 118.97-5.77 117.57-9.81 116.18-13.86 116.18-20.21L116.18-20.21Q116.18-26.03 117.54-30.02 118.91-34.01 121.48-36.45 124.04-38.9 127.62-39.95 131.2-41 135.68-41L135.68-41Q141.39-41 145.12-39.66L145.12-39.66 145.12-32.03Q143.25-32.67 141.04-33.05 138.83-33.43 136.27-33.43L136.27-33.43Q133.53-33.43 131.55-32.76 129.57-32.09 128.29-30.54 127.01-29 126.4-26.5 125.78-23.99 125.78-20.27L125.78-20.27Q125.78-16.31 126.4-13.77 127.01-11.24 128.29-9.75 129.57-8.27 131.52-7.69 133.47-7.1 136.15-7.1L136.15-7.1Q138.65-7.1 140.95-7.48 143.25-7.86 145.58-8.68L145.58-8.68 145.58-1.11Q143.78-0.35 141.22 0.12 138.65 0.58 135.74 0.58ZM178.95-40.41L178.95-32.67 168.35-32.67 168.35 0 159.56 0 159.56-32.67 148.96-32.67 148.96-40.41 178.95-40.41Z" transform="translate(-4.480000019073486, 41)" />
          </g>
          <g filter="url(#text-effect-sticker-shadow-7k2S7V8FuMIa97HbRgWSo)" stroke="#000" stroke-width="12" stroke-linecap="round" stroke-linejoin="round">
            <path d="M37.62 0L27.2 0 17.7-14.73 13.34-14.73 13.34 0 4.48 0 4.48-40.41 18.23-40.41Q22.3-40.41 25.24-39.72 28.19-39.02 30.11-37.5 32.03-35.99 32.93-33.54 33.83-31.1 33.83-27.6L33.83-27.6Q33.83-22.54 32-19.68 30.16-16.83 26.26-15.66L26.26-15.66 37.62 0ZM13.34-21.31L16.89-21.31Q19.1-21.31 20.67-21.58 22.25-21.84 23.21-22.54 24.17-23.24 24.6-24.46 25.04-25.68 25.04-27.6L25.04-27.6Q25.04-29.41 24.6-30.54 24.17-31.68 23.21-32.32 22.25-32.96 20.67-33.19 19.1-33.43 16.89-33.43L16.89-33.43 13.34-33.43 13.34-21.31ZM51.19-7.69L67.84-7.69 67.84 0 42.34 0 42.34-40.41 67.03-40.41 67.03-32.73 51.19-32.73 51.19-24.4 65.86-24.4 65.86-17 51.19-17 51.19-7.69ZM103.31 0L99.87-10.02 83.45-10.02 79.95 0 70.75 0 85.84-40.41 97.72-40.41 112.68 0 103.31 0ZM86.01-17.35L97.31-17.35 92.07-32.67 91.37-32.67 86.01-17.35ZM135.74 0.58L135.74 0.58Q131.32 0.58 127.71-0.29 124.1-1.16 121.53-3.46 118.97-5.77 117.57-9.81 116.18-13.86 116.18-20.21L116.18-20.21Q116.18-26.03 117.54-30.02 118.91-34.01 121.48-36.45 124.04-38.9 127.62-39.95 131.2-41 135.68-41L135.68-41Q141.39-41 145.12-39.66L145.12-39.66 145.12-32.03Q143.25-32.67 141.04-33.05 138.83-33.43 136.27-33.43L136.27-33.43Q133.53-33.43 131.55-32.76 129.57-32.09 128.29-30.54 127.01-29 126.4-26.5 125.78-23.99 125.78-20.27L125.78-20.27Q125.78-16.31 126.4-13.77 127.01-11.24 128.29-9.75 129.57-8.27 131.52-7.69 133.47-7.1 136.15-7.1L136.15-7.1Q138.65-7.1 140.95-7.48 143.25-7.86 145.58-8.68L145.58-8.68 145.58-1.11Q143.78-0.35 141.22 0.12 138.65 0.58 135.74 0.58ZM178.95-40.41L178.95-32.67 168.35-32.67 168.35 0 159.56 0 159.56-32.67 148.96-32.67 148.96-40.41 178.95-40.41Z" transform="translate(-4.480000019073486, 41)" />
          </g>
          <g stroke="#FFFFFF" stroke-width="10" stroke-linecap="round" stroke-linejoin="round">
            <path d="M37.62 0L27.2 0 17.7-14.73 13.34-14.73 13.34 0 4.48 0 4.48-40.41 18.23-40.41Q22.3-40.41 25.24-39.72 28.19-39.02 30.11-37.5 32.03-35.99 32.93-33.54 33.83-31.1 33.83-27.6L33.83-27.6Q33.83-22.54 32-19.68 30.16-16.83 26.26-15.66L26.26-15.66 37.62 0ZM13.34-21.31L16.89-21.31Q19.1-21.31 20.67-21.58 22.25-21.84 23.21-22.54 24.17-23.24 24.6-24.46 25.04-25.68 25.04-27.6L25.04-27.6Q25.04-29.41 24.6-30.54 24.17-31.68 23.21-32.32 22.25-32.96 20.67-33.19 19.1-33.43 16.89-33.43L16.89-33.43 13.34-33.43 13.34-21.31ZM51.19-7.69L67.84-7.69 67.84 0 42.34 0 42.34-40.41 67.03-40.41 67.03-32.73 51.19-32.73 51.19-24.4 65.86-24.4 65.86-17 51.19-17 51.19-7.69ZM103.31 0L99.87-10.02 83.45-10.02 79.95 0 70.75 0 85.84-40.41 97.72-40.41 112.68 0 103.31 0ZM86.01-17.35L97.31-17.35 92.07-32.67 91.37-32.67 86.01-17.35ZM135.74 0.58L135.74 0.58Q131.32 0.58 127.71-0.29 124.1-1.16 121.53-3.46 118.97-5.77 117.57-9.81 116.18-13.86 116.18-20.21L116.18-20.21Q116.18-26.03 117.54-30.02 118.91-34.01 121.48-36.45 124.04-38.9 127.62-39.95 131.2-41 135.68-41L135.68-41Q141.39-41 145.12-39.66L145.12-39.66 145.12-32.03Q143.25-32.67 141.04-33.05 138.83-33.43 136.27-33.43L136.27-33.43Q133.53-33.43 131.55-32.76 129.57-32.09 128.29-30.54 127.01-29 126.4-26.5 125.78-23.99 125.78-20.27L125.78-20.27Q125.78-16.31 126.4-13.77 127.01-11.24 128.29-9.75 129.57-8.27 131.52-7.69 133.47-7.1 136.15-7.1L136.15-7.1Q138.65-7.1 140.95-7.48 143.25-7.86 145.58-8.68L145.58-8.68 145.58-1.11Q143.78-0.35 141.22 0.12 138.65 0.58 135.74 0.58ZM178.95-40.41L178.95-32.67 168.35-32.67 168.35 0 159.56 0 159.56-32.67 148.96-32.67 148.96-40.41 178.95-40.41Z" transform="translate(-4.480000019073486, 41)" />
          </g>
          <g stroke="#000" stroke-width="2" stroke-linecap="round" stroke-linejoin="round">
            <path d="M37.62 0L27.2 0 17.7-14.73 13.34-14.73 13.34 0 4.48 0 4.48-40.41 18.23-40.41Q22.3-40.41 25.24-39.72 28.19-39.02 30.11-37.5 32.03-35.99 32.93-33.54 33.83-31.1 33.83-27.6L33.83-27.6Q33.83-22.54 32-19.68 30.16-16.83 26.26-15.66L26.26-15.66 37.62 0ZM13.34-21.31L16.89-21.31Q19.1-21.31 20.67-21.58 22.25-21.84 23.21-22.54 24.17-23.24 24.6-24.46 25.04-25.68 25.04-27.6L25.04-27.6Q25.04-29.41 24.6-30.54 24.17-31.68 23.21-32.32 22.25-32.96 20.67-33.19 19.1-33.43 16.89-33.43L16.89-33.43 13.34-33.43 13.34-21.31ZM51.19-7.69L67.84-7.69 67.84 0 42.34 0 42.34-40.41 67.03-40.41 67.03-32.73 51.19-32.73 51.19-24.4 65.86-24.4 65.86-17 51.19-17 51.19-7.69ZM103.31 0L99.87-10.02 83.45-10.02 79.95 0 70.75 0 85.84-40.41 97.72-40.41 112.68 0 103.31 0ZM86.01-17.35L97.31-17.35 92.07-32.67 91.37-32.67 86.01-17.35ZM135.74 0.58L135.74 0.58Q131.32 0.58 127.71-0.29 124.1-1.16 121.53-3.46 118.97-5.77 117.57-9.81 116.18-13.86 116.18-20.21L116.18-20.21Q116.18-26.03 117.54-30.02 118.91-34.01 121.48-36.45 124.04-38.9 127.62-39.95 131.2-41 135.68-41L135.68-41Q141.39-41 145.12-39.66L145.12-39.66 145.12-32.03Q143.25-32.67 141.04-33.05 138.83-33.43 136.27-33.43L136.27-33.43Q133.53-33.43 131.55-32.76 129.57-32.09 128.29-30.54 127.01-29 126.4-26.5 125.78-23.99 125.78-20.27L125.78-20.27Q125.78-16.31 126.4-13.77 127.01-11.24 128.29-9.75 129.57-8.27 131.52-7.69 133.47-7.1 136.15-7.1L136.15-7.1Q138.65-7.1 140.95-7.48 143.25-7.86 145.58-8.68L145.58-8.68 145.58-1.11Q143.78-0.35 141.22 0.12 138.65 0.58 135.74 0.58ZM178.95-40.41L178.95-32.67 168.35-32.67 168.35 0 159.56 0 159.56-32.67 148.96-32.67 148.96-40.41 178.95-40.41Z" transform="translate(-4.480000019073486, 41)" />
          </g>
          <defs>
            <filter id="text-effect-sticker-shadow-7k2S7V8FuMIa97HbRgWSo" filterUnits="objectBoundingBox" width="2" height="2" x="-0.2" y="-0.2">
              <feDropShadow dx="0" dy="3" stdDeviation="0" flood-color="#f5f54b" flood-opacity="1"/>
              <feDropShadow dx="0" dy="1" stdDeviation="0" flood-color="#000" flood-opacity="1"/>
            </filter>
          </defs>
        </g>
        <g transform="translate(0,56.58000183105469)">
          <g transform="scale(0.98654)">
            <g transform="translate(0, 12)" fill-opacity="0">
              <path d="M10.48 0.28L10.48 0.28Q8.37 0.28 6.71-0.17 5.06-0.62 3.93-1.76 2.81-2.89 2.22-4.83 1.63-6.77 1.63-9.75L1.63-9.75Q1.63-12.72 2.22-14.66 2.81-16.6 3.93-17.74 5.06-18.87 6.71-19.32 8.37-19.77 10.48-19.77L10.48-19.77Q12.61-19.77 14.27-19.32 15.92-18.87 17.05-17.74 18.17-16.6 18.75-14.66 19.32-12.72 19.32-9.75L19.32-9.75Q19.32-6.77 18.75-4.83 18.17-2.89 17.05-1.76 15.92-0.62 14.27-0.17 12.61 0.28 10.48 0.28ZM10.48-3.29L10.48-3.29Q11.82-3.29 12.68-3.62 13.54-3.96 14.01-4.72 14.49-5.48 14.67-6.71 14.86-7.95 14.86-9.75L14.86-9.75Q14.86-11.52 14.67-12.76 14.49-14.01 14.01-14.8 13.54-15.59 12.68-15.94 11.82-16.29 10.48-16.29L10.48-16.29Q9.13-16.29 8.29-15.94 7.44-15.59 6.97-14.8 6.49-14.01 6.31-12.76 6.12-11.52 6.12-9.75L6.12-9.75Q6.12-7.95 6.31-6.71 6.49-5.48 6.97-4.72 7.44-3.96 8.29-3.62 9.13-3.29 10.48-3.29ZM23.14 0L23.14-19.49 29.8-19.49Q31.99-19.49 33.46-19.11 34.94-18.73 35.82-17.93 36.71-17.13 37.09-15.88 37.47-14.63 37.47-12.86L37.47-12.86Q37.47-10.95 37.04-9.65 36.62-8.34 35.7-7.53 34.77-6.71 33.31-6.36 31.85-6.01 29.8-6.01L29.8-6.01 27.41-6.01 27.41 0 23.14 0ZM27.41-9.44L29.24-9.44Q30.33-9.44 31.06-9.59 31.79-9.75 32.26-10.14 32.72-10.53 32.92-11.16 33.11-11.8 33.11-12.78L33.11-12.78Q33.11-13.71 32.92-14.35 32.72-15 32.26-15.39 31.79-15.78 31.05-15.95 30.3-16.12 29.24-16.12L29.24-16.12 27.41-16.12 27.41-9.44ZM45.22-3.71L53.25-3.71 53.25 0 40.95 0 40.95-19.49 52.86-19.49 52.86-15.78 45.22-15.78 45.22-11.77 52.3-11.77 52.3-8.2 45.22-8.2 45.22-3.71ZM56.73 0L56.73-19.49 63.25-19.49 69.37-5.56 69.54-5.56 69.54-19.49 73.72-19.49 73.72 0 67.85 0 61.11-14.83 60.95-14.83 60.95 0 56.73 0ZM82.32-3.71L90.07-3.71 90.07 0 78.05 0 78.05-19.49 82.32-19.49 82.32-3.71ZM106.5 0L104.84-4.83 96.92-4.83 95.24 0 90.8 0 98.07-19.49 103.8-19.49 111.02 0 106.5 0ZM98.16-8.37L103.61-8.37 101.08-15.76 100.74-15.76 98.16-8.37ZM118.24 0L118.24-7.72 111.16-19.49 116.16-19.49 120.35-11.71 120.51-11.71 124.84-19.49 129.64-19.49 122.54-7.81 122.54 0 118.24 0ZM136.16-3.71L144.19-3.71 144.19 0 131.89 0 131.89-19.49 143.8-19.49 143.8-15.78 136.16-15.78 136.16-11.77 143.24-11.77 143.24-8.2 136.16-8.2 136.16-3.71ZM163.65 0L158.63 0 154.05-7.11 151.94-7.11 151.94 0 147.67 0 147.67-19.49 154.3-19.49Q156.27-19.49 157.69-19.15 159.1-18.82 160.03-18.09 160.96-17.36 161.39-16.18 161.83-15 161.83-13.31L161.83-13.31Q161.83-10.87 160.94-9.49 160.06-8.12 158.18-7.56L158.18-7.56 163.65 0ZM151.94-10.28L153.66-10.28Q154.72-10.28 155.48-10.41 156.24-10.53 156.7-10.87 157.17-11.21 157.38-11.8 157.59-12.39 157.59-13.31L157.59-13.31Q157.59-14.18 157.38-14.73 157.17-15.28 156.7-15.59 156.24-15.9 155.48-16.01 154.72-16.12 153.66-16.12L153.66-16.12 151.94-16.12 151.94-10.28ZM170.98 0.28L170.98 0.28Q169.27 0.28 167.74 0.06 166.21-0.17 165.31-0.42L165.31-0.42 165.31-4.16Q165.76-3.99 166.41-3.85 167.05-3.71 167.78-3.61 168.51-3.51 169.29-3.44 170.06-3.37 170.82-3.37L170.82-3.37Q171.77-3.37 172.43-3.48 173.09-3.59 173.5-3.88 173.91-4.16 174.07-4.61 174.24-5.06 174.24-5.7L174.24-5.7Q174.24-6.26 174.1-6.66 173.96-7.05 173.58-7.36 173.2-7.67 172.52-7.92 171.83-8.17 170.7-8.45L170.7-8.45Q169.13-8.82 168.11-9.25 167.08-9.69 166.46-10.32 165.84-10.95 165.59-11.85 165.34-12.75 165.34-14.07L165.34-14.07Q165.34-17.16 167.21-18.47 169.07-19.77 172.47-19.77L172.47-19.77Q174.13-19.77 175.41-19.56 176.69-19.35 177.47-19.07L177.47-19.07 177.47-15.56Q177.11-15.67 176.55-15.8 175.98-15.92 175.31-16.04 174.64-16.15 173.95-16.21 173.26-16.26 172.64-16.26L172.64-16.26Q170.98-16.26 170.24-15.84 169.5-15.42 169.5-14.18L169.5-14.18Q169.5-13.71 169.61-13.37 169.72-13.03 170.07-12.76 170.42-12.5 171.08-12.27 171.74-12.05 172.81-11.8L172.81-11.8Q174.55-11.37 175.66-10.86 176.77-10.34 177.4-9.62 178.03-8.9 178.26-7.93 178.48-6.97 178.48-5.59L178.48-5.59Q178.48-2.72 176.74-1.22 175 0.28 170.98 0.28Z" transform="translate(-1.6299999952316284, 19.770000457763672)"/>
            </g>
            <g filter="url(#text-effect-sticker-shadow-7k2S7V8FuMIa97HbRgWSo)" stroke="#000" stroke-width="12" stroke-linecap="round" stroke-linejoin="round">
              <path d="M10.48 0.28L10.48 0.28Q8.37 0.28 6.71-0.17 5.06-0.62 3.93-1.76 2.81-2.89 2.22-4.83 1.63-6.77 1.63-9.75L1.63-9.75Q1.63-12.72 2.22-14.66 2.81-16.6 3.93-17.74 5.06-18.87 6.71-19.32 8.37-19.77 10.48-19.77L10.48-19.77Q12.61-19.77 14.27-19.32 15.92-18.87 17.05-17.74 18.17-16.6 18.75-14.66 19.32-12.72 19.32-9.75L19.32-9.75Q19.32-6.77 18.75-4.83 18.17-2.89 17.05-1.76 15.92-0.62 14.27-0.17 12.61 0.28 10.48 0.28ZM10.48-3.29L10.48-3.29Q11.82-3.29 12.68-3.62 13.54-3.96 14.01-4.72 14.49-5.48 14.67-6.71 14.86-7.95 14.86-9.75L14.86-9.75Q14.86-11.52 14.67-12.76 14.49-14.01 14.01-14.8 13.54-15.59 12.68-15.94 11.82-16.29 10.48-16.29L10.48-16.29Q9.13-16.29 8.29-15.94 7.44-15.59 6.97-14.8 6.49-14.01 6.31-12.76 6.12-11.52 6.12-9.75L6.12-9.75Q6.12-7.95 6.31-6.71 6.49-5.48 6.97-4.72 7.44-3.96 8.29-3.62 9.13-3.29 10.48-3.29ZM23.14 0L23.14-19.49 29.8-19.49Q31.99-19.49 33.46-19.11 34.94-18.73 35.82-17.93 36.71-17.13 37.09-15.88 37.47-14.63 37.47-12.86L37.47-12.86Q37.47-10.95 37.04-9.65 36.62-8.34 35.7-7.53 34.77-6.71 33.31-6.36 31.85-6.01 29.8-6.01L29.8-6.01 27.41-6.01 27.41 0 23.14 0ZM27.41-9.44L29.24-9.44Q30.33-9.44 31.06-9.59 31.79-9.75 32.26-10.14 32.72-10.53 32.92-11.16 33.11-11.8 33.11-12.78L33.11-12.78Q33.11-13.71 32.92-14.35 32.72-15 32.26-15.39 31.79-15.78 31.05-15.95 30.3-16.12 29.24-16.12L29.24-16.12 27.41-16.12 27.41-9.44ZM45.22-3.71L53.25-3.71 53.25 0 40.95 0 40.95-19.49 52.86-19.49 52.86-15.78 45.22-15.78 45.22-11.77 52.3-11.77 52.3-8.2 45.22-8.2 45.22-3.71ZM56.73 0L56.73-19.49 63.25-19.49 69.37-5.56 69.54-5.56 69.54-19.49 73.72-19.49 73.72 0 67.85 0 61.11-14.83 60.95-14.83 60.95 0 56.73 0ZM82.32-3.71L90.07-3.71 90.07 0 78.05 0 78.05-19.49 82.32-19.49 82.32-3.71ZM106.5 0L104.84-4.83 96.92-4.83 95.24 0 90.8 0 98.07-19.49 103.8-19.49 111.02 0 106.5 0ZM98.16-8.37L103.61-8.37 101.08-15.76 100.74-15.76 98.16-8.37ZM118.24 0L118.24-7.72 111.16-19.49 116.16-19.49 120.35-11.71 120.51-11.71 124.84-19.49 129.64-19.49 122.54-7.81 122.54 0 118.24 0ZM136.16-3.71L144.19-3.71 144.19 0 131.89 0 131.89-19.49 143.8-19.49 143.8-15.78 136.16-15.78 136.16-11.77 143.24-11.77 143.24-8.2 136.16-8.2 136.16-3.71ZM163.65 0L158.63 0 154.05-7.11 151.94-7.11 151.94 0 147.67 0 147.67-19.49 154.3-19.49Q156.27-19.49 157.69-19.15 159.1-18.82 160.03-18.09 160.96-17.36 161.39-16.18 161.83-15 161.83-13.31L161.83-13.31Q161.83-10.87 160.94-9.49 160.06-8.12 158.18-7.56L158.18-7.56 163.65 0ZM151.94-10.28L153.66-10.28Q154.72-10.28 155.48-10.41 156.24-10.53 156.7-10.87 157.17-11.21 157.38-11.8 157.59-12.39 157.59-13.31L157.59-13.31Q157.59-14.18 157.38-14.73 157.17-15.28 156.7-15.59 156.24-15.9 155.48-16.01 154.72-16.12 153.66-16.12L153.66-16.12 151.94-16.12 151.94-10.28ZM170.98 0.28L170.98 0.28Q169.27 0.28 167.74 0.06 166.21-0.17 165.31-0.42L165.31-0.42 165.31-4.16Q165.76-3.99 166.41-3.85 167.05-3.71 167.78-3.61 168.51-3.51 169.29-3.44 170.06-3.37 170.82-3.37L170.82-3.37Q171.77-3.37 172.43-3.48 173.09-3.59 173.5-3.88 173.91-4.16 174.07-4.61 174.24-5.06 174.24-5.7L174.24-5.7Q174.24-6.26 174.1-6.66 173.96-7.05 173.58-7.36 173.2-7.67 172.52-7.92 171.83-8.17 170.7-8.45L170.7-8.45Q169.13-8.82 168.11-9.25 167.08-9.69 166.46-10.32 165.84-10.95 165.59-11.85 165.34-12.75 165.34-14.07L165.34-14.07Q165.34-17.16 167.21-18.47 169.07-19.77 172.47-19.77L172.47-19.77Q174.13-19.77 175.41-19.56 176.69-19.35 177.47-19.07L177.47-19.07 177.47-15.56Q177.11-15.67 176.55-15.8 175.98-15.92 175.31-16.04 174.64-16.15 173.95-16.21 173.26-16.26 172.64-16.26L172.64-16.26Q170.98-16.26 170.24-15.84 169.5-15.42 169.5-14.18L169.5-14.18Q169.5-13.71 169.61-13.37 169.72-13.03 170.07-12.76 170.42-12.5 171.08-12.27 171.74-12.05 172.81-11.8L172.81-11.8Q174.55-11.37 175.66-10.86 176.77-10.34 177.4-9.62 178.03-8.9 178.26-7.93 178.48-6.97 178.48-5.59L178.48-5.59Q178.48-2.72 176.74-1.22 175 0.28 170.98 0.28Z" transform="translate(-1.6299999952316284, 19.770000457763672)"/>
            </g>
            <g stroke="#FFFFFF" stroke-width="10" stroke-linecap="round" stroke-linejoin="round">
              <path d="M10.48 0.28L10.48 0.28Q8.37 0.28 6.71-0.17 5.06-0.62 3.93-1.76 2.81-2.89 2.22-4.83 1.63-6.77 1.63-9.75L1.63-9.75Q1.63-12.72 2.22-14.66 2.81-16.6 3.93-17.74 5.06-18.87 6.71-19.32 8.37-19.77 10.48-19.77L10.48-19.77Q12.61-19.77 14.27-19.32 15.92-18.87 17.05-17.74 18.17-16.6 18.75-14.66 19.32-12.72 19.32-9.75L19.32-9.75Q19.32-6.77 18.75-4.83 18.17-2.89 17.05-1.76 15.92-0.62 14.27-0.17 12.61 0.28 10.48 0.28ZM10.48-3.29L10.48-3.29Q11.82-3.29 12.68-3.62 13.54-3.96 14.01-4.72 14.49-5.48 14.67-6.71 14.86-7.95 14.86-9.75L14.86-9.75Q14.86-11.52 14.67-12.76 14.49-14.01 14.01-14.8 13.54-15.59 12.68-15.94 11.82-16.29 10.48-16.29L10.48-16.29Q9.13-16.29 8.29-15.94 7.44-15.59 6.97-14.8 6.49-14.01 6.31-12.76 6.12-11.52 6.12-9.75L6.12-9.75Q6.12-7.95 6.31-6.71 6.49-5.48 6.97-4.72 7.44-3.96 8.29-3.62 9.13-3.29 10.48-3.29ZM23.14 0L23.14-19.49 29.8-19.49Q31.99-19.49 33.46-19.11 34.94-18.73 35.82-17.93 36.71-17.13 37.09-15.88 37.47-14.63 37.47-12.86L37.47-12.86Q37.47-10.95 37.04-9.65 36.62-8.34 35.7-7.53 34.77-6.71 33.31-6.36 31.85-6.01 29.8-6.01L29.8-6.01 27.41-6.01 27.41 0 23.14 0ZM27.41-9.44L29.24-9.44Q30.33-9.44 31.06-9.59 31.79-9.75 32.26-10.14 32.72-10.53 32.92-11.16 33.11-11.8 33.11-12.78L33.11-12.78Q33.11-13.71 32.92-14.35 32.72-15 32.26-15.39 31.79-15.78 31.05-15.95 30.3-16.12 29.24-16.12L29.24-16.12 27.41-16.12 27.41-9.44ZM45.22-3.71L53.25-3.71 53.25 0 40.95 0 40.95-19.49 52.86-19.49 52.86-15.78 45.22-15.78 45.22-11.77 52.3-11.77 52.3-8.2 45.22-8.2 45.22-3.71ZM56.73 0L56.73-19.49 63.25-19.49 69.37-5.56 69.54-5.56 69.54-19.49 73.72-19.49 73.72 0 67.85 0 61.11-14.83 60.95-14.83 60.95 0 56.73 0ZM82.32-3.71L90.07-3.71 90.07 0 78.05 0 78.05-19.49 82.32-19.49 82.32-3.71ZM106.5 0L104.84-4.83 96.92-4.83 95.24 0 90.8 0 98.07-19.49 103.8-19.49 111.02 0 106.5 0ZM98.16-8.37L103.61-8.37 101.08-15.76 100.74-15.76 98.16-8.37ZM118.24 0L118.24-7.72 111.16-19.49 116.16-19.49 120.35-11.71 120.51-11.71 124.84-19.49 129.64-19.49 122.54-7.81 122.54 0 118.24 0ZM136.16-3.71L144.19-3.71 144.19 0 131.89 0 131.89-19.49 143.8-19.49 143.8-15.78 136.16-15.78 136.16-11.77 143.24-11.77 143.24-8.2 136.16-8.2 136.16-3.71ZM163.65 0L158.63 0 154.05-7.11 151.94-7.11 151.94 0 147.67 0 147.67-19.49 154.3-19.49Q156.27-19.49 157.69-19.15 159.1-18.82 160.03-18.09 160.96-17.36 161.39-16.18 161.83-15 161.83-13.31L161.83-13.31Q161.83-10.87 160.94-9.49 160.06-8.12 158.18-7.56L158.18-7.56 163.65 0ZM151.94-10.28L153.66-10.28Q154.72-10.28 155.48-10.41 156.24-10.53 156.7-10.87 157.17-11.21 157.38-11.8 157.59-12.39 157.59-13.31L157.59-13.31Q157.59-14.18 157.38-14.73 157.17-15.28 156.7-15.59 156.24-15.9 155.48-16.01 154.72-16.12 153.66-16.12L153.66-16.12 151.94-16.12 151.94-10.28ZM170.98 0.28L170.98 0.28Q169.27 0.28 167.74 0.06 166.21-0.17 165.31-0.42L165.31-0.42 165.31-4.16Q165.76-3.99 166.41-3.85 167.05-3.71 167.78-3.61 168.51-3.51 169.29-3.44 170.06-3.37 170.82-3.37L170.82-3.37Q171.77-3.37 172.43-3.48 173.09-3.59 173.5-3.88 173.91-4.16 174.07-4.61 174.24-5.06 174.24-5.7L174.24-5.7Q174.24-6.26 174.1-6.66 173.96-7.05 173.58-7.36 173.2-7.67 172.52-7.92 171.83-8.17 170.7-8.45L170.7-8.45Q169.13-8.82 168.11-9.25 167.08-9.69 166.46-10.32 165.84-10.95 165.59-11.85 165.34-12.75 165.34-14.07L165.34-14.07Q165.34-17.16 167.21-18.47 169.07-19.77 172.47-19.77L172.47-19.77Q174.13-19.77 175.41-19.56 176.69-19.35 177.47-19.07L177.47-19.07 177.47-15.56Q177.11-15.67 176.55-15.8 175.98-15.92 175.31-16.04 174.64-16.15 173.95-16.21 173.26-16.26 172.64-16.26L172.64-16.26Q170.98-16.26 170.24-15.84 169.5-15.42 169.5-14.18L169.5-14.18Q169.5-13.71 169.61-13.37 169.72-13.03 170.07-12.76 170.42-12.5 171.08-12.27 171.74-12.05 172.81-11.8L172.81-11.8Q174.55-11.37 175.66-10.86 176.77-10.34 177.4-9.62 178.03-8.9 178.26-7.93 178.48-6.97 178.48-5.59L178.48-5.59Q178.48-2.72 176.74-1.22 175 0.28 170.98 0.28Z" transform="translate(-1.6299999952316284, 19.770000457763672)"/>
            </g>
            <g stroke="#000" stroke-width="2" stroke-linecap="round" stroke-linejoin="round" fill="#0a0619">
              <path d="M10.48 0.28L10.48 0.28Q8.37 0.28 6.71-0.17 5.06-0.62 3.93-1.76 2.81-2.89 2.22-4.83 1.63-6.77 1.63-9.75L1.63-9.75Q1.63-12.72 2.22-14.66 2.81-16.6 3.93-17.74 5.06-18.87 6.71-19.32 8.37-19.77 10.48-19.77L10.48-19.77Q12.61-19.77 14.27-19.32 15.92-18.87 17.05-17.74 18.17-16.6 18.75-14.66 19.32-12.72 19.32-9.75L19.32-9.75Q19.32-6.77 18.75-4.83 18.17-2.89 17.05-1.76 15.92-0.62 14.27-0.17 12.61 0.28 10.48 0.28ZM10.48-3.29L10.48-3.29Q11.82-3.29 12.68-3.62 13.54-3.96 14.01-4.72 14.49-5.48 14.67-6.71 14.86-7.95 14.86-9.75L14.86-9.75Q14.86-11.52 14.67-12.76 14.49-14.01 14.01-14.8 13.54-15.59 12.68-15.94 11.82-16.29 10.48-16.29L10.48-16.29Q9.13-16.29 8.29-15.94 7.44-15.59 6.97-14.8 6.49-14.01 6.31-12.76 6.12-11.52 6.12-9.75L6.12-9.75Q6.12-7.95 6.31-6.71 6.49-5.48 6.97-4.72 7.44-3.96 8.29-3.62 9.13-3.29 10.48-3.29ZM23.14 0L23.14-19.49 29.8-19.49Q31.99-19.49 33.46-19.11 34.94-18.73 35.82-17.93 36.71-17.13 37.09-15.88 37.47-14.63 37.47-12.86L37.47-12.86Q37.47-10.95 37.04-9.65 36.62-8.34 35.7-7.53 34.77-6.71 33.31-6.36 31.85-6.01 29.8-6.01L29.8-6.01 27.41-6.01 27.41 0 23.14 0ZM27.41-9.44L29.24-9.44Q30.33-9.44 31.06-9.59 31.79-9.75 32.26-10.14 32.72-10.53 32.92-11.16 33.11-11.8 33.11-12.78L33.11-12.78Q33.11-13.71 32.92-14.35 32.72-15 32.26-15.39 31.79-15.78 31.05-15.95 30.3-16.12 29.24-16.12L29.24-16.12 27.41-16.12 27.41-9.44ZM45.22-3.71L53.25-3.71 53.25 0 40.95 0 40.95-19.49 52.86-19.49 52.86-15.78 45.22-15.78 45.22-11.77 52.3-11.77 52.3-8.2 45.22-8.2 45.22-3.71ZM56.73 0L56.73-19.49 63.25-19.49 69.37-5.56 69.54-5.56 69.54-19.49 73.72-19.49 73.72 0 67.85 0 61.11-14.83 60.95-14.83 60.95 0 56.73 0ZM82.32-3.71L90.07-3.71 90.07 0 78.05 0 78.05-19.49 82.32-19.49 82.32-3.71ZM106.5 0L104.84-4.83 96.92-4.83 95.24 0 90.8 0 98.07-19.49 103.8-19.49 111.02 0 106.5 0ZM98.16-8.37L103.61-8.37 101.08-15.76 100.74-15.76 98.16-8.37ZM118.24 0L118.24-7.72 111.16-19.49 116.16-19.49 120.35-11.71 120.51-11.71 124.84-19.49 129.64-19.49 122.54-7.81 122.54 0 118.24 0ZM136.16-3.71L144.19-3.71 144.19 0 131.89 0 131.89-19.49 143.8-19.49 143.8-15.78 136.16-15.78 136.16-11.77 143.24-11.77 143.24-8.2 136.16-8.2 136.16-3.71ZM163.65 0L158.63 0 154.05-7.11 151.94-7.11 151.94 0 147.67 0 147.67-19.49 154.3-19.49Q156.27-19.49 157.69-19.15 159.1-18.82 160.03-18.09 160.96-17.36 161.39-16.18 161.83-15 161.83-13.31L161.83-13.31Q161.83-10.87 160.94-9.49 160.06-8.12 158.18-7.56L158.18-7.56 163.65 0ZM151.94-10.28L153.66-10.28Q154.72-10.28 155.48-10.41 156.24-10.53 156.7-10.87 157.17-11.21 157.38-11.8 157.59-12.39 157.59-13.31L157.59-13.31Q157.59-14.18 157.38-14.73 157.17-15.28 156.7-15.59 156.24-15.9 155.48-16.01 154.72-16.12 153.66-16.12L153.66-16.12 151.94-16.12 151.94-10.28ZM170.98 0.28L170.98 0.28Q169.27 0.28 167.74 0.06 166.21-0.17 165.31-0.42L165.31-0.42 165.31-4.16Q165.76-3.99 166.41-3.85 167.05-3.71 167.78-3.61 168.51-3.51 169.29-3.44 170.06-3.37 170.82-3.37L170.82-3.37Q171.77-3.37 172.43-3.48 173.09-3.59 173.5-3.88 173.91-4.16 174.07-4.61 174.24-5.06 174.24-5.7L174.24-5.7Q174.24-6.26 174.1-6.66 173.96-7.05 173.58-7.36 173.2-7.67 172.52-7.92 171.83-8.17 170.7-8.45L170.7-8.45Q169.13-8.82 168.11-9.25 167.08-9.69 166.46-10.32 165.84-10.95 165.59-11.85 165.34-12.75 165.34-14.07L165.34-14.07Q165.34-17.16 167.21-18.47 169.07-19.77 172.47-19.77L172.47-19.77Q174.13-19.77 175.41-19.56 176.69-19.35 177.47-19.07L177.47-19.07 177.47-15.56Q177.11-15.67 176.55-15.8 175.98-15.92 175.31-16.04 174.64-16.15 173.95-16.21 173.26-16.26 172.64-16.26L172.64-16.26Q170.98-16.26 170.24-15.84 169.5-15.42 169.5-14.18L169.5-14.18Q169.5-13.71 169.61-13.37 169.72-13.03 170.07-12.76 170.42-12.5 171.08-12.27 171.74-12.05 172.81-11.8L172.81-11.8Q174.55-11.37 175.66-10.86 176.77-10.34 177.4-9.62 178.03-8.9 178.26-7.93 178.48-6.97 178.48-5.59L178.48-5.59Q178.48-2.72 176.74-1.22 175 0.28 170.98 0.28Z" transform="translate(-1.6299999952316284, 19.770000457763672)"/>
            </g>
            <defs>
              <filter id="text-effect-sticker-shadow-7k2S7V8FuMIa97HbRgWSo" filterUnits="objectBoundingBox" width="2" height="2" x="-0.2" y="-0.2">
                <feDropShadow dx="0" dy="3" stdDeviation="0" flood-color="#f5f54b" flood-opacity="1"/>
                <feDropShadow dx="0" dy="1" stdDeviation="0" flood-color="#000" flood-opacity="1"/>
              </filter>
            </defs>
          </g>
        </g>
      </g>
    </g>
  </g>
  <defs>
    <linearGradient x1="0" y1="1" x2="0" y2="0" id="c8dab209-b87f-4da9-8d55-85c61bde4445">
      <stop offset="0%" stop-color="#00c9ff"/>
      <stop offset="100%" stop-color="#92fe9d"/>
    </linearGradient>
    <filter id="42443b3f1de60f6b6fd3b6a9844b4764" filterUnits="objectBoundingBox">
      <feColorMatrix type="matrix" values="0 0 0 0 0.99609375  0 0 0 0 0.99609375  0 0 0 0 0.99609375  0 0 0 1 0"/>
    </filter>
  </defs>
</svg>