<svg data-v-0dd9719b="" version="1.0" xmlns="http://www.w3.org/2000/svg" xmlns:xlink="http://www.w3.org/1999/xlink" width="100%" height="100%" viewBox="0 0 340.000000 250.000000" preserveAspectRatio="xMidYMid meet" color-interpolation-filters="sRGB" style="margin: auto;"> <rect data-v-0dd9719b="" x="0" y="0" width="100%" height="100%" fill="#0a0619" fill-opacity="1" class="background"></rect> <g data-v-0dd9719b="" fill="#FFFFFF" class="icon-text-wrapper icon-svg-group iconsvg" transform="translate(82.05500030517578,56.44348907470703)"><g class="iconsvg-imagesvg" transform="translate(33.94499969482422,0)" mask="url(#7395402f-3e76-40ce-829f-84c434bf57f9)"><g><rect fill="#FFFFFF" fill-opacity="0" stroke-width="2" x="0" y="0" width="108.00000000000004" height="69.42301758716448" class="image-rect"></rect> <svg filter="url(#colors9101455845)" x="0" y="0" width="108.00000000000004" height="69.42301758716448" filtersec="colorsf3602265468" class="image-svg-svg primary" style="overflow: visible;"><svg xmlns="http://www.w3.org/2000/svg" xmlns:xlink="http://www.w3.org/1999/xlink" viewBox="-0.004000186920166016 -0.002002716064453125 84.23999786376953 54.150001525878906"><path transform="translate(-4.464 52.12800000000001)" d="M35.57-52.13L41.83-44.35L19.73-25.20L41.54-5.76L35.06 2.02L4.46-25.27L35.57-52.13ZM58.25 2.02L51.48-5.47L73.44-25.20L51.12-44.50L57.82-51.98L88.70-25.27L58.25 2.02Z"></path></svg></svg> <defs><filter id="colors9101455845"><feColorMatrix type="matrix" values="0 0 0 0 0  0 0 0 0 0.8359375  0 0 0 0 0.8203125  0 0 0 1 0" class="icon-fecolormatrix"></feColorMatrix></filter> <filter id="colorsf3602265468"><feColorMatrix type="matrix" values="0 0 0 0 0.99609375  0 0 0 0 0.99609375  0 0 0 0 0.99609375  0 0 0 1 0" class="icon-fecolormatrix"></feColorMatrix></filter> <filter id="colorsb5779677812"><feColorMatrix type="matrix" values="0 0 0 0 0  0 0 0 0 0  0 0 0 0 0  0 0 0 1 0" class="icon-fecolormatrix"></feColorMatrix></filter></defs></g><rect v-gra="id" width="120" height="81.42301940917969" transform="translate(-6, -6)" style="pointer-events:none;" fill="url(#xcuAWjNXwtAJK3lnYe6qC)"></rect></g> <g transform="translate(0,94.42301940917969)"><g data-gra="path-name" fill-rule="" class="tp-name iconsvg-namesvg"><g transform="scale(1)"><g><path d="M12.68-32.2L12.68-32.2Q15.32-32.2 16.75-31.64 18.17-31.08 19.2-30.45L19.2-30.45Q19.74-30.14 20.07-29.99 20.41-29.83 20.72-29.83L20.72-29.83Q21.43-29.83 21.7-31.79L21.7-31.79 22.73-31.79Q22.68-30.95 22.62-29.76 22.55-28.58 22.53-26.66 22.51-24.74 22.51-21.61L22.51-21.61 21.48-21.61Q21.3-23.93 20.41-26.12 19.51-28.31 17.88-29.72 16.25-31.12 13.89-31.12L13.89-31.12Q11.74-31.12 10.36-29.92 8.98-28.71 8.98-26.57L8.98-26.57Q8.98-24.78 9.87-23.51 10.76-22.24 12.48-21.03 14.2-19.83 16.66-18.13L16.66-18.13Q18.8-16.75 20.5-15.36 22.19-13.98 23.22-12.24 24.25-10.49 24.25-8.08L24.25-8.08Q24.25-5.14 22.71-3.22 21.17-1.29 18.67-0.33 16.16 0.63 13.17 0.63L13.17 0.63Q10.4 0.63 8.75 0.09 7.1-0.45 5.98-1.03L5.98-1.03Q5-1.65 4.47-1.65L4.47-1.65Q3.75-1.65 3.48 0.31L3.48 0.31 2.46 0.31Q2.55-0.76 2.57-2.19 2.59-3.62 2.61-5.92 2.63-8.22 2.63-11.74L2.63-11.74 3.66-11.74Q3.84-8.8 4.67-6.23 5.49-3.66 7.21-2.1 8.93-0.54 11.79-0.54L11.79-0.54Q14.11-0.54 15.72-1.79 17.33-3.04 17.33-5.54L17.33-5.54Q17.33-8.31 15.45-10.11 13.57-11.92 10.63-13.84L10.63-13.84Q8.53-15.23 6.7-16.61 4.87-18 3.77-19.78 2.68-21.57 2.68-24.02L2.68-24.02Q2.68-26.84 4.09-28.65 5.49-30.45 7.79-31.32 10.09-32.2 12.68-32.2ZM43.76-23.71L43.76-23.71Q45.64-23.71 46.82-23.24 48-22.77 48.67-21.97L48.67-21.97Q49.39-21.12 49.72-19.78 50.06-18.44 50.06-16.16L50.06-16.16 50.06-4.15Q50.06-2.28 50.7-1.61 51.35-0.94 52.91-0.94L52.91-0.94 52.91 0Q52.07-0.04 50.37-0.11 48.67-0.18 47.02-0.18L47.02-0.18Q45.32-0.18 43.69-0.11 42.06-0.04 41.22 0L41.22 0 41.22-0.94Q42.56-0.94 43.09-1.61 43.63-2.28 43.63-4.15L43.63-4.15 43.63-18.04Q43.63-19.16 43.4-19.98 43.18-20.81 42.6-21.28 42.02-21.75 40.86-21.75L40.86-21.75Q38.98-21.75 37.71-20.27 36.44-18.8 36.44-16.57L36.44-16.57 36.44-4.15Q36.44-2.28 37-1.61 37.55-0.94 38.85-0.94L38.85-0.94 38.85 0Q38.05-0.04 36.5-0.11 34.96-0.18 33.31-0.18L33.31-0.18Q31.61-0.18 29.83-0.11 28.04-0.04 27.15 0L27.15 0 27.15-0.94Q28.71-0.94 29.36-1.61 30.01-2.28 30.01-4.15L30.01-4.15 30.01-18.22Q30.01-20.23 29.4-21.19 28.8-22.15 27.15-22.15L27.15-22.15 27.15-23.09Q28.58-22.95 29.92-22.95L29.92-22.95Q31.79-22.95 33.42-23.11 35.05-23.26 36.44-23.58L36.44-23.58 36.44-19.56Q37.55-21.84 39.47-22.77 41.39-23.71 43.76-23.71ZM60.37-34.61L60.37-34.61Q62.25-34.61 63.34-33.69 64.44-32.78 64.44-31.17L64.44-31.17Q64.44-29.56 63.34-28.65 62.25-27.73 60.37-27.73L60.37-27.73Q58.5-27.73 57.4-28.65 56.31-29.56 56.31-31.17L56.31-31.17Q56.31-32.78 57.4-33.69 58.5-34.61 60.37-34.61ZM63.86-23.58L63.86-23.58 63.86-4.15Q63.86-2.28 64.5-1.61 65.15-0.94 66.71-0.94L66.71-0.94 66.71 0Q65.91-0.04 64.21-0.11 62.52-0.18 60.77-0.18L60.77-0.18Q59.03-0.18 57.25-0.11 55.46-0.04 54.57 0L54.57 0 54.57-0.94Q56.13-0.94 56.78-1.61 57.42-2.28 57.42-4.15L57.42-4.15 57.42-18.22Q57.42-20.23 56.82-21.19 56.22-22.15 54.57-22.15L54.57-22.15 54.57-23.09Q56-22.95 57.34-22.95L57.34-22.95Q59.21-22.95 60.84-23.11 62.47-23.26 63.86-23.58ZM77.74-23.58L77.74-23.58 77.74 3.66Q77.74 5.76 78.81 6.45 79.89 7.14 81.76 7.14L81.76 7.14 81.76 8.08Q80.6 8.04 78.57 7.97 76.54 7.9 74.26 7.9L74.26 7.9Q72.61 7.9 71.02 7.97 69.44 8.04 68.63 8.08L68.63 8.08 68.63 7.14Q70.11 7.14 70.71 6.52 71.31 5.89 71.31 4.11L71.31 4.11 71.31-18.22Q71.31-20.23 70.69-21.19 70.06-22.15 68.45-22.15L68.45-22.15 68.45-23.09Q69.88-22.95 71.22-22.95L71.22-22.95Q73.05-22.95 74.71-23.11 76.36-23.26 77.74-23.58ZM84.66-23.71L84.66-23.71Q88.06-23.71 90.36-20.94 92.66-18.17 92.66-12.59L92.66-12.59Q92.66-8.26 91.36-5.31 90.07-2.37 87.77-0.87 85.47 0.63 82.3 0.63L82.3 0.63Q80.56 0.63 79.13 0.02 77.7-0.58 76.94-1.7L76.94-1.7 77.39-2.28Q77.83-1.47 78.66-1.03 79.48-0.58 80.56-0.58L80.56-0.58Q82.57-0.58 83.73-1.94 84.89-3.3 85.4-5.78 85.91-8.26 85.91-11.7L85.91-11.7Q85.91-15.54 85.42-17.73 84.93-19.92 84.08-20.85 83.23-21.79 82.03-21.79L82.03-21.79Q80.42-21.79 79.1-20.54 77.79-19.29 77.61-16.97L77.61-16.97 77.39-18.53Q78.19-21.08 80.13-22.39 82.07-23.71 84.66-23.71ZM104.53-23.58L104.53-23.58 104.53 3.66Q104.53 5.76 105.61 6.45 106.68 7.14 108.55 7.14L108.55 7.14 108.55 8.08Q107.39 8.04 105.36 7.97 103.33 7.9 101.05 7.9L101.05 7.9Q99.4 7.9 97.81 7.97 96.23 8.04 95.43 8.08L95.43 8.08 95.43 7.14Q96.9 7.14 97.5 6.52 98.1 5.89 98.1 4.11L98.1 4.11 98.1-18.22Q98.1-20.23 97.48-21.19 96.85-22.15 95.25-22.15L95.25-22.15 95.25-23.09Q96.68-22.95 98.02-22.95L98.02-22.95Q99.85-22.95 101.5-23.11 103.15-23.26 104.53-23.58ZM111.46-23.71L111.46-23.71Q114.85-23.71 117.15-20.94 119.45-18.17 119.45-12.59L119.45-12.59Q119.45-8.26 118.15-5.31 116.86-2.37 114.56-0.87 112.26 0.63 109.09 0.63L109.09 0.63Q107.35 0.63 105.92 0.02 104.49-0.58 103.73-1.7L103.73-1.7 104.18-2.28Q104.62-1.47 105.45-1.03 106.28-0.58 107.35-0.58L107.35-0.58Q109.36-0.58 110.52-1.94 111.68-3.3 112.19-5.78 112.71-8.26 112.71-11.7L112.71-11.7Q112.71-15.54 112.22-17.73 111.72-19.92 110.88-20.85 110.03-21.79 108.82-21.79L108.82-21.79Q107.21-21.79 105.9-20.54 104.58-19.29 104.4-16.97L104.4-16.97 104.18-18.53Q104.98-21.08 106.92-22.39 108.87-23.71 111.46-23.71ZM133.74-23.71L133.74-23.71Q137.67-23.71 139.9-21.39 142.13-19.07 142.13-13.8L142.13-13.8 127.44-13.8 127.35-14.65 136.51-14.65Q136.55-16.83 136.24-18.69 135.93-20.54 135.26-21.66 134.59-22.77 133.47-22.77L133.47-22.77Q131.91-22.77 130.81-20.81 129.72-18.84 129.5-14.29L129.5-14.29 129.63-14.02Q129.59-13.49 129.56-12.9 129.54-12.32 129.54-11.7L129.54-11.7Q129.54-8.62 130.41-6.7 131.28-4.78 132.62-3.91 133.96-3.04 135.35-3.04L135.35-3.04Q136.69-3.04 138.27-3.71 139.86-4.38 141.24-6.61L141.24-6.61 142.04-6.34Q141.51-4.64 140.35-3.04 139.19-1.43 137.4-0.4 135.61 0.63 133.11 0.63L133.11 0.63Q130.08 0.63 127.75-0.67 125.43-1.96 124.12-4.6 122.8-7.23 122.8-11.3L122.8-11.3Q122.8-15.45 124.2-18.22 125.61-20.99 128.09-22.35 130.57-23.71 133.74-23.71ZM153.79-30.41L153.79-30.41 153.79-23.09 159.06-23.09 159.06-22.19 153.79-22.19 153.79-4.15Q153.79-2.81 154.28-2.26 154.77-1.7 155.75-1.7L155.75-1.7Q156.56-1.7 157.36-2.3 158.16-2.9 158.79-4.38L158.79-4.38 159.55-3.97Q158.83-1.96 157.38-0.67 155.93 0.63 153.43 0.63L153.43 0.63Q151.96 0.63 150.84 0.25 149.72-0.13 148.97-0.89L148.97-0.89Q147.98-1.88 147.67-3.33 147.36-4.78 147.36-7.1L147.36-7.1 147.36-22.19 143.61-22.19 143.61-23.09 147.36-23.09 147.36-28.98Q149.23-28.98 150.82-29.32 152.4-29.65 153.79-30.41ZM169.28-23.71L169.28-23.71Q171.16-23.71 172.57-23.24 173.97-22.77 174.6-22.33L174.6-22.33Q176.12-21.3 176.47-23.67L176.47-23.67 177.41-23.67Q177.32-22.42 177.28-20.61 177.23-18.8 177.23-15.81L177.23-15.81 176.29-15.81Q176.07-17.46 175.45-19.07 174.82-20.67 173.64-21.7 172.45-22.73 170.58-22.73L170.58-22.73Q169.28-22.73 168.39-21.99 167.5-21.26 167.5-19.87L167.5-19.87Q167.5-18.53 168.3-17.53 169.1-16.52 170.38-15.61 171.65-14.69 173.03-13.66L173.03-13.66Q175.27-12.01 176.81-10.34 178.35-8.66 178.35-5.98L178.35-5.98Q178.35-3.97 177.19-2.48 176.03-0.98 174.13-0.18 172.23 0.63 169.91 0.63L169.91 0.63Q168.57 0.63 167.52 0.36 166.47 0.09 165.71-0.31L165.71-0.31Q165.13-0.58 164.62-0.83 164.1-1.07 163.66-1.25L163.66-1.25Q163.21-1.38 162.88-0.94 162.54-0.49 162.36 0.31L162.36 0.31 161.42 0.31Q161.51-1.12 161.56-3.17 161.6-5.22 161.6-8.62L161.6-8.62 162.54-8.62Q162.81-6.21 163.52-4.35 164.24-2.5 165.47-1.45 166.69-0.4 168.57-0.4L168.57-0.4Q169.73-0.4 170.71-1.14 171.69-1.88 171.69-3.57L171.69-3.57Q171.69-5.54 170.42-6.83 169.15-8.13 167.18-9.65L167.18-9.65Q165.76-10.81 164.48-11.94 163.21-13.08 162.41-14.45 161.6-15.81 161.6-17.55L161.6-17.55Q161.6-19.56 162.67-20.94 163.75-22.33 165.51-23.02 167.27-23.71 169.28-23.71Z" transform="translate(-2.4600000381469727, 34.61000061035156)"></path></g> <!----> <!----> <!----> <!----> <!----> <!----> <!----></g></g> <!----></g></g><defs v-gra="od"></defs><defs v-gra="id"><filter id="fb6e5531-ae9c-4179-8948-85aaab2a3eb3" filterUnits="userSpaceOnUse"><feColorMatrix type="matrix" values="0 0 0 0 0.99609375  0 0 0 0 0.99609375  0 0 0 0 0.99609375  0 0 0 1 0"></feColorMatrix></filter><linearGradient x1="0" y1="1" x2="0" y2="0" id="xcuAWjNXwtAJK3lnYe6qC"><stop offset="0%" stop-color="#57ec99"></stop><stop offset="33.33%" stop-color="#1371ef"></stop><stop offset="66.67%" stop-color="#fc1cd5"></stop><stop offset="100%" stop-color="#fccc05"></stop></linearGradient><filter id="42443b3f1de60f6b6fd3b6a9844b4764" filterUnits="objectBoundingBox"><feColorMatrix type="matrix" values="0 0 0 0 0.99609375  0 0 0 0 0.99609375  0 0 0 0 0.99609375  0 0 0 1 0"></feColorMatrix></filter></defs><mask v-gra="im" id="7395402f-3e76-40ce-829f-84c434bf57f9"><g class="iconsvg-imagesvg" filter="url(#fb6e5531-ae9c-4179-8948-85aaab2a3eb3)"><g><rect fill="#FFFFFF" fill-opacity="0" stroke-width="2" x="0" y="0" width="108.00000000000004" height="69.42301758716448" class="image-rect"></rect> <svg x="0" y="0" width="108.00000000000004" height="69.42301758716448" filtersec="colorsf3602265468" class="image-svg-svg primary" style="overflow: visible;"><svg xmlns="http://www.w3.org/2000/svg" xmlns:xlink="http://www.w3.org/1999/xlink" viewBox="-0.004000186920166016 -0.002002716064453125 84.23999786376953 54.150001525878906"><path transform="translate(-4.464 52.12800000000001)" d="M35.57-52.13L41.83-44.35L19.73-25.20L41.54-5.76L35.06 2.02L4.46-25.27L35.57-52.13ZM58.25 2.02L51.48-5.47L73.44-25.20L51.12-44.50L57.82-51.98L88.70-25.27L58.25 2.02Z"></path></svg></svg> <defs><filter id="colors9101455845"><feColorMatrix type="matrix" values="0 0 0 0 0  0 0 0 0 0.8359375  0 0 0 0 0.8203125  0 0 0 1 0" class="icon-fecolormatrix"></feColorMatrix></filter> <filter id="colorsf3602265468"><feColorMatrix type="matrix" values="0 0 0 0 0.99609375  0 0 0 0 0.99609375  0 0 0 0 0.99609375  0 0 0 1 0" class="icon-fecolormatrix"></feColorMatrix></filter> <filter id="colorsb5779677812"><feColorMatrix type="matrix" values="0 0 0 0 0  0 0 0 0 0  0 0 0 0 0  0 0 0 1 0" class="icon-fecolormatrix"></feColorMatrix></filter></defs></g></g></mask></svg>