<svg data-v-0dd9719b="" version="1.0" xmlns="http://www.w3.org/2000/svg" xmlns:xlink="http://www.w3.org/1999/xlink"
  width="100%" height="100%" viewBox="0 0 340.000000 250.000000" preserveAspectRatio="xMidYMid meet"
  color-interpolation-filters="sRGB" style="margin: auto;">
  <rect data-v-0dd9719b="" x="0" y="0" width="100%" height="100%" fill="rgba(41,101,204,0.2)" fill-opacity="1" class="background">
  </rect>
  <g data-v-0dd9719b="" fill="#2966cc" class="pmspacesvg" transform="translate(85.30329895019531,69.57849884033203)">
    <!---->
    <g>
      <!---->
      <!---->
      <!---->
      <g fill-opacity="1" mask="url(#5aca99d5-5a29-4cf5-883b-93a595011776)">
        <g>
          <rect data-gra="graph-name-bg" stroke-width="2" class="i-icon-bg" x="0" y="0" width="169.39340209960938"
            height="110.84300231933594"></rect>
          <!---->
          <!---->
        </g>
        <g transform="translate(10,10)">
          <g data-gra="path-name" fill-rule="" class="tp-name" fill="#ffffff" fill-opacity="1">
            <g transform="scale(2.140000000000001)">
              <g>
                <path
                  d="M40.69-41.27L39.59-36.34 29.12-36.34 21.39 0 7.35 0 15.08-36.34 4.75-36.34 5.92-41.27 40.69-41.27ZM72.15-29.32L61.36-29.32Q61.55-30.29 61.55-31.98L61.55-31.98Q61.55-32.95 61.42-33.9 61.3-34.84 60.97-35.59 60.64-36.34 60-36.76 59.34-37.18 58.3-37.18L58.3-37.18Q57.14-37.18 56.16-36.66 55.19-36.14 54.44-35.33 53.69-34.52 53.27-33.44 52.84-32.37 52.84-31.2L52.84-31.2Q52.84-29.51 53.72-28.6 54.6-27.69 56.03-27.11 57.46-26.52 59.28-26.13 61.1-25.74 63.05-25.22L63.05-25.22Q64.67-24.77 66.3-24.05 67.93-23.34 69.19-22.13 70.46-20.93 71.24-19.01 72.02-17.09 72.02-14.24L72.02-14.24Q72.02-10.14 70.4-7.35 68.77-4.55 65.91-2.79 63.05-1.04 59.12-0.26 55.19 0.52 50.57 0.52L50.57 0.52Q45.89 0.52 42.93-0.1 39.98-0.72 38.28-1.43L38.28-1.43Q36.27-2.27 35.3-3.38L35.3-3.38 37.51-12.29 48.95-12.29Q48.88-11.7 48.81-10.69 48.75-9.69 48.75-9.1L48.75-9.1Q48.75-8.32 48.95-7.48 49.14-6.63 49.56-5.92 49.98-5.2 50.77-4.75 51.55-4.29 52.72-4.29L52.72-4.29Q54.02-4.29 55.02-4.88 56.03-5.46 56.71-6.34 57.39-7.21 57.75-8.29 58.11-9.36 58.11-10.4L58.11-10.4Q58.11-11.83 57.43-12.8 56.75-13.78 55.58-14.46 54.41-15.15 52.88-15.63 51.35-16.12 49.73-16.64L49.73-16.64Q48.16-17.09 46.44-17.75 44.72-18.39 43.29-19.57 41.86-20.73 40.92-22.52 39.98-24.31 39.98-27.11L39.98-27.11Q39.98-31.27 42.09-34.09 44.2-36.92 47.42-38.68 50.63-40.43 54.47-41.18 58.3-41.93 61.75-41.93L61.75-41.93Q66.3-41.93 69.58-40.85 72.87-39.78 74.56-38.35L74.56-38.35 72.15-29.32Z"
                  transform="translate(-4.75, 41.93000030517578)"></path>
              </g>
              <!---->
              <!---->
              <!---->
              <!---->
              <!---->
              <!---->
              <!---->
            </g>
          </g>
          <!---->
        </g>
      </g>
      <!---->
    </g>
  </g>
  <mask id="5aca99d5-5a29-4cf5-883b-93a595011776">
    <g fill="white">
      <rect data-gra="graph-name-bg" stroke-width="2" class="i-icon-bg" x="0" y="0" width="169.39340209960938"
        height="110.84300231933594"></rect>
    </g>
    <g transform="translate(10,10)" fill="black">
      <g data-gra="path-name" fill-rule="" class="tp-name" fill-opacity="1">
        <g transform="scale(2.140000000000001)">
          <g>
            <path
              d="M40.69-41.27L39.59-36.34 29.12-36.34 21.39 0 7.35 0 15.08-36.34 4.75-36.34 5.92-41.27 40.69-41.27ZM72.15-29.32L61.36-29.32Q61.55-30.29 61.55-31.98L61.55-31.98Q61.55-32.95 61.42-33.9 61.3-34.84 60.97-35.59 60.64-36.34 60-36.76 59.34-37.18 58.3-37.18L58.3-37.18Q57.14-37.18 56.16-36.66 55.19-36.14 54.44-35.33 53.69-34.52 53.27-33.44 52.84-32.37 52.84-31.2L52.84-31.2Q52.84-29.51 53.72-28.6 54.6-27.69 56.03-27.11 57.46-26.52 59.28-26.13 61.1-25.74 63.05-25.22L63.05-25.22Q64.67-24.77 66.3-24.05 67.93-23.34 69.19-22.13 70.46-20.93 71.24-19.01 72.02-17.09 72.02-14.24L72.02-14.24Q72.02-10.14 70.4-7.35 68.77-4.55 65.91-2.79 63.05-1.04 59.12-0.26 55.19 0.52 50.57 0.52L50.57 0.52Q45.89 0.52 42.93-0.1 39.98-0.72 38.28-1.43L38.28-1.43Q36.27-2.27 35.3-3.38L35.3-3.38 37.51-12.29 48.95-12.29Q48.88-11.7 48.81-10.69 48.75-9.69 48.75-9.1L48.75-9.1Q48.75-8.32 48.95-7.48 49.14-6.63 49.56-5.92 49.98-5.2 50.77-4.75 51.55-4.29 52.72-4.29L52.72-4.29Q54.02-4.29 55.02-4.88 56.03-5.46 56.71-6.34 57.39-7.21 57.75-8.29 58.11-9.36 58.11-10.4L58.11-10.4Q58.11-11.83 57.43-12.8 56.75-13.78 55.58-14.46 54.41-15.15 52.88-15.63 51.35-16.12 49.73-16.64L49.73-16.64Q48.16-17.09 46.44-17.75 44.72-18.39 43.29-19.57 41.86-20.73 40.92-22.52 39.98-24.31 39.98-27.11L39.98-27.11Q39.98-31.27 42.09-34.09 44.2-36.92 47.42-38.68 50.63-40.43 54.47-41.18 58.3-41.93 61.75-41.93L61.75-41.93Q66.3-41.93 69.58-40.85 72.87-39.78 74.56-38.35L74.56-38.35 72.15-29.32Z"
              transform="translate(-4.75, 41.93000030517578)"></path>
          </g>
        </g>
      </g>
    </g>
  </mask>
  <defs v-gra="od"></defs>
</svg>